<svg width="23" height="20" viewBox="0 0 23 20" fill="none" xmlns="http://www.w3.org/2000/svg">
<path d="M11.1157 1.09475C12.9368 -0.010514 15.1799 -0.294725 17.2343 0.315802C19.0332 0.842118 20.5213 2.06317 21.3541 3.6737C22.3424 5.63159 22.4757 7.89475 21.7317 9.94738C21.0432 11.8421 19.9216 13.5579 18.4447 14.9684C17.4786 15.9158 16.4348 16.779 15.3243 17.5684L15.2577 17.6105C14.8912 17.8421 14.3915 17.7579 14.1361 17.4C14.014 17.2316 13.9584 17.0211 14.0028 16.8105C14.0362 16.6 14.1583 16.4211 14.3471 16.3053C15.3909 15.5579 16.3681 14.7369 17.2787 13.8526C18.6002 12.6211 19.5996 11.1158 20.2214 9.45264C20.81 7.80001 20.6989 5.97896 19.8883 4.40001C19.2442 3.15791 18.1005 2.23159 16.7235 1.82106C14.969 1.29475 13.059 1.61054 11.5931 2.68422C11.3044 2.89475 10.9047 2.89475 10.6159 2.68422C9.15013 1.62107 7.24014 1.30528 5.48561 1.83159C4.09753 2.23159 2.95376 3.15791 2.29858 4.40001C1.51016 5.97896 1.39911 7.77896 1.97655 9.43159C2.59841 11.0947 3.60893 12.5895 4.91927 13.8211C6.86258 15.6211 9.00577 17.2105 11.3044 18.5579C11.5931 18.7579 11.7264 19.1053 11.6265 19.4421C11.5265 19.779 11.2156 20 10.8602 20.0105C10.7048 20.0105 10.5493 19.9684 10.405 19.8842C8.00636 18.4842 5.77433 16.8316 3.75329 14.9579C2.26527 13.5579 1.1326 11.8421 0.455217 9.94738C-0.266583 7.89475 -0.111118 5.65264 0.866088 3.70528C1.71004 2.08422 3.19806 0.873697 4.99701 0.347381C7.05136 -0.294725 9.28339 -0.010514 11.1157 1.09475ZM15.3021 4.21054H15.4242C16.8901 4.66317 17.9228 5.90528 18.0671 7.37896V7.50528C18.0671 7.6737 18.0005 7.83159 17.9006 7.95791C17.7673 8.12633 17.5674 8.22107 17.3453 8.25264C16.9012 8.3158 16.4903 8.01054 16.4237 7.56843C16.3903 6.69475 15.7796 5.93685 14.9134 5.6737C14.5914 5.48422 14.447 5.09475 14.5692 4.74738C14.6913 4.40001 15.0356 4.16843 15.4131 4.20001H15.3021V4.21054Z" fill="#C5AA96"/>
</svg>
