<svg width="470" height="416" viewBox="0 0 470 416" fill="none" xmlns="http://www.w3.org/2000/svg">
<path d="M310.716 312.042C309.367 310.662 309.857 309.094 309.742 307.563C309.649 306.204 309.711 304.829 309.492 303.501C308.763 299.136 306.893 295.527 302.774 293.344C298.914 291.313 294.805 290.152 290.456 289.865C284.951 289.459 279.435 289.683 274.06 291.131C267.065 293.011 260.305 295.365 255.794 301.594C255.232 302.381 255.05 302.157 254.758 301.412C251.758 293.61 247.69 286.417 242.55 279.829C242.248 279.521 242.055 279.162 241.971 278.735C241.888 278.313 241.925 277.907 242.086 277.506C243.242 273.714 244.195 269.85 245.169 266.001C248.362 253.376 251.503 240.74 254.721 228.12C255.123 226.589 255.716 225.136 256.498 223.756C258.419 220.396 259.695 216.896 259.591 212.902C259.471 208.542 258.305 204.443 257.008 200.365C255.758 196.443 254.315 192.563 253.117 188.6C252.123 185.339 251.789 181.975 253.425 178.808C255.195 175.376 256.18 171.829 255.742 167.959C255.638 167.037 255.966 166.594 256.862 166.167C258.081 165.584 259.159 164.813 260.112 163.855C260.456 163.464 260.695 163.016 260.815 162.511C260.935 162.006 260.93 161.501 260.8 160.995C260.675 160.334 261.888 159.48 262.399 158.641C262.565 158.256 262.576 157.865 262.435 157.475C262.159 156.626 262.31 156.256 263.143 155.652C265.607 153.865 265.232 151.329 262.466 150.141C260.789 149.417 259.065 148.803 257.362 148.12C256.107 147.626 254.841 147.136 253.628 146.553C253.201 146.266 252.826 145.917 252.508 145.511C252.867 145.23 253.253 144.975 253.654 144.745C258.274 142.589 262.951 140.547 267.508 138.261C270.633 136.693 273.628 134.954 277.169 134.396C278.633 134.167 280.018 133.396 281.409 132.813C281.94 132.61 282.43 132.329 282.873 131.975C283.315 131.62 283.69 131.209 284.003 130.735C284.32 130.261 284.55 129.745 284.706 129.198C284.857 128.652 284.919 128.094 284.899 127.527C284.909 125.448 284.534 123.443 283.779 121.506C283.628 121.146 283.435 120.808 283.211 120.49C282.987 120.172 282.727 119.881 282.44 119.615C282.149 119.355 281.836 119.126 281.498 118.933C281.159 118.735 280.8 118.579 280.43 118.464C280.055 118.344 279.675 118.271 279.284 118.235C278.899 118.204 278.508 118.209 278.123 118.261C277.732 118.308 277.357 118.402 276.987 118.532C276.617 118.662 276.268 118.834 275.94 119.042C274.596 119.839 273.091 120.844 272.378 122.152C270.07 126.396 266.221 128.542 262.195 130.698C258.169 132.855 254.352 135.339 250.482 137.688C249.503 138.303 248.445 138.485 247.31 138.245C244.508 137.751 241.633 137.407 238.784 137.126C231.503 136.365 224.737 138.376 218.065 140.954C217.445 141.146 216.914 141.48 216.477 141.964C216.039 142.443 215.758 143.001 215.623 143.636C214.789 147.35 213.633 151.006 213.008 154.756C212.133 160.001 212.284 160.021 207.899 162.85C200.258 167.782 192.617 172.725 184.982 177.672C183.185 178.85 181.43 180.11 179.758 181.459C178.68 182.329 178.539 184.261 179.242 185.412C179.414 185.709 179.638 185.964 179.909 186.178C180.175 186.391 180.477 186.547 180.805 186.646C181.133 186.751 181.471 186.787 181.815 186.761C182.154 186.735 182.482 186.646 182.794 186.495C183.977 186.016 185.123 185.459 186.232 184.818C193.544 180.709 200.846 176.6 208.149 172.49C208.57 172.282 208.998 172.094 209.44 171.933C209.492 172.407 209.492 172.876 209.44 173.35C209.055 174.959 208.966 176.584 209.175 178.225C209.388 179.865 209.883 181.417 210.664 182.876C211.581 184.646 212.513 186.417 213.326 188.24C216.971 196.396 220.675 204.537 224.159 212.766C226.503 218.277 226.591 223.823 223.805 229.365C221.612 233.709 219.883 238.271 217.737 242.646C213.742 250.818 209.633 258.928 205.508 267.037C204.388 269.277 204.32 269.204 202.966 267.037C191.206 247.948 179.451 228.834 167.586 209.797C162.638 201.87 157.383 194.11 150.94 187.297C150.044 186.344 150.492 185.558 150.82 184.698C153.06 178.886 155.232 173.058 157.539 167.271C158.893 163.86 160.425 160.521 161.857 157.141C162.279 156.136 162.831 155.672 164.055 155.938C166.987 156.636 169.951 157.167 172.94 157.532C177.065 157.959 181.211 158.047 185.263 156.818C189.18 155.631 192.284 153.454 193.102 149.245C193.55 146.876 193.55 144.511 193.102 142.146C192.539 139.303 192.211 136.813 194.154 134.303C195.456 132.62 195.336 130.48 194.19 128.657C193.456 127.485 193.591 126.709 194.279 125.527C195.503 123.412 196.617 121.23 194.487 118.751C193.201 117.256 193.675 115.782 195.195 114.297C195.94 113.573 196.789 112.959 197.513 112.214C200.227 109.412 200.346 106.886 198.123 103.636C195.695 100.073 193.315 96.4849 190.998 92.8547C189.492 90.5266 189.539 90.4693 192.357 90.0578C194.899 89.6724 196.862 88.5214 197.914 86.0943C198.018 85.7297 198.065 85.3547 198.06 84.9745C197.711 84.9797 197.362 85.0162 197.013 85.0787C196.346 85.2662 195.659 85.5735 196.013 84.3599C196.013 84.3183 195.607 84.0474 195.492 84.1047C195.133 84.2662 194.852 84.6672 194.498 84.7401C193.461 85.0318 192.409 85.1568 191.336 85.1099C191.107 85.1099 190.982 83.5839 190.925 82.7558C190.873 81.8755 190.873 80.9953 190.925 80.1151C190.935 78.0005 191.513 76.0526 192.654 74.2662C198.357 65.3026 200.737 55.537 198.977 45.0735C197.367 35.5526 192.524 27.8443 184.18 22.5995C183.852 22.386 183.503 22.188 183.18 21.9641C183.081 21.8651 182.998 21.7505 182.93 21.6255C183.076 21.5839 183.253 21.4797 183.357 21.5214C183.862 21.7558 184.362 22.0058 184.841 22.2818C188.977 24.6776 192.435 27.8287 195.216 31.7193C200.779 39.4641 203.18 47.9276 201.117 57.4433C200.07 62.287 198.763 67.0058 196.128 71.2714C196.024 71.537 195.966 71.813 195.951 72.0995C196.216 71.9641 196.461 71.7974 196.68 71.5943C197.451 70.787 198.164 69.9276 198.82 69.0214C205.315 59.2245 206.581 48.8495 202.143 37.886C197.784 27.1099 189.826 19.9901 179.123 15.8808C173.94 13.886 168.487 13.0422 162.93 14.2037C162.024 14.3912 161.091 14.4641 160.169 14.5943C159.794 12.6776 158.893 11.0526 157.471 9.7193C154.873 7.04742 151.857 5.00055 148.419 3.56825C142.982 1.35471 137.331 0.188046 131.461 0.0682537C125.305 -0.129662 119.232 0.021379 113.227 1.63075C102.878 4.43284 93.5913 9.07346 85.7423 16.4589C85.2006 16.9172 84.6017 17.2766 83.9454 17.537C78.3308 20.0005 73.6746 23.6776 69.9819 28.5735C64.5704 35.6828 62.5392 43.813 63.2579 52.662C63.3308 53.6099 63.4506 54.5474 63.5444 55.4953C62.7475 55.0735 61.9298 54.7037 61.0913 54.3755C54.8308 52.2558 48.9871 53.386 44.1225 57.6308C37.2996 63.5735 34.1277 72.8235 37.961 82.6203C32.1121 84.0474 28.3985 87.7245 26.7631 93.4797C25.9142 96.6203 25.7735 99.7974 26.3413 103.001C27.2631 108.886 29.6017 114.063 34.6485 117.568C36.6485 118.922 38.2006 120.678 39.2944 122.834C42.6798 129.376 48.3465 133.079 55.4923 133.605C63.1433 134.167 69.7683 131.433 74.3881 124.896C74.5235 124.631 74.6225 124.355 74.685 124.063C74.3308 124.011 73.9819 124.011 73.6329 124.063C72.2475 124.428 70.8777 124.839 69.5079 125.251C59.9923 128.094 49.8204 124.198 46.9142 112.797C46.8621 112.516 46.8256 112.235 46.8048 111.954C47.0027 112.089 47.1902 112.235 47.3621 112.402C47.6746 112.761 47.961 113.152 48.2579 113.521C48.9923 114.433 49.7996 115.271 50.6746 116.047C51.5496 116.818 52.4871 117.516 53.4767 118.131C54.4663 118.751 55.5027 119.282 56.586 119.73C57.6642 120.172 58.7735 120.527 59.9142 120.787C61.0496 121.047 62.2058 121.214 63.3725 121.282C64.534 121.35 65.7006 121.318 66.8621 121.193C68.0235 121.068 69.1642 120.85 70.2892 120.532C71.4142 120.214 72.5079 119.808 73.5652 119.308C74.5965 118.834 74.7996 118.948 74.784 119.995C74.7267 124.292 76.4246 128.11 78.3465 131.761C79.2267 133.438 79.0444 134.558 78.0235 135.844C76.7371 137.365 75.5235 138.948 74.3985 140.594C72.5496 143.516 72.8985 146.678 75.1381 148.959C77.0808 150.938 79.6173 151.636 82.2423 151.995C82.5235 151.975 82.7944 151.907 83.0548 151.787C82.7788 151.641 82.4923 151.49 82.2371 151.36C80.9454 150.766 79.5079 150.37 78.3673 149.563C74.7996 147.053 74.5027 144.475 77.1902 141.084C78.4819 139.459 79.7527 137.829 81.0652 136.235C81.3308 136.12 81.586 136.136 81.8256 136.292C83.3465 137.579 84.7475 139.027 86.3465 140.214C88.3933 141.761 90.6433 142.917 93.0913 143.688C95.5444 144.459 98.0496 144.792 100.612 144.693L101.623 144.657C101.294 144.86 100.961 145.068 100.638 145.282C97.3048 147.443 93.7996 149.381 90.7006 151.839C88.1954 153.829 87.3413 156.792 88.2215 160.042C88.8673 162.396 90.534 163.745 92.6694 164.735C94.961 165.782 94.909 165.855 93.4871 167.922C93.1694 168.381 92.8308 168.829 92.5027 169.282C85.2215 179.209 77.8985 189.068 70.7683 199.084C61.5392 212.063 54.5288 226.063 51.5704 241.896C49.9506 250.235 49.4819 258.641 50.1642 267.11C50.6069 272.152 51.4038 277.193 52.2267 282.235C54.2267 294.136 56.909 305.881 60.2735 317.464C64.2058 331.209 68.3933 344.876 72.8413 358.464C77.5756 372.922 82.711 387.245 87.7579 401.599C88.6746 404.224 89.9975 406.704 91.1173 409.24C91.2215 409.469 91.5392 409.61 91.7579 409.803C91.8829 409.542 91.9715 409.266 92.0235 408.98C92.0079 408.662 91.9454 408.349 91.8413 408.047C90.3621 402.448 89.0392 396.844 87.3621 391.282C80.81 369.188 73.9923 347.24 67.6329 325.167C64.0444 312.777 60.9819 300.235 58.0808 287.667C56.4715 280.782 55.3517 273.818 54.7215 266.777C54.2215 261.006 54.5548 255.12 54.9767 249.323C55.5392 241.48 57.711 234.006 60.6277 226.73C65.5235 214.516 73.0235 203.891 80.7006 193.344C87.7475 183.652 94.56 173.787 101.388 163.933C102.029 163.001 102.248 162.85 103.065 163.568C106.008 166.157 109.055 168.61 111.93 171.282C126.216 184.433 138.878 199.063 150.899 214.256C163.3 229.943 175.534 245.756 187.8 261.527C191.185 265.881 194.544 270.256 197.878 274.646C199.32 276.563 199.211 276.594 197.94 278.537C192.43 286.964 186.935 295.402 181.461 303.85C180.815 304.844 180.201 305.855 179.565 306.855C178.945 305.771 178.248 304.725 177.706 303.6C167.404 281.995 156.529 260.698 142.831 240.985C135.461 230.381 127.362 220.407 117.346 212.157C107.008 203.641 95.5079 198.214 81.711 198.928C81.1954 198.959 80.685 199.068 80.1694 199.141L81.5392 199.808C81.6121 199.829 81.6902 199.839 81.7735 199.844C90.7319 201.204 98.8465 204.698 106.409 209.657C114.31 214.844 120.93 221.422 127.081 228.511C138.362 241.506 147.274 256.1 155.602 271.084C163.367 285.058 170.539 299.334 177.112 313.907C177.445 314.631 177.815 315.344 178.159 316.053C177.435 316.053 176.706 315.985 175.982 315.98C175.748 316.011 175.513 316.053 175.284 316.11C171.43 316.636 168.727 318.74 166.883 322.11C165.039 325.62 164.05 329.355 163.914 333.313C163.711 337.376 163.086 341.469 163.419 345.485C163.987 351.266 164.846 357.006 165.998 362.698C167.029 368.188 168.56 373.563 171.274 378.495C171.919 379.501 172.654 380.433 173.477 381.297C173.596 381.443 173.893 381.443 174.112 381.516C174.159 381.261 174.169 381.001 174.143 380.745C173.253 377.782 172.227 374.849 171.461 371.86C169.43 363.912 168.159 355.844 167.633 347.662C167.289 342.292 167.878 336.823 168.466 331.448C168.878 327.719 170.206 324.167 173.039 321.407C176.123 318.396 179.81 319.053 181.289 323.042C184.893 332.745 188.57 342.422 191.852 352.24C194.445 359.99 196.513 367.928 198.737 375.803C199.034 376.719 198.998 377.615 198.623 378.501C194.919 384.74 190.143 389.855 183.367 392.876C175.492 396.396 167.435 396.266 159.289 394.245C150.508 392.058 143.612 386.87 137.841 380.146C134.029 375.631 130.456 370.938 127.123 366.058C121.951 358.579 117.044 350.933 112.003 343.349C99.5392 324.615 87.586 305.532 74.2683 287.37C72.5913 285.131 70.9923 282.844 69.3517 280.589C69.1954 280.412 69.0235 280.245 68.836 280.1C68.836 280.355 68.8517 280.61 68.8881 280.865C68.9454 281.1 69.034 281.318 69.1485 281.527C74.1902 290.6 79.0027 299.823 84.3829 308.693C92.4663 322.016 100.836 335.162 109.326 348.235C115.685 358.021 122.294 367.646 129.018 377.172C133.3 383.37 138.591 388.532 144.888 392.657C154.055 398.558 164.081 401.063 174.971 399.823C178.888 399.422 182.633 398.376 186.195 396.693C189.753 395.006 192.935 392.777 195.732 390.001C199.123 386.563 201.982 382.73 204.305 378.495C204.654 377.896 205.096 377.376 205.498 376.818C205.607 377.558 205.659 378.308 205.664 379.058C205.487 382.318 205.169 385.579 205.05 388.844C204.888 393.391 204.826 397.954 204.794 402.511C204.763 406.672 204.826 410.829 204.873 414.985C204.873 415.23 205.086 415.474 205.195 415.724C205.383 415.506 205.701 415.303 205.758 415.063C206.425 409.521 207.32 404.001 207.628 398.433C208.055 390.688 208.123 382.917 208.185 375.152C208.185 372.797 208.794 370.605 210.008 368.589C212.623 364.105 215.154 359.568 217.675 355.027C224.232 343.23 230.779 331.428 237.32 319.615C238.029 318.339 238.815 317.105 239.56 315.85C240.451 317.152 241.284 318.501 242.253 319.771C243.128 320.891 242.935 321.719 241.992 322.683C239.242 325.485 236.638 328.407 233.826 331.131C229.654 335.183 226.399 339.724 225.612 345.631C225.003 350.11 224.341 354.662 224.175 359.193C223.831 368.198 221.82 376.839 219.294 385.422C217.055 393.053 215.039 400.745 212.945 408.391C212.831 408.99 212.763 409.599 212.742 410.209C213.149 409.766 213.518 409.297 213.862 408.803C214.123 408.313 214.346 407.803 214.529 407.277C216.612 402.188 218.732 397.12 220.763 392.011C220.919 391.485 221.206 391.042 221.617 390.683C222.029 390.323 222.503 390.099 223.039 390.011C224.742 389.558 226.367 388.907 227.909 388.053C232.508 385.657 236.19 382.084 239.779 378.422C241.852 376.313 243.888 374.162 245.94 372.042C247.07 370.818 248.414 369.912 249.977 369.329C251.539 368.74 253.149 368.537 254.805 368.714C261.732 369.417 268.248 367.829 274.732 365.714C276.758 365.058 278.425 363.891 279.732 362.204C284.57 356.146 289.445 350.11 294.248 344.021C299.862 336.907 304.675 329.287 308.68 321.157C309.591 319.12 310.3 317.011 310.815 314.839C311.018 313.928 311.201 312.537 310.716 312.042ZM255.445 138.021C259.091 135.594 262.768 133.219 266.435 130.829C266.57 130.745 266.81 130.563 266.82 130.579C267.503 131.469 268.221 132.339 268.82 133.292C269.107 133.745 269.628 134.266 268.576 134.761C264.617 136.62 260.737 138.605 256.815 140.542C256.612 140.641 256.388 140.73 255.966 140.907C255.612 140.318 255.315 139.704 255.076 139.063C255.013 138.652 255.138 138.303 255.445 138.021ZM207.768 168.183C205.82 169.422 203.8 170.521 201.81 171.678L201.029 172.146L200.617 171.902C200.763 171.714 200.93 171.547 201.117 171.402C203.206 170.1 205.294 168.803 207.409 167.542C208.336 166.98 209.32 166.537 210.279 166.032C209.498 166.813 208.659 167.532 207.768 168.183ZM175.899 20.2089C180.675 22.5318 184.992 25.5162 188.352 29.6933C191.93 34.0787 194.57 38.9537 195.482 44.5995C195.846 46.8755 195.873 49.2037 196.107 52.1724C195.867 54.2245 195.55 56.912 195.227 59.5995C195.169 59.9016 195.091 60.1985 194.992 60.4849C194.914 60.2193 194.862 59.9485 194.836 59.6672C194.982 55.2818 193.716 51.1516 192.284 47.1203C190.602 42.3964 188.596 37.7662 184.899 34.1412C184.43 33.6933 184.076 33.1672 183.836 32.563C182.102 27.8287 179.451 23.7714 175.373 20.7089C175.19 20.5735 175.123 20.2766 174.998 20.0578C175.305 20.0683 175.607 20.1203 175.899 20.2089ZM168.94 17.9641C175.732 22.6308 179.841 28.9433 180.888 37.2401C182.399 49.2453 180.591 60.5995 174.628 71.2037C174.123 72.1099 173.508 72.9589 173.024 73.8651C171.576 76.4901 168.998 77.0735 166.393 77.4797C165.159 77.6672 165.956 76.8235 166.133 76.4797C168.826 71.5683 170.925 66.4068 172.43 61.0058C174.633 52.6047 176.268 44.1047 175.992 35.3547C175.8 29.0787 174.143 23.4068 169.242 19.1099C168.461 18.4797 167.649 17.9016 166.8 17.3651C167.524 17.5474 168.362 17.563 168.94 17.9589V17.9641ZM160.357 16.761C160.654 16.9693 160.711 17.511 160.862 17.8808C160.529 19.4693 160.117 21.0318 159.623 22.5787C155.669 33.1255 151.68 43.6568 147.659 54.1724C146.951 56.0266 145.982 57.7974 145.154 59.5943C144.992 59.8651 144.805 60.1151 144.591 60.3495C144.55 60.0526 144.55 59.7505 144.591 59.4537C145.154 57.9589 145.836 56.5162 146.274 54.9745C149.013 45.8599 151.664 36.7193 154.414 27.5995C155.378 24.412 156.534 21.2766 157.617 18.1255C157.878 17.5214 159.862 16.4433 160.357 16.761ZM71.2631 69.6255C71.8204 67.886 72.3413 65.9589 73.0965 64.1412C75.5704 58.3599 78.8829 53.1203 83.0444 48.4068C93.034 36.7662 105.274 28.0943 119.029 21.5162C127.32 17.5526 136.029 15.2401 145.237 15.1255C147.544 15.1255 149.852 15.438 152.159 15.6151C152.399 15.6151 152.633 15.662 152.867 15.6933C152.623 15.8287 152.373 15.9537 152.112 16.0683C151.373 16.3547 150.638 16.6568 149.873 16.886C140.336 19.8495 131.909 24.912 123.914 30.813C115.013 37.4537 106.492 44.5474 98.3517 52.0995C98.2006 52.2662 98.06 52.438 97.9298 52.6255C98.211 52.5943 98.5548 52.6255 98.7527 52.5162C102.529 49.9901 106.378 47.563 110.018 44.8547C115.909 40.4693 121.612 35.8443 127.482 31.412C130.211 29.3547 133.133 27.5422 135.982 25.6412C136.31 25.5058 136.654 25.438 137.013 25.4328C136.81 25.6776 136.602 25.9172 136.378 26.1412C131.846 30.2974 127.357 34.4901 122.779 38.5891C118.794 42.1464 114.706 45.5891 110.669 49.0891C104.352 54.5578 97.2319 58.761 89.7423 62.4276C83.961 65.261 78.1433 68.0266 72.3465 70.8287C70.8204 71.5943 71.6329 70.2401 71.2631 69.6255ZM75.1381 71.3599C81.7058 68.7141 88.4298 66.3912 94.81 63.3495C104.018 58.9537 112.044 52.7037 119.508 45.7766C124.716 40.9328 129.732 35.886 135.008 31.1203C140.159 26.4641 145.451 21.938 151.998 19.2662C153.169 18.7922 154.383 18.3964 155.591 18.011C155.904 17.9589 156.221 17.9589 156.534 18.011C156.393 18.3287 156.206 18.6203 155.977 18.886C151.378 22.5943 147.94 27.287 144.669 32.1099C140.425 38.4016 136.274 44.7974 131.633 50.7662C124.998 59.2662 117.206 66.5578 107.346 71.3495C99.6485 75.0839 91.6329 77.3547 82.9715 77.2974C80.4506 77.0005 77.9298 76.8235 75.409 76.3651C73.9819 76.0943 72.0496 75.6933 72.0496 73.8912C72.0079 72.2662 73.8204 71.8912 75.1381 71.3599ZM78.0756 79.5526C81.9975 79.7453 85.9142 80.1672 89.7735 79.7974C94.7631 79.3026 99.5913 78.1516 104.268 76.3443C108.94 74.537 113.294 72.1412 117.315 69.1516C124.69 63.7662 130.925 57.2818 136.018 49.7037C141.06 42.3026 145.737 34.6828 150.581 27.1672C151.081 26.386 151.701 25.6828 152.258 24.9224C152.024 25.8287 151.831 26.7401 151.55 27.6255C148.05 38.5058 144.701 49.4745 140.951 60.2401C138.94 66.0318 136.326 71.6308 132.336 76.438C128.117 81.4797 122.742 84.7714 116.477 86.636C111.998 87.9641 107.471 88.7297 103.596 88.5474C97.6121 88.6933 91.7735 87.8235 86.086 85.9433C85.7319 85.8756 85.3829 85.8547 85.0235 85.8808C85.2423 86.1099 85.4767 86.3183 85.7267 86.5162C89.659 89.0995 93.9767 90.5526 98.6694 90.8808C101.44 91.1828 104.221 91.3339 107.008 91.3339C114.034 91.1776 120.768 89.7922 126.862 86.0318C131.998 82.8703 135.904 78.4745 139.482 73.7089C146.8 63.9589 151.487 52.9276 155.315 41.4745C155.445 41.0943 155.492 40.688 155.654 40.3547C155.815 40.0526 155.998 39.7662 156.211 39.4953C156.253 39.8078 156.253 40.1203 156.211 40.4328C155.305 43.8808 154.43 47.3391 153.414 50.761C150.513 60.7766 146.409 70.2505 140.456 78.8599C136.05 85.2453 130.763 90.7141 124.143 94.8339C117.524 98.9537 110.513 101.1 102.805 100.501C90.5392 99.5474 81.5756 93.3808 75.7267 82.6203C75.0392 81.3651 74.5079 80.0214 73.9038 78.6985C75.2735 79.0943 76.6642 79.3755 78.0756 79.5526ZM133.513 8.63075C132.315 8.54221 131.112 8.43805 129.914 8.46409C120.284 8.68805 111.232 11.3339 102.435 15.0735C96.3673 17.5891 90.6694 20.7662 85.3308 24.5995C84.1121 25.4953 82.9454 26.4641 81.7475 27.4016C81.5027 27.5891 81.2215 27.7401 80.961 27.912C81.06 27.6568 81.1902 27.412 81.3465 27.188C90.9923 16.2453 102.341 7.87034 116.935 5.21409C126.654 3.44846 136.477 3.43805 146.003 6.8495C150.435 8.51617 154.555 10.7558 158.362 13.5735C158.94 13.9485 159.534 14.287 160.154 14.5891C159.935 16.011 159.034 15.4589 158.221 15.2505C155.529 14.5474 152.867 13.6933 150.143 13.1776C144.482 12.0943 138.826 12.688 133.258 13.8808C118.779 16.9797 106.164 23.9641 94.5704 32.9276C86.1017 39.5162 78.6902 47.1099 73.5652 56.6151C71.8829 59.7349 70.836 63.2037 69.4819 66.5058C69.284 66.8964 69.0548 67.2714 68.7996 67.6255C68.7006 67.1985 68.5965 66.7714 68.5183 66.3339C67.5496 60.8235 67.8048 55.3703 69.2788 49.9693C71.1746 42.9537 75.2006 37.2766 80.5444 32.4953C89.7996 24.2037 100.628 18.761 112.201 14.6308C118.294 12.4589 124.617 11.2714 130.899 9.86513C131.748 9.67242 132.617 9.54742 133.466 9.35992C133.664 9.287 133.852 9.18805 134.029 9.06305C133.878 8.912 133.711 8.64638 133.534 8.63075H133.513ZM78.1902 24.0318C78.5444 23.7818 78.9142 23.563 79.31 23.3755C79.0808 23.6933 78.8673 24.0214 78.6173 24.3183C74.4506 29.1047 71.1017 34.4068 68.586 40.2349C67.034 43.9589 65.9715 47.8912 64.7006 51.7297C64.5756 52.0995 64.5079 52.4901 64.4142 52.8495L64.2788 51.9328C65.9975 41.0214 69.5392 31.2401 78.1902 24.0318ZM44.7527 64.162C47.1121 61.7453 49.7527 59.6828 52.9454 58.5578C55.2006 57.813 57.4975 57.2297 59.8308 56.7974C60.6381 56.6203 61.5131 56.886 62.3777 56.8808C63.4038 56.8808 63.7423 57.438 63.8413 58.3599C64.0808 60.4849 64.3621 62.6099 64.659 64.7349C64.7631 65.4433 64.9298 66.1464 65.0808 66.8495C63.961 65.7297 62.935 64.4849 61.6329 63.6672C56.4038 60.386 51.2163 61.136 46.1433 64.162C45.8725 64.3235 45.6485 64.5735 45.3777 64.7245C44.9923 64.9433 44.5808 65.1203 44.185 65.3235C44.3152 64.9068 44.5079 64.5214 44.7527 64.162ZM45.8413 67.6151C52.1173 62.9328 56.6746 63.0058 63.9767 67.0526C64.3517 67.261 64.8777 68.261 65.1642 67.0995C66.0392 68.7349 66.935 70.3651 67.7683 72.0214C67.8517 72.3912 67.8673 72.7662 67.7996 73.1412C67.4871 72.9589 67.2058 72.7297 66.9558 72.4641C65.3256 70.1099 62.8256 69.5474 60.2371 69.4433C55.3621 69.2193 50.7631 70.2349 46.4402 72.4849C44.7996 73.3443 43.5235 74.8912 42.0756 76.1203L41.3933 76.7245C41.2475 76.3964 41.1642 76.0578 41.1433 75.7037C41.3465 74.0891 41.8517 72.5839 42.6694 71.1776C43.4871 69.7766 44.5392 68.5891 45.8413 67.6151ZM51.1069 72.9745H51.1954C51.1173 73.1568 51.0913 73.412 50.9506 73.537C47.8048 75.8703 45.7683 79.0474 44.4454 82.7037C44.2892 82.9901 44.1017 83.2505 43.8881 83.4901C43.6173 83.2662 43.3829 83.0058 43.1902 82.7089C42.0392 80.2141 41.1798 79.7141 44.0027 76.8808C46.0183 74.9172 48.3933 73.6099 51.1277 72.9589L51.1069 72.9745ZM29.2944 95.2401C29.2735 94.7714 29.2996 94.3026 29.3777 93.8443C30.409 90.0318 32.2735 86.787 35.6694 84.5735C36.461 83.9797 37.2058 83.3443 37.909 82.6568C37.9298 82.7349 37.961 82.8078 38.0027 82.8808C38.7163 83.7193 39.4402 84.5578 40.1642 85.3964C39.2527 85.8078 38.3308 86.1881 37.4402 86.6412C35.8256 87.4589 34.3881 88.5162 33.1225 89.8078C31.8569 91.0995 30.836 92.5578 30.0496 94.1881C29.8308 94.5631 29.5808 94.912 29.2944 95.2401ZM39.1485 115.167C39.1329 115.396 39.0808 115.62 38.9871 115.839C38.9194 115.547 38.8673 115.277 38.784 114.964C37.3048 109.626 37.8465 104.391 39.6225 99.2245C40.2162 97.5006 40.8829 95.8026 41.4767 94.0787C41.5288 93.7662 41.5288 93.4589 41.4767 93.1464C41.2006 93.3547 40.8308 93.5006 40.6538 93.7714C36.336 100.49 34.435 107.698 36.3465 115.652C36.461 116.115 36.6225 116.568 36.7319 117.037C36.7371 117.193 36.7267 117.344 36.685 117.495C36.4819 117.495 36.2058 117.495 36.1225 117.391C35.4506 116.704 34.8569 115.959 34.3465 115.146C32.211 111.422 31.0913 107.417 30.9871 103.126C31.4506 97.7349 33.1798 92.3651 38.8673 89.1203C39.1329 88.9328 39.4142 88.787 39.7163 88.6724C40.4715 88.4745 41.2423 88.3391 42.0079 88.1828C42.0808 88.9433 42.1798 89.6985 42.2215 90.4537C42.4038 93.4537 42.586 96.4537 42.7163 99.4485C42.7475 100.292 42.8725 101.282 42.4975 101.948C40.1485 106.047 38.6069 110.323 39.1485 115.146V115.167ZM52.6225 126.047C55.2267 127.678 58.06 128.631 61.1173 128.917C61.461 128.98 61.7996 129.063 62.1329 129.162C61.8465 129.256 61.5756 129.334 61.2683 129.428C56.4923 130.928 48.0444 127.896 44.6538 122.37C41.2579 116.839 40.7683 110.886 42.2944 104.683C42.409 104.386 42.5548 104.11 42.7371 103.85C42.8725 104.152 43.0235 104.448 43.1381 104.761C43.8465 106.745 44.9402 108.636 44.6798 110.881C44.9663 117.157 47.1017 122.469 52.6225 126.047ZM80.284 125.198C79.6694 124.605 79.0913 123.985 78.5392 123.334C77.8621 122.448 77.3465 121.443 76.659 120.579C75.6225 119.271 75.0548 118.1 76.9715 117.058C77.2267 116.922 77.2735 116.412 77.4142 116.084C77.0548 116.178 76.7006 116.256 76.3465 116.37C69.3621 118.61 62.4402 119.172 55.7735 115.35C52.6433 113.558 50.2267 111.068 48.5288 107.881C48.3725 107.532 48.2527 107.167 48.1642 106.797C48.5183 107.027 48.8413 107.292 49.1329 107.594C50.0235 108.777 51.034 109.85 52.159 110.813C53.2788 111.777 54.4975 112.61 55.7996 113.308C57.1069 114.006 58.4715 114.558 59.8985 114.959C61.3204 115.36 62.7735 115.605 64.2527 115.693C67.4246 115.912 70.3777 115.214 73.1173 113.589C73.3517 113.396 73.5548 113.167 73.7215 112.907C73.4246 112.948 73.1277 112.964 72.836 113.027C64.0444 114.844 56.8777 111.969 51.2423 105.323C49.336 103.12 47.9454 100.631 47.0704 97.8495C46.2006 95.0683 45.9246 92.2297 46.2371 89.3339C46.5965 85.4953 47.5808 81.8339 49.2006 78.3339C51.1694 74.0266 54.4819 71.6724 59.185 71.2922C60.4923 71.188 61.81 71.1151 63.1017 71.1099C65.3413 71.1099 66.3204 72.1047 66.0652 74.2401C65.9142 75.1828 65.6642 76.1047 65.3256 76.9953C62.5288 85.2401 63.6746 93.1828 67.1485 100.928C67.9871 102.813 69.0704 104.589 70.0392 106.417C70.1433 106.631 70.2267 106.85 70.2996 107.073C70.086 107.131 69.8517 107.277 69.6642 107.219C63.7579 105.542 58.4663 102.907 55.1746 97.4172C52.0548 92.1933 51.6642 86.6308 53.5913 80.8808C53.7371 80.3026 53.8413 79.7141 53.8933 79.1203C53.4506 79.5683 53.06 80.0526 52.7215 80.5839C51.1225 83.7245 50.06 86.0058 50.1485 89.9276C50.3933 97.4328 54.1017 102.813 60.3985 106.626C63.3048 108.469 66.4767 109.334 69.9194 109.219C70.4767 109.178 71.0131 109.261 71.5288 109.475C72.0444 109.688 72.4871 110.006 72.8517 110.428C74.6173 112.261 76.5965 113.902 78.2996 115.792C80.0027 117.678 80.1381 120.141 80.435 122.516C80.4767 123.412 80.4246 124.308 80.284 125.198ZM81.7683 118.532C82.0444 118.626 82.3048 118.745 82.5548 118.891C86.5756 121.829 90.9871 123.954 95.7892 125.266C98.784 126.1 101.831 126.339 104.919 125.975C106.112 125.823 106.31 126.537 105.867 127.146C104.966 128.537 103.873 129.761 102.596 130.818C100.581 132.277 98.3256 132.928 95.8413 132.771C92.0913 132.631 88.6798 131.48 85.6017 129.329C85.0652 128.985 84.6277 128.542 84.2944 128.001C83.961 127.459 83.7683 126.87 83.711 126.235C83.409 123.912 82.5548 121.657 81.9402 119.37C81.8673 119.094 81.81 118.813 81.7423 118.532H81.7683ZM106.82 126.657C107.018 126.214 107.289 125.818 107.617 125.469C107.93 125.907 108.169 126.381 108.336 126.891C108.409 127.61 108.419 128.329 108.367 129.053C108.284 130.23 108.128 131.422 108.133 132.61C108.133 134.605 107.013 135.657 105.336 136.303C100.617 138.094 96.0235 137.928 91.5756 135.443C91.3621 135.266 91.1746 135.068 91.0183 134.839C91.3256 134.823 91.6381 134.834 91.9454 134.881C95.6902 135.818 99.1381 135.079 102.43 133.157C104.919 131.678 106.076 129.355 106.794 126.657H106.82ZM100.758 141.839C94.1538 141.178 88.5027 139.157 84.0183 134.553C83.3829 133.912 83.1694 132.834 82.8569 131.922C82.7788 131.693 83.0496 131.36 83.1538 131.047C83.3985 131.23 83.6225 131.433 83.8256 131.652C85.8777 134.355 88.4038 136.495 91.409 138.068C96.2527 140.558 101.154 140.527 106.185 138.928C106.529 138.844 106.878 138.782 107.227 138.74C107.133 139.162 107.159 139.704 106.909 140.001C106.544 140.428 106.091 140.714 105.55 140.86C103.831 141.287 102.123 141.573 100.737 141.839H100.758ZM96.1798 163.808C95.4402 164.886 95.0913 165.245 93.9402 164.11C92.2163 162.402 90.2683 160.954 90.4663 158.6C90.4246 157.714 90.5704 156.865 90.9142 156.047C91.2527 155.235 91.7579 154.532 92.4142 153.943C94.0965 152.376 95.9819 151.001 97.7423 149.501C99.2527 148.209 100.706 146.844 102.221 145.521C102.649 145.063 103.138 144.688 103.695 144.402C104.362 144.24 105.034 144.167 105.721 144.172C105.576 144.771 105.477 145.391 105.274 145.969C103.055 152.334 100.013 158.282 96.159 163.808H96.1798ZM142.794 196.98C142.091 196.251 141.352 195.553 140.685 194.803C135.05 188.459 129.284 182.271 122.93 176.626C117.018 171.365 110.794 166.511 104.248 162.063C103.32 161.428 103.216 160.995 103.794 159.985C106.596 155.032 108.367 149.657 109.826 144.172C110.029 143.24 110.487 142.454 111.195 141.813C114.685 139.256 116.315 135.803 116.492 131.579C116.539 130.641 116.612 130.292 117.68 130.891C119.763 132.063 120.784 131.839 122.294 130.251C123.492 128.995 123.596 127.657 122.591 125.896C122.456 125.704 122.294 125.527 122.117 125.37C122.07 125.646 121.919 125.933 121.992 126.188C122.357 127.396 122.216 128.396 121.018 129.042C119.82 129.688 118.716 129.235 117.742 128.412L114.346 125.521C113.544 124.844 113.461 124.344 114.555 123.844C115.919 123.198 117.211 122.412 118.518 121.657C118.68 121.568 118.727 121.277 118.836 121.1C118.628 121.058 118.419 121.058 118.211 121.1C115.409 122.355 112.471 122.933 109.399 122.834C108.123 122.834 106.846 123.652 105.544 123.771C100.102 124.282 95.0131 122.834 89.9819 120.902C81.06 117.48 75.5808 110.605 71.3256 102.521C69.5652 99.2141 68.0079 95.8183 66.6433 92.3339C65.0965 88.412 65.2319 84.2141 65.711 80.063C65.7579 79.7453 65.8465 79.438 65.9767 79.1464C66.086 78.9433 66.2215 78.761 66.3725 78.5891C66.4767 78.761 66.5496 78.9485 66.5965 79.1464C67.435 88.9693 72.336 96.5891 79.6642 102.771C84.7058 107.032 90.6069 109.381 97.211 110.235C102.227 110.844 107.227 110.704 112.201 109.803C112.591 109.766 112.987 109.766 113.383 109.803C113.07 110.131 112.727 110.417 112.346 110.657C103.055 114.954 93.7683 115.136 84.4558 110.683C80.7006 108.855 77.2371 106.589 74.06 103.881C73.6329 103.579 73.1798 103.318 72.7058 103.1C72.9506 103.657 73.0704 104.292 73.461 104.672C75.8413 107.011 78.211 109.381 80.7423 111.568C82.9819 113.501 85.3569 115.245 87.711 117.011C93.1225 121.063 99.1902 122.287 105.925 122.058C110.253 121.891 113.711 120.084 117.211 118.183C120.893 116.178 123.784 113.141 126.169 109.641C127.669 107.402 129.31 105.271 130.888 103.084C130.977 102.969 131.096 102.725 131.07 102.698C130.914 102.573 130.695 102.381 130.508 102.407C129.034 102.688 127.544 102.969 126.081 103.329C120.914 104.605 115.81 106.251 110.581 107.141C100.034 108.938 90.0652 107.433 81.4663 100.501C74.4298 94.8339 69.9194 87.6151 68.284 78.6516C68.1433 77.8808 68.4298 77.037 68.5131 76.2245C69.1694 76.636 69.7579 77.1255 70.284 77.6933C70.961 78.6672 71.534 79.7037 72.0027 80.8026C74.0548 85.6203 76.8985 89.9172 80.5392 93.6881C89.0131 102.292 99.2735 105.141 110.966 103.209C121.862 101.417 130.404 95.4693 137.503 87.2922C146.305 77.1464 151.956 65.2505 155.878 52.4537C158.211 44.938 159.925 37.2818 161.024 29.4849C161.508 25.9485 161.357 22.3183 161.357 18.7349C161.357 16.7662 161.57 16.4328 163.503 16.7245C164.586 16.886 165.664 17.1203 166.748 17.3235C167.19 18.0474 167.69 18.7297 168.253 19.3703C171.539 22.6047 172.732 26.688 172.805 31.136C172.992 38.188 172.305 45.1516 170.742 52.0266C168.315 62.2558 164.956 72.1308 158.524 80.6255C155.253 85.0422 151.346 88.7922 146.805 91.8756C142.612 94.6776 138.341 97.3026 133.539 98.9276C132.576 99.2558 131.55 99.4172 130.56 99.6568C130.279 99.7297 130.003 99.8339 129.727 99.9224C129.987 100.167 130.232 100.594 130.524 100.626C132.013 100.803 133.555 101.188 135.003 100.917C139.123 100.178 142.966 98.7089 146.534 96.5214C147.727 95.8026 148.586 95.6308 149.893 96.287C152.789 97.7922 155.862 98.7037 159.112 99.0266C162.357 99.3547 165.55 99.0631 168.685 98.162C171.487 97.3912 173.3 95.511 175.169 93.5787C175.633 93.1151 175.82 92.6881 174.977 92.3339C174.445 92.162 174.034 91.8391 173.737 91.3651C173.31 90.2453 172.695 90.7297 172.06 90.9693C170.268 91.6151 168.498 92.3599 166.664 92.8547C162.961 93.8651 159.237 93.511 155.539 92.6672L153.352 92.1516C153.909 91.6412 154.544 91.1568 155.096 90.6151C157.018 88.6985 158.987 86.8235 160.815 84.8183C162.044 83.4641 163.357 82.5005 165.242 82.3026C167.133 82.1047 169.008 81.688 170.888 81.3808C172.55 81.136 173.883 80.3287 174.878 78.9745C176.102 77.3599 175.794 76.6828 173.8 76.4172C173.529 76.386 173.237 76.3235 173.003 76.2766C173.117 76.0683 173.258 75.8808 173.425 75.7141C178.857 71.7922 181.477 66.1151 183.227 59.9589C184.748 54.4589 185.409 48.8547 185.216 43.1516C185.268 42.7453 185.373 42.3495 185.524 41.9641C185.774 42.2558 185.987 42.5735 186.164 42.912C188.284 48.2505 190.117 53.688 190.971 59.3912C191.346 61.912 191.534 64.4328 191.846 66.9849C191.987 68.2193 191.899 69.1724 190.628 70.0214C189.404 70.8183 188.378 71.813 187.539 73.0005C186.701 74.1933 186.112 75.5005 185.779 76.9172C185.727 77.386 185.732 77.8547 185.805 78.3235C186.237 78.1412 186.68 77.9797 187.091 77.7662C187.612 77.4953 188.112 77.2037 188.623 76.886C188.591 77.4433 188.581 78.0058 188.544 78.563C188.425 80.2453 188.289 81.9276 188.19 83.5683C188.112 84.8078 187.263 85.2505 186.253 85.188C185.242 85.1255 185.279 84.1828 185.133 83.3755C184.935 82.3026 185.836 81.0005 184.529 80.1516C184.399 81.2193 184.242 82.2974 184.154 83.3703C183.966 85.6151 184.789 87.6099 185.643 89.5891C188.096 95.2714 191.289 100.501 195.227 105.277C197.024 107.475 197.039 107.735 195.227 109.948C194.383 111.001 193.378 111.917 192.492 112.933C191.919 113.594 191.409 114.297 190.971 115.053C190.81 115.339 190.971 115.808 191.003 116.172C191.237 115.985 191.451 115.693 191.706 115.615C191.992 115.636 192.195 115.777 192.32 116.032C192.643 117.646 193.362 119.396 193.06 120.886C192.69 122.725 191.841 124.714 190.07 125.777C188.586 126.667 186.93 127.605 185.274 127.777C182.503 128.047 180.43 129.745 177.992 130.636C177.794 130.709 177.69 131.068 177.539 131.297C177.805 131.407 178.102 131.652 178.315 131.6C182.05 130.85 185.789 130.115 189.513 129.261C191.274 128.855 191.753 129.105 191.909 130.938C192.065 132.777 190.904 134.073 189.633 135.193C188.862 135.876 187.956 136.381 187.133 137.037C186.836 137.287 186.706 137.605 186.732 137.995C186.914 138.339 187.195 138.527 187.581 138.553C189.451 138.12 189.466 139.318 189.544 140.6C189.623 141.881 189.951 143.266 189.977 144.605C190.128 151.157 186.482 152.547 182.201 153.355C176.425 154.443 170.758 153.469 165.143 152.235C155.221 150.032 145.815 146.381 136.737 141.844C136.31 141.631 135.878 141.422 135.435 141.245C135.154 141.152 134.867 141.079 134.576 141.021C134.685 141.323 134.841 141.605 135.044 141.86C139.263 145.464 143.919 148.36 149.018 150.547C152.018 151.844 155.029 153.12 158.096 154.23C159.06 154.579 158.945 154.891 158.591 155.516C151.758 167.631 147.602 180.761 143.888 194.068C143.596 195.079 143.143 196.016 142.774 196.98H142.794ZM112.675 138.032C112.362 138.469 111.623 138.594 111.081 138.891C111.024 138.219 110.774 137.48 110.971 136.896C111.175 136.313 111.873 135.823 112.279 135.214C112.393 135.053 112.279 134.704 112.227 134.443C110.805 134.912 111.331 133.803 111.294 133.245C111.128 130.787 111.003 128.339 110.873 125.886C110.878 125.657 110.904 125.428 110.951 125.198C111.185 125.235 111.404 125.308 111.612 125.417C113.534 126.995 115.414 128.61 115.107 131.579C115.362 134.073 114.06 136.089 112.675 138.032ZM119.701 109.672C121.133 108.672 122.649 107.787 124.143 106.876C124.43 106.756 124.732 106.688 125.039 106.667C125.003 107.027 124.909 107.37 124.753 107.698C122.284 110.995 119.248 113.652 115.643 115.657C111.524 117.87 107.133 119.094 102.461 119.329C99.0235 119.001 95.6329 118.615 92.4767 117.131C92.2215 116.975 91.9923 116.787 91.784 116.568C92.0756 116.501 92.3673 116.459 92.6694 116.454C94.5704 116.6 96.4767 116.881 98.3777 116.922C106.357 117.084 113.32 114.162 119.701 109.672ZM193.451 261.422C187.404 253.49 181.471 245.48 175.346 237.61C167.102 227.032 158.721 216.553 150.383 206.042C149.19 204.542 147.867 203.141 146.721 201.605C146.315 201.037 146.169 200.412 146.284 199.725C147.05 196.808 147.961 193.917 148.826 191.016C148.982 190.631 149.169 190.256 149.388 189.896C149.659 190.297 149.852 190.547 150.018 190.813C155.617 199.563 161.258 208.271 166.763 217.073C175.899 231.693 184.987 246.339 194.024 261.016C194.43 261.672 194.737 262.391 195.091 263.079C194.508 262.563 193.961 262.011 193.451 261.422ZM301.518 313.084C301.888 312.672 302.32 312.308 302.675 311.886C304.81 309.381 306.805 306.818 306.701 303.266C306.737 302.964 306.81 302.672 306.914 302.391C306.987 302.693 307.086 302.995 307.128 303.303C307.19 303.698 307.216 304.094 307.237 304.256C307.034 308.422 304.565 310.98 301.899 313.448C301.82 313.521 301.659 313.495 301.534 313.516C301.513 313.37 301.461 313.162 301.503 313.084H301.518ZM263.581 301.777C271.982 295.183 281.596 293.37 291.904 295.219C294.143 295.615 296.221 297.131 298.362 298.152C298.555 298.245 298.68 298.495 298.836 298.678C298.56 298.678 298.227 298.709 298.018 298.573C293.846 295.855 289.133 295.006 284.326 295.214C276.373 295.532 269.044 297.87 262.904 303.214C262.643 303.402 262.362 303.542 262.06 303.646C262.482 302.959 262.987 302.339 263.565 301.777H263.581ZM280.857 314.844C279.716 315.501 278.508 315.975 277.227 316.277C275.951 316.579 274.654 316.688 273.341 316.61C272.034 316.532 270.758 316.271 269.524 315.823C268.289 315.376 267.143 314.761 266.091 313.975C264.003 312.365 263.477 310.053 265.003 307.896C265.909 306.678 266.998 305.641 268.263 304.797C273.456 301.204 279.373 300.277 285.93 300.355C289.081 300.266 292.534 300.537 295.56 302.725C297.492 304.12 297.888 305.214 296.992 307.417C295.154 311.964 291.055 313.35 286.841 314.553C286.607 314.626 286.388 314.6 286.18 314.464C284.248 312.448 282.487 313.865 280.857 314.844ZM284.461 316.891C283.643 319.266 282.784 321.636 281.867 323.975C281.706 324.376 281.07 324.902 280.748 324.844C280.221 324.652 279.836 324.303 279.591 323.797C279.393 323.287 279.279 322.761 279.237 322.219C279.69 319.527 280.857 317.365 283.221 315.975C283.508 315.803 284.091 315.662 284.237 315.808C284.492 316.136 284.565 316.495 284.461 316.896V316.891ZM263.352 332.209L263.149 332.162C263.242 331.777 263.367 331.407 263.513 331.042C264.258 331.204 264.987 331.402 265.711 331.641C265.529 332.032 265.357 332.433 265.149 332.823C265.07 332.959 264.982 333.089 264.873 333.209C264.315 333.938 263.721 334.672 263.138 335.396C263.201 334.573 263.268 333.719 263.326 332.922C263.388 332.688 263.352 332.448 263.352 332.209ZM263.456 321.912C263.091 321.777 262.748 321.589 262.43 321.355C262.763 321.355 263.107 321.355 263.435 321.428C265.93 321.792 268.419 322.157 270.899 322.547C271.378 322.683 271.831 322.87 272.268 323.11L270.8 323.428C268.393 322.928 265.925 322.443 263.456 321.912ZM292.576 322.277C292.753 320.922 293.216 319.678 293.977 318.542C294.732 317.407 295.706 316.501 296.888 315.818C297.883 315.204 298.956 315.787 298.565 316.709C297.445 319.386 296.086 321.959 294.758 324.553C294.675 324.719 294.039 324.771 293.758 324.641C293.529 324.558 293.326 324.428 293.143 324.266C292.961 324.1 292.815 323.907 292.706 323.688C292.602 323.469 292.534 323.24 292.513 322.995C292.492 322.751 292.513 322.511 292.581 322.277H292.576ZM261.841 303.85C261.669 304.355 261.456 304.85 261.201 305.318C259.524 308.053 258.774 310.823 260.643 313.782C260.753 314.047 260.81 314.323 260.815 314.61C260.581 314.448 260.373 314.261 260.19 314.047C258.029 310.922 258.706 306.834 261.846 303.85H261.841ZM242.513 288.365C242.612 288.563 242.675 288.777 242.706 289.001C242.477 288.922 242.175 288.907 242.034 288.751C239.925 286.282 237.195 284.62 234.492 282.938C234.143 282.777 233.784 282.662 233.404 282.594C233.451 283.032 233.326 283.6 233.555 283.876C235.039 285.735 236.617 287.511 238.289 289.198C241.498 292.355 244.112 295.943 246.128 299.964C246.248 300.313 246.32 300.678 246.341 301.047C246.044 300.797 245.732 300.579 245.451 300.318C243.82 298.782 242.201 297.235 240.565 295.714C240.32 295.527 240.06 295.365 239.779 295.235C239.727 295.579 239.727 295.922 239.779 296.261C240.221 297.865 240.779 299.433 241.456 300.948C243.461 304.87 245.654 308.652 247.701 312.532C248.352 313.761 248.784 315.115 249.31 316.407C248.555 315.365 247.701 314.376 247.07 313.277C243.43 307.188 239.654 301.167 236.294 294.928C233.945 290.454 232.451 285.714 231.815 280.698C231.748 280.225 231.758 279.74 231.737 279.261H231.768V278.303C231.768 277.329 232.091 276.365 233.185 276.511C234.039 276.626 234.82 277.303 235.623 277.751C235.669 277.751 235.623 277.969 235.623 278.084L235.195 277.933L232.857 277.152C232.758 278.094 232.706 279.042 232.711 279.985C232.711 280.261 233.274 280.756 233.518 280.725C235.888 280.454 237.503 281.725 238.862 283.36C240.216 284.995 241.305 286.683 242.518 288.365H242.513ZM251.289 176.402C250.258 178.839 249.305 181.251 249.373 183.948C249.336 184.214 249.258 184.469 249.149 184.714C248.919 184.511 248.737 184.282 248.586 184.016C246.388 178.36 245.737 180.558 248.518 174.834C249.206 173.417 249.544 171.839 250.123 170.35C250.419 169.594 250.419 168.672 251.524 168.329C253.253 167.771 253.388 167.771 253.539 169.657C252.794 171.922 252.185 174.23 251.289 176.402ZM246.81 143.35C247.18 143.047 247.586 142.818 248.034 142.652C248.425 142.527 249.117 142.433 249.253 142.62C249.55 143.079 249.659 143.579 249.576 144.115C249.539 144.339 248.852 144.454 248.841 144.454C247.925 144.376 247.451 144.339 246.977 144.287C246.669 144.251 246.362 144.188 246.055 144.141C246.284 143.855 246.539 143.594 246.815 143.36L246.81 143.35ZM210.873 267.225C217.076 255.87 222.518 244.152 227.623 232.261C229.425 228.042 231.06 223.725 230.216 219.079C229.534 215.256 228.524 211.521 227.185 207.876C223.826 198.975 219.716 190.433 214.867 182.251C213.904 180.688 213.284 178.995 213.018 177.183C212.748 175.365 212.852 173.568 213.32 171.792C215.149 163.813 216.721 155.777 218.19 147.704C218.669 145.105 219.779 143.615 222.383 143.006C225.623 142.256 228.779 141.136 232.029 140.396C233.779 139.995 235.643 140.037 237.461 139.886V140.079C240.164 140.198 242.873 140.329 245.581 140.459C245.8 140.485 246.013 140.537 246.221 140.61C246.123 140.803 246.065 141.058 245.904 141.172C243.945 142.516 242.107 144.037 239.393 143.412C237.581 143.105 235.758 142.917 233.919 142.85C230.175 142.527 227.352 144.1 225.591 147.334C223.518 151.11 221.544 154.938 219.737 158.839C218.336 161.87 217.242 165.037 216.05 168.157C215.998 168.521 216.018 168.876 216.117 169.23C216.409 169.016 216.664 168.771 216.893 168.485C220.086 163.136 223.279 157.782 226.456 152.422C227.44 150.777 228.445 149.146 229.487 147.542C229.841 146.938 230.336 146.475 230.956 146.162C231.581 145.844 232.242 145.719 232.94 145.787C239.518 146.271 246.143 146.24 252.336 149.292C255.138 150.672 258.383 151.131 261.414 152.047C261.899 152.251 262.352 152.501 262.774 152.808C262.3 153.157 261.81 153.808 261.336 153.803C260.315 153.704 259.32 153.501 258.341 153.198C254.94 152.381 251.586 151.141 248.143 150.844C244.227 150.495 240.175 150.896 236.201 151.183C235.143 151.334 234.326 151.86 233.748 152.761C230.388 159.36 227.138 166.037 223.893 172.709C223.8 172.902 223.961 173.219 224.003 173.485C224.279 173.36 224.524 173.198 224.742 172.99C226.237 170.912 227.815 168.891 229.154 166.714C231.393 163.11 233.451 159.433 235.539 155.73C236.138 154.672 236.883 153.959 238.149 153.954C241.8 153.954 245.487 153.579 249.096 153.954C252.456 154.318 255.716 155.485 259.024 156.251C259.779 156.422 260.346 156.751 259.94 157.485C259.544 157.938 259.044 158.126 258.445 158.042C255.586 157.183 252.675 156.928 249.711 157.277C247.44 157.553 245.195 157.975 242.977 158.542C241.951 158.792 241.138 159.35 240.544 160.225C237.685 165.469 234.971 170.792 232.237 176.105C232.164 176.381 232.143 176.657 232.18 176.938C232.456 176.823 232.831 176.782 232.977 176.584C235.242 173.396 237.862 170.381 239.623 166.928C241.638 162.964 244.102 160.36 248.8 160.381C250.477 160.381 252.159 159.756 253.784 159.912C255.258 160.141 256.638 160.636 257.919 161.407C258.951 161.964 258.701 162.678 257.633 163.042C255.232 163.86 252.836 164.719 250.404 165.443C249.742 165.6 249.154 165.907 248.649 166.365C248.143 166.823 247.784 167.376 247.56 168.021C246.768 170.198 245.867 172.323 244.857 174.407C243.081 178.047 243.8 181.563 245.305 185.001C247.159 189.245 249.253 193.407 251.05 197.646C252.586 201.131 253.899 204.704 254.987 208.35C256.18 212.6 256.107 216.943 253.55 220.787C250.748 225.016 249.685 229.823 248.565 234.61C246.654 242.787 244.826 250.99 243.065 259.209C242.07 263.86 241.258 268.553 240.362 273.214C240.305 273.527 240.305 273.855 240.242 274.167C239.81 276.266 239.836 276.23 238.123 274.865C237.253 274.167 236.32 273.568 235.32 273.073C231.096 271.037 226.883 273.277 225.909 277.896C225.346 280.412 225.789 282.797 226.336 285.225C226.383 285.615 226.383 286.006 226.336 286.396C226.024 286.193 225.732 285.964 225.471 285.704C223.565 283.459 221.789 281.063 219.784 278.902C217.117 276.032 214.32 273.297 211.513 270.568C209.94 269.068 209.836 269.126 210.873 267.225ZM235.206 313.823C224.529 332.912 213.857 352.006 203.195 371.094C202.638 372.136 202.018 373.172 201.404 374.198C201.31 374.36 201.065 374.443 200.883 374.558C200.758 374.386 200.659 374.198 200.591 374.001C197.513 356.027 191.779 338.813 185.633 321.719C184.638 318.948 183.471 316.24 182.274 313.542C182.003 313.058 181.893 312.532 181.94 311.98C181.982 311.422 182.175 310.928 182.518 310.485C190.659 297.964 198.711 285.391 206.8 272.839C207.117 272.339 207.461 271.855 207.82 271.318C208.159 271.704 208.383 271.933 208.576 272.178C212.227 276.516 216.117 280.678 219.482 285.225C224.852 292.475 229.919 299.943 235.029 307.376C237.18 310.48 237.07 310.532 235.206 313.823ZM229.643 289.688C229.18 288.183 228.779 286.646 228.419 285.115C228.409 284.74 228.471 284.376 228.607 284.027C228.695 284.318 228.8 284.615 228.878 284.912C232.237 297.652 238.586 308.891 246.378 319.381C247.091 320.334 247.977 321.162 248.779 322.053L249.388 322.714C249.055 322.714 248.826 322.787 248.706 322.714C248.315 322.438 247.956 322.12 247.633 321.761C246.081 319.943 244.367 318.23 243.05 316.251C237.492 307.943 232.586 299.308 229.643 289.688ZM303.857 323.985C301.466 327.86 299.258 331.876 296.581 335.521C291.159 342.839 285.461 349.948 279.883 357.146C279.44 357.709 279.039 358.318 278.607 358.886C277.201 360.693 275.591 362.053 273.185 362.501C269.529 363.188 265.951 364.287 262.289 364.948C260.112 365.344 257.841 365.224 255.612 365.344V365.079C253.373 365.209 251.133 365.136 248.966 365.506C245.841 366.032 243.586 368.198 241.367 370.271C238.451 373.006 235.768 376.001 232.716 378.573C230.112 380.777 227.159 382.563 224.32 384.506C224.044 384.636 223.758 384.709 223.461 384.73C223.451 384.443 223.471 384.152 223.513 383.865C224.633 378.751 225.779 373.641 226.951 368.537C227.091 367.865 227.289 367.209 227.539 366.568C227.32 364.594 227.346 362.626 227.617 360.662C227.055 360.74 226.977 360.474 227.055 359.886C227.498 355.198 227.925 350.501 228.409 345.818C228.555 343.896 229.081 342.079 229.987 340.381C230.899 338.678 232.112 337.23 233.628 336.042C237.399 332.985 240.68 329.318 244.07 325.818C245.018 324.85 245.508 324.803 246.373 325.86C247.31 326.943 248.331 327.943 249.445 328.85C250.201 329.495 250.346 330.037 249.701 330.844C248.753 332.027 247.961 333.344 246.94 334.459C244.888 336.698 243.909 339.501 242.919 342.303C242.867 342.605 242.867 342.912 242.919 343.214C243.175 343.11 243.518 343.068 243.68 342.876C246.362 339.808 249.013 336.714 251.685 333.636C253.221 331.865 253.362 329.902 253.143 327.605C252.669 322.37 252.586 317.089 252.31 311.829C252.284 311.589 252.305 311.35 252.367 311.115C252.498 310.771 252.649 310.433 252.815 310.105C253.154 310.37 253.654 310.558 253.805 310.902C255.919 315.709 258.013 320.527 260.034 325.376C260.373 326.365 260.576 327.376 260.649 328.417C261.065 331.61 260.086 334.579 258.841 337.412C256.659 342.365 254.414 347.287 252.195 352.224C252.05 352.506 251.919 352.797 251.815 353.094C251.721 353.537 251.649 353.98 251.596 354.422L252.487 353.344C253.737 351.792 254.878 350.131 256.253 348.693C262.232 342.417 267.675 335.751 272.102 328.266C273.727 325.527 275.669 322.98 277.498 320.355C277.649 320.131 277.992 320.047 278.253 319.902C278.253 320.126 278.305 320.35 278.305 320.573C278.305 321.537 278.242 322.495 278.305 323.454C278.357 324.573 278.753 325.662 279.982 325.782C281.513 325.933 280.893 326.532 280.513 327.24C278.128 331.672 275.701 336.084 273.393 340.547C271.232 344.725 269.19 348.948 267.133 353.204C267.029 353.615 266.998 354.037 267.05 354.459C267.357 354.224 267.643 353.959 267.899 353.667C272.774 346.74 277.617 339.792 282.498 332.86C285.211 329.006 287.966 325.183 290.716 321.35C290.909 321.131 291.123 320.948 291.367 320.787C291.477 321.053 291.56 321.318 291.607 321.6C291.685 323.188 291.451 324.907 293.628 325.412C293.8 325.823 293.815 326.245 293.669 326.672C292.102 329.719 290.492 332.751 288.846 335.761C285.94 341.089 282.977 346.407 280.123 351.735C279.623 352.886 279.221 354.073 278.919 355.292L281.159 352.563C286.982 345.589 291.32 337.667 295.581 329.704C297.456 326.183 299.284 322.631 301.154 319.11C301.399 318.719 301.675 318.36 301.982 318.021C302.117 318.417 302.263 318.808 302.373 319.209C302.695 320.329 302.617 321.553 303.987 322.198C304.977 322.646 304.19 323.454 303.857 323.985ZM307.951 316.438C307.221 317.928 306.409 319.376 305.503 320.771C304.873 321.777 304.383 321.725 303.878 320.631C303.576 319.86 303.315 319.073 303.102 318.271C303.315 317.709 303.581 317.172 303.899 316.662C304.393 315.933 304.982 315.297 305.669 314.751C306.576 314.089 307.44 312.829 308.69 313.568C308.935 313.725 308.383 315.516 307.951 316.438Z" fill="#C5AA96"/>
<path d="M281.607 153.386C282.133 153.865 282.643 154.36 283.185 154.818C285.789 157.058 285.8 159.938 282.982 161.818C281.794 162.61 281.763 163.027 282.477 164.162C283.977 166.568 286.263 167.724 288.747 168.719C290.586 169.459 292.419 170.256 294.211 171.11C294.612 171.297 294.841 171.839 295.154 172.23C294.747 172.391 294.326 172.485 293.893 172.511C291.654 172.24 289.456 172.001 287.279 171.547C286.206 171.323 285.43 171.282 284.883 172.36C284.331 173.433 284.117 174.599 284.841 175.751C285.039 176.011 285.274 176.224 285.555 176.391C288.878 178.631 289.388 181.792 288.628 185.485C288.274 187.11 288.169 188.745 288.32 190.402C288.732 194.381 291.721 195.922 295.112 196.167C301.659 196.636 307.956 195.146 314.258 193.678C317.977 192.818 321.701 192.001 325.425 191.157C325.794 191.12 326.169 191.12 326.544 191.157C326.404 191.511 326.216 191.834 325.982 192.126C325.445 192.568 324.883 192.98 324.305 193.36C324.919 193.714 325.539 194.047 326.143 194.422C329.044 196.214 330.867 198.907 332.305 201.881C336.185 209.876 338.586 218.349 340.143 227.042C341.331 233.599 342.227 240.224 342.857 246.855C343.096 249.323 342.3 251.896 341.841 254.407C340.8 260.162 338.482 265.485 336.383 270.907C331.232 284.391 326.175 297.902 321.065 311.407C320.643 312.61 320.159 313.792 319.617 314.943C319.013 316.157 319.143 316.928 320.383 317.672C323.185 319.355 325.925 321.157 328.649 322.98C331.367 324.797 334.164 326.782 336.888 328.735C337.529 329.214 338.107 329.761 338.622 330.381C338.831 330.73 338.987 331.105 339.081 331.501C339.289 331.073 339.461 330.631 339.607 330.178C340.617 326.099 341.544 322.001 342.622 317.943C343.117 316.11 343.888 314.349 344.56 312.568C344.659 312.365 344.826 312.245 345.05 312.209C345.263 312.292 345.393 312.448 345.435 312.678C345.534 313.954 345.534 315.235 345.435 316.516C344.471 323.688 343.518 330.87 342.404 338.027C341.466 344.068 340.409 350.094 339.237 356.099C337.326 365.917 335.346 375.724 333.3 385.516C332.659 388.615 331.805 391.678 331.013 394.745C330.846 395.084 330.638 395.386 330.372 395.657C330.258 395.323 330.19 394.98 330.164 394.631C330.497 390.016 330.727 385.391 331.242 380.797C331.685 376.693 332.393 372.615 332.992 368.527C333.555 364.912 334.024 361.292 334.612 357.683C335.31 353.37 336.076 349.063 336.852 344.761C337.409 341.558 337.971 338.349 338.607 335.167C338.899 333.745 338.68 332.98 337.258 332.152C332.096 329.136 327.081 325.876 322.013 322.704C320.966 322.12 319.966 321.469 319.018 320.745C317.966 319.855 317.477 320.099 316.883 321.235C315.034 324.777 313.143 328.297 311.159 331.761C307.518 338.152 303.737 344.454 300.149 350.865C297.815 355.016 296.143 359.501 296.654 364.313C297.19 369.292 298.727 373.938 301.263 378.256C304.029 383.011 307.096 387.594 309.945 392.308C312.497 396.521 314.987 400.787 317.404 405.094C318.524 407.136 318.331 409.433 318.122 411.667C318.122 411.964 317.727 412.303 317.43 412.475C317.336 412.537 316.872 412.198 316.737 411.959C309.862 401.079 302.841 390.313 296.258 379.271C294.68 376.558 293.524 373.678 292.784 370.626C292.05 367.573 291.768 364.48 291.945 361.344C292.164 357.386 293.247 353.678 295.19 350.224C298.675 343.849 302.242 337.521 305.945 331.277C312.409 320.376 317.274 308.787 321.534 296.876C325.649 285.402 330.154 274.053 334.628 262.704C337.112 256.402 339.076 250.032 338.237 243.188C337.622 238.146 336.841 233.105 335.862 228.115C334.331 219.886 331.961 211.902 328.742 204.172C328.065 202.547 327.247 200.995 326.284 199.521C324.149 196.339 321.362 195.563 317.612 196.448C311.508 197.881 305.383 199.277 299.211 200.37C295.951 200.87 292.841 200.396 289.878 198.954C285.435 196.902 284.195 192.631 284.602 187.87C284.638 187.48 284.815 187.105 284.888 186.709C285.477 183.631 286.008 180.834 282.732 178.454C280.305 176.693 280.425 174.172 282.107 171.334C282.721 170.292 282.857 169.652 281.831 168.782C281.143 168.099 280.596 167.318 280.19 166.443C278.477 163.323 278.664 162.62 281.581 160.667C283.82 159.178 283.753 158.001 281.388 156.672C280.138 155.969 278.826 155.391 277.57 154.698C275.779 153.719 274.253 152.459 273.425 150.521C272.727 148.896 272.622 147.329 273.987 145.87C276.326 143.355 278.581 140.761 280.888 138.219C285.664 132.948 287.716 126.704 287.945 119.657C288.294 109.105 290.367 98.9276 295.633 89.6307C295.992 89.0578 296.185 88.438 296.206 87.7662C296.232 87.0891 296.081 86.4589 295.763 85.8651C294.102 82.1203 293.044 78.2089 292.581 74.1412C291.8 67.1047 294.768 62.8755 301.05 60.7505C306.721 58.8339 312.529 58.2766 318.461 59.0682C319.274 59.0995 320.003 58.8755 320.659 58.3912C327.32 53.7401 334.721 53.7557 342.221 55.1776C343.899 55.4901 345.221 55.6412 346.701 54.9589C352.117 52.4849 357.867 52.037 363.732 51.9849C371.399 51.8807 378.774 53.2974 385.857 56.2297C399.294 61.7662 408.956 71.3547 415.581 84.162C416.055 85.0787 416.539 86.0057 416.935 86.9641C417.383 88.0266 417.695 87.7401 418.143 86.9641C419.617 84.3287 421.638 82.2141 424.195 80.6151C425.836 79.5995 426.221 79.6255 427.237 81.2714C428.706 83.7193 429.44 86.3651 429.435 89.2193C429.466 92.0839 429.081 94.9484 428.872 97.8078C428.872 98.1724 428.872 98.537 428.872 98.9276C429.18 98.8443 429.477 98.7193 429.758 98.563C433.8 95.6099 438.471 94.8026 443.31 94.6464C447.503 94.5109 447.138 94.8391 446.622 98.563C445.961 103.297 443.409 107.204 440.044 110.532C439.216 111.349 439.279 111.594 440.336 111.985C449.409 115.303 454.336 122.146 456.388 131.282C457.774 137.381 456.586 143.172 453.815 148.652C453.524 149.115 453.367 149.62 453.341 150.167C453.32 150.714 453.43 151.23 453.68 151.719C456.388 157.547 456.596 163.349 453.497 169.141C453.06 170.084 452.815 171.079 452.763 172.115C452.284 177.214 449.544 180.865 445.409 183.579C444.867 183.86 444.451 184.271 444.164 184.808C443.878 185.344 443.768 185.917 443.836 186.527C443.883 190.407 441.596 192.855 438.18 194.37C437.263 194.766 436.57 195.042 436.643 196.349C437.102 204.86 431.086 209.287 424.591 210.589C422.977 210.912 421.232 210.672 419.612 210.928C418.654 211.079 417.763 211.693 416.857 212.115C414.784 213.089 412.82 214.516 410.638 214.99C403.513 216.553 397.06 214.954 391.602 209.98C391.367 209.766 391.175 209.495 390.93 209.292C390.758 209.172 390.57 209.079 390.372 209.006C390.372 209.23 390.399 209.448 390.445 209.667C391.425 212.766 392.331 215.886 393.409 218.954C397.388 230.183 402.841 240.74 408.372 251.261C415.024 263.896 421.175 276.756 424.909 290.62C427.008 298.105 428.565 305.698 429.57 313.407C430.133 318.224 430.841 323.032 431.253 327.865C431.544 331.277 431.419 334.724 431.539 338.157C431.612 340.136 431.987 342.12 431.904 344.094C431.716 348.537 431.44 352.99 431.003 357.417C430.315 364.235 429.675 371.063 428.628 377.823C427.393 385.751 425.758 393.62 424.274 401.511C423.997 402.99 423.628 404.448 423.237 405.896C423.154 406.209 422.805 406.459 422.581 406.73C422.451 406.391 422.367 406.037 422.336 405.672C422.529 402.011 422.649 398.334 422.987 394.683C423.675 387.297 424.518 379.928 425.263 372.547C425.716 368.032 426.07 363.511 426.555 359.001C426.664 357.995 426.274 357.558 425.466 357.167C420.497 354.803 415.534 352.422 410.586 350.027C409.617 349.563 409.466 349.87 409.305 350.813C408.419 356.152 407.539 361.49 406.503 366.792C405.279 373.021 404.013 379.256 402.539 385.428C401.419 390.131 399.94 394.756 398.617 399.407C398.419 399.881 398.175 400.334 397.872 400.756C397.727 400.282 397.649 399.797 397.633 399.303C398.034 395.501 398.362 391.678 398.945 387.902C400.112 380.271 401.258 372.631 402.732 365.058C404.294 357.053 406.206 349.115 408.034 341.157C408.388 339.938 408.846 338.751 409.404 337.605C409.477 337.417 409.695 337.287 409.852 337.136C409.997 337.365 410.279 337.594 410.274 337.823C410.206 339.969 410.19 342.131 409.945 344.261C409.774 345.735 410.024 346.537 411.56 347.126C416.102 348.87 420.56 350.839 425.055 352.693C427.112 353.537 427.159 353.511 427.154 351.381C427.154 345.376 427.44 339.349 427.018 333.376C425.831 316.605 423.341 300.037 417.747 284.079C413.768 272.74 408.461 262.006 402.831 251.417C397.122 240.693 391.68 229.834 388.195 218.146C386.477 212.365 385.076 206.49 383.44 200.683C383.169 199.771 382.675 199.011 381.951 198.396C373.951 191.938 369.815 183.579 369.534 173.323C369.492 171.641 369.596 169.959 369.466 168.318C369.378 167.631 369.081 167.042 368.576 166.563C367.294 165.365 365.862 164.323 364.565 163.162C363.919 162.605 363.503 162.527 363.102 163.334C363.07 163.407 363.024 163.469 362.966 163.527C361.008 165.433 360.227 167.308 361.669 170.152C362.659 172.099 362.602 174.631 362.789 176.912C362.826 178.188 363.159 179.386 363.789 180.495C366.133 184.417 368.503 188.303 370.508 192.37C371.742 194.844 372.622 197.443 373.133 200.162C373.914 204.37 372.357 208.167 370.044 211.646C369.867 211.907 369.487 212.021 369.164 212.204C369.242 211.844 369.31 211.48 369.414 211.126C369.971 209.214 370.534 207.323 371.06 205.402C371.425 204.032 371.544 202.641 371.409 201.23C371.279 199.818 370.904 198.474 370.289 197.198C368.128 192.766 365.539 188.537 363.112 184.235C362.977 183.995 362.675 183.844 362.451 183.672C362.419 183.829 362.378 183.985 362.331 184.136L359.487 191.974C359.138 192.954 358.789 193.928 358.43 194.896C357.409 197.698 357.544 200.365 359.466 202.792C359.612 203.053 359.716 203.323 359.779 203.61C359.503 203.501 359.242 203.365 358.992 203.204C356.112 200.964 355.669 197.881 356.19 194.558C356.419 193.073 356.966 191.641 357.31 190.172C358.018 187.313 358.69 184.459 359.372 181.594C359.701 180.219 359.159 179.178 358.253 178.136C355.664 175.089 353.024 172.084 350.68 168.855C349.154 166.751 348.117 164.292 346.846 161.995C346.68 161.73 346.492 161.485 346.284 161.251C346.149 161.558 346.05 161.876 345.982 162.209C345.518 168.974 344.862 175.74 344.706 182.516C344.628 186.214 345.425 189.933 345.826 193.641C345.888 194.251 345.826 194.876 345.862 195.49C345.513 194.974 345.206 194.443 344.935 193.886C343.065 189.318 342.154 184.568 342.206 179.631C342.232 173.099 342.763 166.563 343.07 160.021C343.247 156.422 343.383 152.829 343.581 149.235C343.622 147.881 343.763 146.537 344.008 145.204C344.268 143.938 343.831 143.36 342.695 142.876C337.393 140.589 332.242 137.948 327.883 134.152C323.362 130.23 318.831 126.235 314.872 121.777C310.914 117.318 306.211 116.172 300.69 116.652C299.503 116.751 298.305 116.808 297.117 116.787C295.31 116.787 294.185 115.73 293.497 114.141C292.867 112.672 293.336 111.74 294.919 111.709C299.305 111.599 303.711 111.428 307.909 113.131C308.19 113.219 308.477 113.277 308.768 113.303C308.617 113.032 308.482 112.745 308.32 112.49C304.497 106.391 301.18 100.032 298.357 93.412C298.149 92.9797 297.914 92.563 297.643 92.1672C297.435 91.8495 297.221 91.3755 297.008 92.2037C295.747 97.0526 294.143 101.834 293.253 106.766C292.279 112.172 291.899 117.678 291.367 123.157C291.065 126.485 290.237 129.672 288.883 132.724C287.529 135.777 285.721 138.532 283.466 140.99C281.544 143.126 279.461 145.126 277.419 147.152C275.951 148.594 275.846 149.011 277.419 150.391C278.727 151.542 280.216 152.474 281.643 153.506L281.607 153.386ZM418.3 129.047C419.716 127.813 419.706 127.839 418.404 126.99C416.721 125.917 415.122 124.751 413.425 123.724C412.904 123.417 412.362 123.365 411.794 123.563C409.399 125.115 407.081 126.782 404.732 128.412L398.091 133.053L397.534 133.459C397.794 133.521 398.091 133.688 398.32 133.636C401.727 132.928 405.143 132.245 408.529 131.454C411.836 130.688 415.107 129.808 418.399 128.98C418.055 129.36 417.68 129.704 417.274 130.011C411.018 133.782 404.112 135.459 396.935 136.126C394.419 136.36 392.107 136.829 390.216 138.709C389.482 139.339 388.685 139.86 387.82 140.287C387.024 140.756 386.19 141.172 385.362 141.615C386.326 141.719 387.289 141.849 388.253 141.922C395.789 142.48 402.784 140.657 409.383 137.12C412.826 135.36 415.852 133.047 418.451 130.183C418.831 129.74 419.31 129.303 418.3 129.047ZM427.05 134.652C426.664 134.594 426.294 134.506 425.93 134.386C425.617 134.214 425.326 134.016 425.055 133.792C425.346 133.558 425.675 133.381 426.034 133.266C428.456 132.99 430.909 132.448 433.315 132.605C437.065 132.855 440.32 134.61 443.206 137.011C443.565 137.303 443.951 137.573 444.326 137.829C444.414 137.313 444.435 136.792 444.399 136.266C444.065 134.183 443.294 132.277 442.086 130.547C440.883 128.813 439.362 127.428 437.529 126.386C437.258 126.167 436.945 126.068 436.596 126.084C436.247 126.105 435.945 126.235 435.701 126.48C433.966 127.74 432.143 128.844 430.227 129.792C428.451 130.657 426.508 131.157 424.675 131.912C422.435 132.839 422.435 133.271 424.237 134.896C426.279 136.761 428.482 138.594 430.044 140.834C434.992 147.928 436.201 155.803 433.628 164.053C432.742 166.865 431.409 169.443 429.622 171.787C427.836 174.126 425.706 176.099 423.232 177.698C422.857 178.011 422.513 178.365 422.206 178.751C422.727 178.626 423.326 178.652 423.737 178.349C426.539 176.23 429.513 174.303 431.935 171.818C433.029 170.73 433.997 169.542 434.846 168.256C435.695 166.964 436.404 165.605 436.971 164.172C437.539 162.735 437.956 161.261 438.221 159.74C438.487 158.219 438.596 156.688 438.55 155.146C438.419 149.297 436.117 144.157 432.107 139.849C430.43 138.058 428.701 136.323 426.992 134.568C429.602 135.053 431.612 136.594 433.555 138.271C440.628 144.365 442.935 152.068 441.216 161.089C440.404 165.204 438.524 168.756 435.576 171.735C435.399 171.959 435.247 172.198 435.122 172.454C435.393 172.402 435.659 172.313 435.904 172.188C437.721 170.886 439.617 169.678 441.3 168.214C446.992 163.23 449.289 154.896 446.695 147.928C443.649 139.735 436.274 135.042 427.872 134.256C427.602 134.214 427.315 134.49 427.05 134.631V134.652ZM386.669 123.808C384.753 123.719 382.841 123.652 380.925 123.527C380.711 123.527 380.524 123.209 380.32 123.037C380.524 122.948 380.732 122.886 380.945 122.844C382.544 122.766 384.185 122.922 385.727 122.605C392.445 121.214 399.169 119.709 405.888 118.209C407.68 117.808 407.675 117.745 406.586 116.146C403.675 111.849 400.831 107.495 399.612 102.365C399.221 100.652 399.065 98.9172 399.154 97.1672C399.237 95.3026 399.518 95.063 401.393 95.4068C403.477 95.7766 405.685 96.188 407.503 97.1932C410.19 98.6828 412.576 100.709 415.096 102.506C415.253 102.615 415.43 102.698 415.591 102.797C415.591 102.573 415.685 102.303 415.591 102.12C415.419 101.709 415.164 101.344 414.836 101.042C411.841 98.8026 408.914 96.4276 405.768 94.4068C399.997 90.6984 394.117 87.1516 388.221 83.6464C384.107 81.2037 379.893 78.9432 375.706 76.6255C375.289 76.4745 374.857 76.3912 374.414 76.3755C374.643 76.6776 374.883 76.9745 375.107 77.2818C378.018 81.2766 380.925 85.2714 383.831 89.2714C384.008 89.6047 384.149 89.9537 384.237 90.3182C383.893 90.0995 383.529 89.912 383.201 89.662C382.956 89.4537 382.727 89.2349 382.508 88.9953C377.169 83.9537 371.94 78.7505 366.451 73.8703C359.987 68.0214 352.695 63.5109 344.576 60.3339C338.06 57.8391 331.503 57.9432 324.945 60.1776C323.175 60.7818 323.216 60.8339 324.237 62.1672C328.305 67.4901 332.289 72.8859 336.445 78.1412C344.18 87.8859 352.747 96.7349 363.529 103.251C375.461 110.459 388.367 113.974 402.227 114.287C402.789 114.36 403.336 114.495 403.867 114.693C403.352 114.964 402.841 115.256 402.31 115.49C402.076 115.537 401.836 115.547 401.596 115.521C396.086 115.876 390.617 115.766 385.206 114.527C379.638 113.256 374.112 111.87 368.893 109.485C355.904 103.521 345.43 94.4537 336.815 83.2089C331.966 76.8755 327.451 70.287 322.966 63.6932C321.966 62.2245 321.055 61.9432 319.513 62.2609C318.393 62.4901 318.393 62.8547 318.956 63.6672C320.034 65.2505 321.076 66.8547 322.086 68.4797C327.961 78.0057 334.3 87.1776 342.362 95.0734C349.367 101.938 357.268 107.282 366.44 110.761C368.284 111.464 370.096 112.292 371.899 113.105C372.201 113.245 372.404 113.605 372.649 113.865C372.346 113.933 372.039 113.959 371.732 113.943C362.747 112.235 354.591 108.646 347.258 103.183C338.3 96.5057 331.346 87.9589 325.289 78.6724C322.232 73.9953 319.43 69.1464 316.524 64.3755C315.831 63.2557 315.122 62.3495 313.508 62.6516C311.008 63.1151 308.466 63.2818 305.966 63.7401C304.128 64.0734 304.076 64.3026 304.581 66.1568C306.753 73.8026 310.003 80.9537 314.336 87.6203C321.68 99.1932 331.55 107.724 344.57 112.266C350.477 114.339 356.638 115.198 362.878 115.516C363.279 115.61 363.649 115.766 363.997 115.985C363.774 116.167 363.524 116.318 363.258 116.433C356.935 117.974 350.633 117.657 344.404 116.037C336.19 113.912 329.154 109.594 323.044 103.797C315.763 96.8807 310.445 88.5839 306.44 79.4068C306.274 79.0526 306.086 78.7089 305.878 78.3755C305.862 78.7974 305.909 79.2141 306.013 79.6255C308.404 85.1828 310.721 90.7714 313.294 96.2557C315.336 100.745 318.138 104.698 321.695 108.11C328.664 114.698 336.846 119.251 345.94 122.172C355.263 125.172 364.695 127.641 374.497 128.563C380.237 129.188 385.956 129.001 391.649 128.006C397.805 126.834 403.482 124.334 409.232 121.985C410.909 121.303 410.909 121.224 409.612 119.922C409.107 119.417 408.893 118.329 407.622 118.922C400.992 122.079 394.008 123.704 386.669 123.808ZM361.997 55.7766C359.143 56.1516 354.716 56.7245 350.331 57.3234C349.982 57.4172 349.654 57.5526 349.336 57.7297C349.612 57.9849 349.909 58.2089 350.227 58.3964C356.654 61.313 362.69 64.8287 367.8 69.787C368.201 70.1776 368.659 70.4849 369.175 70.7037C379.232 75.0266 388.857 80.1568 398.055 86.0943C404.091 89.9484 410.32 93.6099 414.789 99.4537C414.914 99.6203 415.185 99.6672 415.388 99.7714C415.445 99.6359 415.581 99.4849 415.555 99.3651C414.997 96.7401 415.524 93.9849 414.3 91.4016C411.914 86.1412 408.94 81.2453 405.372 76.7089C394.591 63.4172 380.701 56.4693 361.997 55.7766ZM391.055 163.584C395.617 163.704 399.638 162.115 403.466 159.891C403.706 159.73 403.93 159.542 404.128 159.334C403.82 159.277 403.508 159.277 403.201 159.334C398.966 160.855 394.633 160.688 390.268 160.146C384.784 159.469 380.122 157.042 376.034 153.422C375.815 153.193 375.612 152.954 375.43 152.693C375.784 152.709 376.122 152.782 376.451 152.907C379.919 154.995 383.638 156.443 387.607 157.251C391.57 158.063 395.56 158.188 399.57 157.631C403.201 157.172 406.774 156.209 409.8 153.933C417.586 148.089 420.352 139.849 420.904 130.558C420.904 130.376 420.758 130.183 420.675 130.001C420.477 130.12 420.289 130.256 420.117 130.412C419.06 131.615 418.112 132.917 416.961 134.016C409.742 140.959 401.018 144.37 391.091 144.751C388.94 144.751 386.8 144.61 384.669 144.329C381.18 143.995 377.888 144.891 374.55 145.667C374.169 145.724 373.841 145.891 373.565 146.167C373.289 146.443 373.122 146.771 373.065 147.152C372.508 149.126 371.831 151.058 371.024 152.938C370.466 154.136 370.586 154.829 371.524 155.605C377.201 160.313 383.565 163.297 391.055 163.584ZM370.893 134.813C375.935 135.042 380.977 135.021 385.857 133.641C389.732 132.521 393.466 130.969 397.263 129.589C397.471 129.474 397.659 129.334 397.826 129.157C397.55 129.099 397.274 129.084 396.992 129.105C393.82 129.818 390.68 131.037 387.477 131.178C381.81 131.402 376.154 131.292 370.503 130.844C361.44 130.167 352.638 128.042 344.029 125.094C334.971 122.016 326.482 117.886 319.289 111.454C311.122 104.172 304.43 95.662 299.69 85.7349C297.789 81.7714 296.435 77.6255 295.633 73.2974C295.524 72.688 295.425 72.0734 295.326 71.4641C295.258 72.0891 295.159 72.7245 295.138 73.3495C295.107 73.912 295.143 74.4745 295.247 75.0318C296.93 83.1568 300.055 90.6828 304.622 97.6151C310.399 106.334 317.701 113.672 326.065 119.974C339.336 130.001 354.393 134.558 370.893 134.829V134.813ZM398.544 200.084C399.201 200.162 399.852 200.209 400.513 200.219C401.3 200.219 402.096 200.047 402.883 199.99C410.388 199.428 417.216 197.068 423.149 192.381C425.727 190.287 427.721 187.74 429.128 184.735C429.945 183.084 428.466 182.829 427.706 182.245C426.763 181.511 426.482 182.323 426.029 183.105C425.294 184.339 424.445 185.49 423.477 186.547C419.951 190.469 415.352 192.527 410.393 194.053C394.654 198.928 378.227 188.818 373.763 174.922C373.201 173.115 372.815 171.245 372.263 169.428C372.143 169.047 371.638 168.782 371.315 168.469C371.216 168.876 370.961 169.318 371.044 169.678C371.919 173.532 372.602 177.454 373.815 181.209C376.951 190.891 386.789 200.417 398.529 200.099L398.544 200.084ZM406.57 180.136C407.445 179.865 408.513 179.823 409.169 179.287C412.352 176.657 415.461 173.928 418.518 171.146C419.284 170.329 419.94 169.428 420.492 168.454C420.607 168.193 420.675 167.922 420.695 167.641C420.456 167.808 420.211 167.959 419.982 168.141C418.789 169.063 417.742 170.235 416.388 170.876C410.419 173.724 404.237 175.032 397.633 173.204C394.888 172.443 392.102 171.782 389.175 172.282C386.044 172.813 382.992 172.527 380.018 171.428C379.8 171.376 379.581 171.349 379.357 171.349C379.414 171.547 379.497 171.735 379.602 171.912C383.997 177.407 389.445 181.657 395.497 185.162C395.971 185.485 396.492 185.605 397.06 185.527C399.362 184.667 401.628 183.683 403.888 182.73C404.747 182.365 403.987 182.219 403.747 182.105C403.383 181.969 403.008 181.849 402.628 181.751C397.586 180.073 392.904 177.787 388.956 174.162C388.768 173.948 388.617 173.714 388.487 173.459C388.779 173.485 389.065 173.547 389.341 173.646C391.175 174.584 392.951 175.683 394.852 176.474C398.586 178.027 402.331 179.626 406.555 180.152L406.57 180.136ZM350.643 145.266C349.013 145.162 348.961 145.188 349.3 146.24C349.81 147.813 350.185 149.495 351.013 150.891C353.617 155.256 356.409 159.511 359.128 163.808C359.477 164.37 359.732 164.329 360.122 163.771C362.513 160.407 365.07 157.126 367.3 153.646C368.482 151.803 369.143 149.615 369.945 147.547C370.143 147.027 370.274 146.266 369.128 146.386C363.872 146.948 358.638 147.021 353.445 145.782C352.372 145.527 351.3 145.376 350.643 145.266ZM402.638 171.428C404.565 171.198 406.753 171.193 408.8 170.652C414.872 169.053 419.867 165.87 422.883 160.115C424.779 156.495 425.263 152.61 425.279 148.568C425.399 145.344 424.815 142.256 423.529 139.292C423.409 139.089 423.268 138.902 423.107 138.735C423.003 138.902 422.925 139.079 422.872 139.266C422.242 144.058 420.268 148.412 418.539 152.86C415.419 160.917 409.904 166.506 401.82 169.553C400.513 170.047 399.18 170.485 397.852 170.954L402.638 171.428ZM431.956 156.433C432.044 151.11 430.211 146.735 428.399 143.152C428.227 142.896 428.029 142.662 427.8 142.454C427.753 142.683 427.732 142.912 427.747 143.141C428.565 147.818 428.524 152.485 427.628 157.146C426.18 164.782 423.331 171.662 417.102 176.719C415.81 177.771 414.456 178.74 413.143 179.771C412.872 180.027 412.622 180.303 412.393 180.599C412.763 180.688 413.133 180.74 413.513 180.751C416.367 180.594 419.3 181.011 421.3 177.948C422.596 175.99 424.628 174.537 426.175 172.719C430.185 168.068 431.747 162.464 431.956 156.433ZM361.534 138.412C363.774 138.412 366.013 138.448 368.253 138.381C368.643 138.381 369.018 137.948 369.404 137.714C369.008 137.714 368.612 137.636 368.221 137.641C358.841 137.777 349.883 135.907 341.341 132.037C335.846 129.636 330.664 126.683 325.794 123.178C320.919 119.678 316.471 115.709 312.435 111.266C312.029 110.865 311.596 110.49 311.143 110.146C311.378 110.714 311.659 111.251 311.987 111.771C315.695 116.683 319.586 121.428 324.159 125.589C327.737 128.933 331.758 131.631 336.206 133.678C344.263 137.292 352.779 138.579 361.534 138.412ZM419.768 119.849L420.175 119.709C419.232 116.777 418.628 113.678 417.274 110.959C414.852 106.073 410.607 102.886 405.904 100.313C404.763 99.7609 403.596 99.2766 402.404 98.8599C402.654 100.152 402.706 101.527 403.195 102.73C404.815 106.698 406.878 110.428 409.388 113.907C411.893 117.386 414.779 120.521 418.039 123.308C418.227 123.454 418.425 123.579 418.638 123.688C418.633 123.417 418.586 123.157 418.492 122.902C416.32 119.282 414.122 115.672 411.945 112.058C411.774 111.719 411.633 111.37 411.524 111.006C411.841 111.152 412.128 111.339 412.388 111.568C414.57 114.297 417.487 116.438 419.013 119.709C419.122 119.948 419.445 120.089 419.659 120.266L419.768 119.849ZM414.081 183.568C412.195 183.126 410.305 183.063 408.399 183.381C406.492 183.693 404.716 184.36 403.076 185.381C402.003 186.011 400.675 186.188 399.471 186.599C399.122 186.756 398.789 186.943 398.471 187.157C398.732 187.417 398.951 187.782 399.263 187.917C400.643 188.547 402.055 189.11 403.497 189.594C411.482 192.063 417.893 189.704 423.221 183.152C423.393 182.902 423.539 182.631 423.654 182.344C423.3 182.297 422.945 182.282 422.591 182.303C419.612 182.709 416.638 183.193 414.081 183.568ZM433.539 110.922H433.372C433.372 111.235 433.43 111.558 433.466 111.87C433.826 111.792 434.164 111.652 434.471 111.448C435.977 109.912 437.664 108.48 438.872 106.73C440.362 104.464 441.669 102.105 442.794 99.6412C443.492 98.188 443.237 97.9224 441.675 98.2089C439.435 98.6151 437.07 98.8964 434.956 99.7297C430.107 101.641 425.883 104.433 423.753 109.506C423.638 109.933 423.586 110.37 423.586 110.813C423.904 110.568 424.201 110.308 424.487 110.027C426.471 107.73 428.909 106.146 431.81 105.266C433.227 104.855 433.779 105.167 433.826 106.631C433.878 108.099 433.612 109.469 433.539 110.922ZM433.805 119.329H434.044C438.357 119.329 438.352 119.329 437.69 123.443C437.602 124.006 437.456 124.433 438.336 124.626C441.31 125.287 443.336 127.297 444.987 129.724C446.919 132.662 447.951 135.886 448.086 139.396C448.274 140.797 448.622 142.157 449.128 143.48C449.216 143.777 449.685 143.954 449.971 144.183C450.065 143.886 450.128 143.584 450.164 143.271C450.164 140.251 450.55 137.183 450.117 134.23C448.997 126.724 444.846 121.344 437.763 118.542C436.086 117.876 434.018 118.11 432.128 118.079C431.69 118.079 431.237 118.636 430.794 118.938C431.227 119.105 431.675 119.235 432.133 119.329C432.69 119.36 433.247 119.36 433.805 119.329ZM403.372 193.355C403.784 193.381 404.195 193.381 404.607 193.355C404.899 193.297 405.19 193.214 405.471 193.115C405.18 193.027 404.914 192.917 404.596 192.839C403.221 192.474 401.763 192.277 400.471 191.719C396.149 189.896 392.175 187.501 388.55 184.521C384.925 181.547 381.8 178.115 379.169 174.23C378.32 172.99 377.404 171.808 376.409 170.683C376.154 170.386 375.555 170.386 375.112 170.251C375.096 170.678 375.138 171.099 375.237 171.516C376.456 175.006 378.211 178.198 380.508 181.089C382.805 183.985 385.513 186.417 388.633 188.396C393.154 191.219 398.065 192.87 403.372 193.355ZM426.055 90.1932C425.966 89.2297 425.872 87.9537 425.711 86.6932C425.617 85.9432 425.419 85.2037 425.268 84.4537C424.56 84.912 423.82 85.3443 423.149 85.8547C422.872 86.1412 422.633 86.4537 422.425 86.7974C417.596 92.5266 418.263 99.0109 419.841 105.62C419.94 105.896 420.07 106.162 420.232 106.412C420.326 106.11 420.435 105.813 420.518 105.511L423.274 95.4276C423.341 95.2141 423.425 95.0005 423.518 94.7974C423.628 95.0318 423.711 95.2766 423.758 95.537C423.784 95.8547 423.763 96.1724 423.701 96.4849C423.294 98.5109 422.852 100.521 422.477 102.547C422.44 103.068 422.461 103.584 422.539 104.099C422.815 103.73 423.07 103.349 423.294 102.948C425.211 99.0109 425.826 94.787 426.055 90.1932ZM410.971 211.98C412.143 211.74 414.362 211.297 416.57 210.818C416.774 210.771 416.925 210.516 417.096 210.349C416.919 210.251 416.737 210.178 416.539 210.136C412.3 209.704 408.643 207.797 405.091 205.652C402.997 204.376 400.831 203.589 398.32 203.855C397.284 203.891 396.253 203.849 395.227 203.724C395.003 203.724 394.784 203.672 394.56 203.652C394.633 203.933 394.747 204.193 394.899 204.443C398.961 208.823 403.779 211.662 410.971 211.98ZM347.044 143.813L346.399 144.266C346.399 144.594 346.399 144.917 346.399 145.245C346.711 149.454 347.529 153.563 348.857 157.568C350.805 163.792 354.784 168.771 358.544 173.933C358.622 174.037 358.789 174.089 358.914 174.162C358.997 173.974 359.169 173.782 359.143 173.599C359.05 172.808 358.867 172.037 358.581 171.287C357.096 168.037 355.685 164.745 353.971 161.62C351.56 157.224 348.971 152.938 348.065 147.912C347.883 146.902 347.659 145.896 347.419 144.902C347.315 144.532 347.19 144.167 347.044 143.813ZM452.086 158.803C452.003 158.381 451.841 157.527 451.643 156.683C451.56 156.428 451.451 156.183 451.32 155.948L451.169 156.641C450.961 157.891 450.68 159.12 450.331 160.334C447.888 167.407 442.815 171.98 436.185 175.032C434.82 175.657 433.388 176.115 432.029 176.771C431.388 177.167 430.794 177.626 430.253 178.152C431.008 178.209 431.826 178.469 432.492 178.271C437.695 176.803 442.831 175.136 446.82 171.193C450.149 167.917 451.82 163.896 452.086 158.803ZM420.039 208.021C420.039 207.907 420.076 207.797 420.096 207.683C420.659 207.683 421.216 207.683 421.779 207.683C427.258 207.49 432.716 203.599 434.31 198.011C434.539 197.198 434.346 196.271 434.357 195.402C433.612 195.928 432.94 196.532 432.331 197.214C431.065 199.016 429.539 200.568 427.758 201.87C425.977 203.172 424.034 204.157 421.93 204.818C419.128 205.719 416.331 206.344 413.372 205.969C413.133 205.938 412.857 206.23 412.602 206.376C412.82 206.537 413.055 206.662 413.31 206.756C415.529 207.188 417.774 207.599 420.018 208.021H420.039ZM368.872 156.73C368.654 156.865 368.451 157.027 368.274 157.214C367.633 158.12 367.05 159.068 366.539 160.053C366.404 160.553 366.508 160.995 366.841 161.381C369.352 163.532 372.102 165.313 375.086 166.735C378.065 168.152 381.185 169.157 384.435 169.745C384.732 169.745 385.013 169.683 385.284 169.568C385.044 169.396 384.81 169.193 384.555 169.037C382.992 168.105 381.294 167.355 379.883 166.235C376.409 163.433 373.065 160.511 369.675 157.626C369.383 157.339 369.112 157.042 368.857 156.73H368.872ZM411.581 202.844C417.227 203.126 422.508 201.99 427.07 198.459C427.841 197.792 428.57 197.084 429.258 196.329C428.341 196.126 427.425 195.943 426.508 195.719C426.081 195.521 425.633 195.381 425.164 195.292C424.492 195.282 423.857 195.422 423.253 195.714C420.747 197.105 418.404 198.808 415.805 199.954C413.206 201.105 410.518 201.636 407.857 202.443C407.503 202.547 407.149 202.631 406.794 202.73C407.19 202.766 407.591 202.834 407.987 202.839C409.169 202.855 410.367 202.844 411.565 202.844H411.581ZM454.461 137.527C454.211 133.047 453.56 129.594 452.138 126.37C451.013 123.698 449.466 121.297 447.503 119.167C445.539 117.032 443.274 115.297 440.706 113.954C438.857 112.985 437.227 113.136 435.664 114.469C435.471 114.698 435.315 114.959 435.201 115.235C435.482 115.334 435.763 115.407 436.055 115.454C437.617 115.532 439.128 115.855 440.581 116.422C442.039 116.99 443.367 117.771 444.57 118.771C451.445 124.631 454.524 132.006 453.076 141.053C452.789 142.844 452.227 144.594 451.826 146.37C451.774 146.599 451.935 146.886 451.997 147.141C452.149 146.969 452.388 146.813 452.435 146.615C453.206 143.282 453.914 139.948 454.445 137.527H454.461ZM297.956 69.9328C298.18 71.0526 298.419 72.537 298.774 73.9953C300.55 81.3495 304.055 87.9224 308.05 94.2609C308.372 94.7714 308.768 95.2297 309.133 95.7089C308.919 95.1464 308.742 94.5526 308.482 94.0266C304.602 85.813 301.294 77.4172 300.227 68.2922C300.06 67.5891 299.82 66.9172 299.508 66.2662C299.003 66.9537 298.539 67.662 298.107 68.3964C297.935 68.6932 298.018 69.1516 297.956 69.9328ZM364.404 142.818C367.935 142.256 371.831 141.99 375.565 141.047C378.925 140.198 382.07 138.641 385.31 137.381C385.57 137.23 385.805 137.042 386.013 136.823C385.685 136.714 385.352 136.662 385.008 136.672C381.69 137.402 378.383 138.136 375.086 138.912C369.3 140.303 363.555 141.933 357.503 141.402C355.82 141.256 354.18 141.084 352.518 140.959C352.258 140.99 352.008 141.058 351.768 141.172C351.977 141.271 352.195 141.349 352.425 141.402C356.279 141.87 360.143 142.297 364.404 142.818ZM393.669 168.907C395.862 168.256 398.992 167.448 402.07 166.412C406.503 164.896 409.909 161.933 412.555 158.146C412.721 157.829 412.852 157.501 412.935 157.152C412.607 157.334 412.294 157.537 412.003 157.771C411.008 158.803 409.961 159.771 408.862 160.688C401.794 165.844 394.102 168.349 385.341 166.063C385.055 166.037 384.774 166.058 384.492 166.12C384.701 166.355 384.935 166.558 385.195 166.735C387.503 167.948 390.003 168.672 393.669 168.907ZM436.466 182.849C441.867 182.777 445.425 180.224 448.122 176.24C448.466 175.558 448.716 174.844 448.867 174.094C448.31 174.506 447.747 174.912 447.19 175.308C446.925 175.495 446.628 175.636 446.372 175.813C442.227 178.459 437.742 180.282 432.93 181.292C432.617 181.365 432.372 181.678 432.076 181.881C432.32 182.037 432.576 182.157 432.846 182.245C434.169 182.485 435.513 182.693 436.466 182.849ZM423.201 118.803C423.409 120.172 423.596 121.422 423.794 122.672C423.826 122.813 423.872 122.954 423.93 123.094C424.122 122.974 424.294 122.834 424.451 122.672C427.362 118.751 429.482 114.443 430.81 109.74C430.826 109.459 430.789 109.183 430.706 108.912C430.482 108.995 430.274 109.094 430.076 109.219C427.268 111.402 425.086 114.094 423.544 117.297C423.378 117.787 423.263 118.287 423.201 118.803ZM424.039 130.631C424.263 130.464 424.388 130.365 424.524 130.271C426.815 128.704 429.149 127.183 431.393 125.542C432.513 124.652 433.581 123.698 434.586 122.678C434.727 122.542 434.82 122.115 434.753 122.042C434.524 121.855 434.258 121.761 433.961 121.761C429.93 122.131 425.003 126.24 423.992 130.042C423.977 130.24 423.997 130.438 424.039 130.631ZM433.05 192.011C434.685 191.464 436.289 190.834 437.852 190.115C438.68 189.62 439.31 188.938 439.737 188.073C440.529 186.594 440.076 185.876 438.477 186.157C437.409 186.391 436.451 186.86 435.602 187.553C434.451 188.532 433.362 189.579 432.341 190.693C432.091 190.98 431.867 191.287 431.664 191.605L433.05 192.011ZM395.711 208.672C395.544 208.443 395.362 208.178 395.154 207.933C393.987 206.516 392.836 205.089 391.638 203.704C391.216 203.23 390.747 202.813 390.221 202.464C390.018 202.329 389.659 202.464 389.346 202.464C389.383 202.693 389.456 202.912 389.576 203.115C391.372 205.016 393.185 206.912 395.013 208.792C395.138 208.912 395.425 208.87 395.633 208.891C395.675 208.891 395.695 208.777 395.732 208.672H395.711ZM429.31 190.584C429.586 190.365 429.846 190.136 430.091 189.886C430.93 188.844 431.774 187.818 432.55 186.73C432.742 186.459 432.654 185.99 432.69 185.605C432.294 185.766 431.701 185.813 431.529 186.105C430.805 187.308 430.201 188.594 429.56 189.849C429.487 189.99 429.456 190.146 429.305 190.584H429.31Z" fill="#C5AA96"/>
<path d="M302.185 136.589C298.399 136.391 295.133 135.808 292.32 133.74C291.925 133.464 291.55 133.167 291.201 132.839C291.065 132.652 290.966 132.448 290.893 132.23C291.138 132.204 291.383 132.204 291.628 132.23C293.867 132.641 295.826 131.667 297.617 130.62C298.945 129.829 298.94 128.198 298.997 126.756C299.039 126.412 299.107 126.079 299.201 125.745C299.263 126.047 299.341 126.344 299.378 126.652C299.68 128.834 300.445 129.797 302.784 129.813C305.419 129.818 308.034 129.579 310.622 129.084C312.555 128.73 314.399 127.855 316.289 127.245C316.581 127.198 316.878 127.198 317.169 127.245C317.086 127.521 316.982 127.797 316.867 128.068C316.779 128.204 316.664 128.313 316.529 128.402L315.117 129.646C315.768 129.589 316.419 129.516 317.076 129.49C317.305 129.511 317.524 129.563 317.742 129.646C317.675 129.865 317.68 130.152 317.539 130.292C316.721 131.167 315.841 131.969 314.899 132.704C310.982 135.443 306.393 136.094 302.185 136.589Z" fill="#C5AA96"/>
<path d="M135.096 110.058C134.675 114.094 133.149 117.646 131.336 121.146C129.956 123.823 128.659 126.553 127.487 129.329C126.05 132.761 126.888 136.047 128.534 139.183C129.607 141.23 130.774 143.245 132.034 145.178C137.07 152.803 134.3 160.698 128.925 165.678C127.175 167.308 125.248 168.751 123.373 170.24C123.06 170.396 122.732 170.485 122.383 170.511C122.451 170.214 122.56 169.938 122.706 169.672C124.175 167.787 125.768 165.974 127.143 164.021C128.44 162.224 129.586 160.334 130.57 158.355C132.091 155.198 131.763 151.959 130.19 148.907C129.07 146.709 127.727 144.615 126.456 142.495C124.05 138.474 122.44 134.178 123.8 129.521C124.748 126.271 126.388 123.219 127.81 120.12C129.435 116.584 131.3 113.146 132.779 109.553C133.419 107.985 133.336 106.131 133.628 104.402C133.706 104.136 133.81 103.881 133.945 103.636C134.102 103.881 134.221 104.141 134.305 104.417C134.596 106.297 134.836 108.172 135.096 110.058Z" fill="#C5AA96"/>
<path d="M389.107 153.162C386.232 152.605 382.638 151.985 379.112 151.115C377.768 150.777 376.534 149.902 375.315 149.172C374.857 148.792 374.461 148.355 374.133 147.86C374.654 147.954 375.18 148.037 375.695 148.152C378.784 148.823 381.852 149.735 384.971 150.141C388.471 150.573 391.956 150.48 395.43 149.865C398.898 149.251 402.201 148.136 405.336 146.521C409.482 144.553 413.169 141.938 416.398 138.678C416.68 138.459 416.992 138.282 417.326 138.157C417.138 138.469 416.956 138.792 416.768 139.1C415.664 140.787 414.399 142.355 412.977 143.787C411.555 145.225 410.008 146.506 408.326 147.626C406.643 148.745 404.867 149.688 402.997 150.448C401.128 151.209 399.201 151.777 397.211 152.146C394.81 152.631 392.336 152.771 389.107 153.162Z" fill="#C5AA96"/>
</svg>
