<svg width="432" height="396" viewBox="0 0 432 396" fill="none" xmlns="http://www.w3.org/2000/svg">
<mask id="mask0_3_272" style="mask-type:luminance" maskUnits="userSpaceOnUse" x="0" y="0" width="432" height="396">
<path d="M0 0H432V396H0V0Z" fill="white"/>
</mask>
<g mask="url(#mask0_3_272)">
<path d="M136.453 231.672C135.089 230.849 134.641 229.083 135.458 227.708C140.328 219.578 147.828 215.01 157.146 214.5C170.682 213.766 185.318 221.948 191.635 230.297C192.604 231.568 192.354 233.38 191.083 234.349C190.568 234.745 189.953 234.932 189.339 234.932C188.469 234.932 187.604 234.536 187.036 233.797C181.734 226.802 168.922 219.646 157.458 220.276C150.042 220.682 144.307 224.177 140.417 230.688C139.594 232.052 137.818 232.49 136.453 231.672ZM237.245 234.349C237.766 234.745 238.38 234.932 238.99 234.932C239.865 234.932 240.724 234.536 241.297 233.797C246.599 226.802 259.401 219.646 270.875 220.276C278.292 220.682 284.021 224.177 287.917 230.688C288.734 232.052 290.505 232.5 291.88 231.677C293.245 230.859 293.693 229.089 292.87 227.719C288 219.583 280.5 215.016 271.182 214.505C257.656 213.776 243.016 221.958 236.693 230.307C235.729 231.578 235.979 233.391 237.245 234.349ZM216.948 315.719C224.432 315.719 233.359 311.271 234.734 304.089C235.036 302.526 234.01 301.005 232.438 300.714C230.875 300.411 229.354 301.438 229.063 303.01C228.313 306.922 221.938 309.948 216.948 309.948C211.958 309.948 205.578 306.922 204.839 303.01C204.536 301.448 203.026 300.411 201.464 300.714C199.901 301.016 198.87 302.526 199.167 304.089C200.536 311.271 209.464 315.719 216.948 315.719ZM179.99 254.526C179.604 255.818 178.729 257.589 176.875 259.792C175.844 261.005 176 262.828 177.229 263.854C177.771 264.313 178.427 264.531 179.083 264.531C179.906 264.531 180.724 264.177 181.292 263.5C185.146 258.927 186.042 255.224 186.052 252.781C188.958 251.667 190.698 250.563 190.922 250.406C192.25 249.526 192.615 247.74 191.729 246.406C190.849 245.078 189.063 244.714 187.734 245.599C187.568 245.708 170.88 256.406 149.271 241.469C147.958 240.563 146.167 240.891 145.26 242.203C144.349 243.516 144.677 245.313 145.99 246.219C146.521 246.583 147.052 246.932 147.573 247.271C146.667 248.521 144.703 250.354 140.484 251.953C138.99 252.51 138.24 254.177 138.807 255.672C139.25 256.828 140.344 257.536 141.51 257.536C141.849 257.536 142.193 257.474 142.531 257.349C148.245 255.188 151.13 252.417 152.594 250.172C154.036 250.906 155.453 251.563 156.844 252.115C156.057 253.469 154.323 255.464 150.427 257.5C149.016 258.245 148.469 259.99 149.214 261.396C149.729 262.38 150.729 262.943 151.766 262.943C152.219 262.943 152.672 262.839 153.104 262.615C158.776 259.635 161.292 256.38 162.396 253.927C164.391 254.448 166.323 254.792 168.161 255C167.474 256.406 165.932 258.469 162.542 260.792C161.219 261.688 160.885 263.484 161.792 264.807C162.354 265.625 163.26 266.068 164.172 266.068C164.734 266.068 165.302 265.901 165.797 265.568C171.547 261.635 173.542 257.813 174.198 255.214C176.297 255.109 178.24 254.87 179.99 254.526ZM275.224 262.615C275.656 262.839 276.115 262.943 276.563 262.943C277.599 262.943 278.609 262.38 279.12 261.396C279.859 259.979 279.318 258.234 277.901 257.5C274.005 255.464 272.266 253.464 271.484 252.115C272.875 251.563 274.292 250.906 275.734 250.172C277.203 252.417 280.083 255.188 285.802 257.349C286.135 257.474 286.484 257.536 286.818 257.536C287.984 257.536 289.083 256.828 289.521 255.672C290.083 254.177 289.333 252.51 287.849 251.953C283.625 250.354 281.667 248.521 280.76 247.271C281.286 246.932 281.813 246.589 282.339 246.219C283.651 245.313 283.979 243.516 283.073 242.203C282.167 240.891 280.37 240.563 279.057 241.469C257.615 256.286 241.302 246.052 240.589 245.589C239.26 244.714 237.469 245.078 236.589 246.406C235.708 247.74 236.073 249.531 237.401 250.406C237.635 250.563 239.359 251.667 242.271 252.781C242.281 255.224 243.188 258.927 247.026 263.5C247.599 264.182 248.417 264.531 249.24 264.531C249.896 264.531 250.552 264.307 251.094 263.854C252.313 262.828 252.474 261.005 251.448 259.792C249.594 257.589 248.729 255.818 248.333 254.526C250.083 254.87 252.026 255.12 254.125 255.203C254.781 257.802 256.776 261.63 262.526 265.557C263.026 265.896 263.589 266.057 264.151 266.057C265.073 266.057 265.979 265.62 266.531 264.797C267.427 263.474 267.094 261.682 265.781 260.781C262.396 258.469 260.875 256.422 260.177 254.99C262.005 254.781 263.932 254.438 265.917 253.917C267.031 256.38 269.547 259.641 275.224 262.615ZM257.641 340.667C256.057 343.885 250.479 349 240.698 345.297C231.495 341.807 226.766 344.339 223.021 347.583C221.172 349.182 219.255 349.786 217.5 349.786C215.109 349.786 213.01 348.672 211.786 347.443C211.703 347.359 211.615 347.255 211.536 347.161C210.984 346.458 205.823 340.313 197.328 344.365C192.156 346.823 187.63 346.833 184.063 345.828C183.927 345.797 183.786 345.76 183.661 345.708C180.344 344.682 177.911 342.792 176.63 341.245C175.615 340.021 175.786 338.198 177.01 337.182C178.24 336.172 180.042 336.333 181.063 337.542C181.313 337.833 182.552 339.167 184.729 340.005C186.792 339.38 191.328 337.656 195.995 333.547C203.161 327.245 211.563 327.828 217.104 331.172C222.646 327.828 231.047 327.245 238.214 333.547C243.49 338.188 248.615 339.786 250.177 340.193C251.786 339.422 252.406 338.214 252.458 338.12C253.156 336.688 254.896 336.099 256.328 336.802C257.75 337.5 258.339 339.234 257.641 340.667ZM234.432 337.906C234.422 337.896 234.406 337.885 234.396 337.87C228.167 332.391 221.813 334.625 219.047 336.807C218.469 337.266 217.776 337.448 217.099 337.411C216.422 337.448 215.734 337.255 215.161 336.807C212.479 334.693 206.432 332.552 200.391 337.406C207.849 336.307 213.542 340.427 215.948 343.432C216.646 344.026 217.786 344.469 219.24 343.214C222.63 340.26 227.276 337.328 234.432 337.906ZM235.521 345.958C228.62 352.859 221.708 356.115 214.99 355.62C205.182 354.906 198.714 346.375 198.656 346.286C197.708 345.01 195.901 344.734 194.625 345.682C193.339 346.625 193.063 348.438 194.01 349.724C194.328 350.167 202.042 360.448 214.505 361.385C215.12 361.432 215.734 361.458 216.344 361.458C224.219 361.458 232.031 357.63 239.604 350.052C240.734 348.922 240.734 347.099 239.604 345.969C238.474 344.839 236.651 344.839 235.521 345.958ZM370.297 160.438C362.208 182.729 367.109 203.708 367.151 203.922C367.177 204.01 367.188 204.094 367.214 204.182C367.24 204.391 370.469 226.109 372.792 244.406C375.036 262.063 370.875 267.854 369.422 269.297C368.813 270.073 368.214 270.849 367.609 271.651C366.568 276.229 359.891 305.865 359.047 318.901C359.245 321.854 357.802 326.344 352.865 327.339C352.521 327.406 352.13 327.448 351.698 327.448C350.62 327.448 349.292 327.167 347.891 326.172C344.948 324.094 342.766 319.656 341.349 314.99C341.151 315.339 340.953 315.682 340.745 316.01C332.776 329.385 329.047 333.615 317.891 337.635C310.578 349.094 305.365 357.891 302.807 363.141C302.021 365.333 299.708 368.854 295.703 368.854C295.323 368.854 294.917 368.823 294.51 368.75C293.469 368.578 292 368.01 290.896 366.25C289.359 363.813 289.089 359.823 289.531 355.536C285.776 358.891 283.219 359.672 281.667 359.672C281.276 359.672 280.948 359.62 280.688 359.557C280.438 359.49 280.214 359.401 279.99 359.281C279.083 358.781 278.266 358.208 277.536 357.573C254.823 384.87 227.328 396.38 216.958 396.38C206.073 396.38 178.005 384.698 155.094 357.089C154.229 357.917 153.234 358.661 152.094 359.281C151.891 359.401 151.646 359.49 151.406 359.557C151.135 359.625 150.807 359.672 150.427 359.672C148.875 359.672 146.302 358.891 142.563 355.536C142.995 359.823 142.734 363.813 141.198 366.25C140.094 368.01 138.609 368.578 137.583 368.75C137.161 368.823 136.771 368.854 136.391 368.854C132.396 368.854 130.063 365.333 129.286 363.141C126.724 357.891 121.516 349.083 114.203 337.635C103.047 333.615 99.3177 329.385 91.349 316.01C91.1511 315.672 90.9531 315.328 90.7448 314.99C89.3281 319.656 87.1459 324.094 84.2031 326.161C82.7865 327.167 81.4636 327.448 80.3959 327.448C79.9531 327.448 79.5677 327.396 79.2292 327.339C74.2917 326.344 72.849 321.854 73.0469 318.901C72.1823 305.839 65.5 276.135 64.474 271.625C63.8698 270.833 63.2813 270.047 62.6719 269.286C61.2188 267.844 57.0573 262.052 59.3021 244.396C61.625 226.104 64.8542 204.38 64.8802 204.172C64.8906 204.089 64.9063 204 64.9323 203.917C64.9688 203.74 68.3021 189.49 64.9584 172.016C64.8906 171.755 64.8386 171.49 64.7709 171.229C64.3386 169.495 63.9479 167.766 63.5834 166.042C63.5781 166.021 63.5781 166.016 63.5781 166.005C63.0677 164.167 62.4792 162.302 61.7969 160.427C53.4219 137.333 1.40106 17.276 0.875015 16.0625C0.244807 14.599 0.906266 12.901 2.37502 12.2604C3.84376 11.6302 5.54168 12.2969 6.17189 13.7708C6.22397 13.8854 6.29689 14.0573 6.40627 14.2917C9.9271 22.4219 44.1094 101.375 60.1667 140.604C63.3802 148.443 65.8542 154.688 67.2292 158.469C67.9636 160.49 68.5938 162.5 69.1354 164.479C69.1459 164.495 69.1458 164.51 69.1563 164.531C69.7604 166.729 70.2604 168.917 70.6667 171.036C71.4844 175.297 71.9323 179.359 72.1354 183.109C72.3229 186.823 72.2865 190.229 72.1146 193.193C71.7448 199.813 70.7761 204.271 70.5729 205.156C70.5625 205.229 70.5469 205.323 70.5365 205.443C70.0886 208.505 67.1771 228.297 65.0365 245.146C63.1459 260.042 66.2604 264.609 66.7188 265.177C66.9011 265.297 66.8906 265.344 67.0729 265.557C67.8333 266.516 68.5834 267.484 69.3073 268.474C69.3281 268.5 69.3438 268.526 69.3802 268.552C69.4479 268.63 69.5 268.708 69.5521 268.786C69.5677 268.813 69.5886 268.839 69.6042 268.865C76.9844 278.781 83.4844 290.385 89.2813 300.745C90.2031 302.396 91.1094 304.01 92 305.589C92.0261 305.641 92.0573 305.688 92.0781 305.734C92.0834 305.755 92.1042 305.786 92.1094 305.807C93.5625 308.359 94.9584 310.797 96.3229 313.094C104.359 326.594 107.115 329.151 117.344 332.656C123.708 334.823 129.745 338.156 134.818 341.641C135.734 340.26 137.047 338.839 138.755 338.146C139.714 337.766 140.693 337.635 141.667 337.766C142.323 337.854 142.979 338.052 143.62 338.37C145.568 339.328 149.438 341.229 152.641 344.292C152.646 344.302 152.646 344.313 152.656 344.313C152.672 344.328 152.693 344.344 152.719 344.37C152.276 342.724 151.604 341.24 151.083 340.234C150.161 338.443 148.641 336.688 146.724 334.969C146.156 334.453 145.542 333.953 144.906 333.443C142.443 331.474 139.5 329.547 136.38 327.656C134.052 326.24 131.615 324.844 129.198 323.443C127.464 322.443 125.719 321.443 124.036 320.432C122.943 319.781 121.88 319.042 120.87 318.24C115.531 314.026 111.406 308.016 108.688 303.26C106.677 299.734 105.443 296.911 105.068 296.016C100.198 288.563 99.6042 285.313 99.8542 283.703C99.8542 283.703 99.8542 283.703 99.8542 283.698C99.9479 283.135 100.141 282.771 100.286 282.505C100.917 281.328 102.125 280.63 103.526 280.63C108.266 280.63 112.177 284.151 116.62 292.406C119.391 297.563 123.552 300.818 127.156 303.208V303.214C127.964 303.76 128.76 304.26 129.495 304.729L130.589 305.427C131.323 305.891 131.943 306.266 132.516 306.594C132.88 306.047 133.344 305.495 133.932 304.979C134.234 304.703 134.568 304.432 134.948 304.182C135.729 303.656 137.057 303.12 139.005 303.536C139.266 303.594 139.536 303.656 139.802 303.745C135.573 299.938 132.516 296.786 129.339 291.589C126.635 287.182 123.849 281.302 120.188 272.292C119.495 270.609 118.943 268.797 118.505 266.88C118.505 266.87 118.495 266.854 118.495 266.844C118.495 266.833 118.495 266.833 118.495 266.828C118.495 266.828 118.495 266.828 118.495 266.818C117.219 261.229 116.922 254.766 117.224 247.969C117.224 247.964 117.224 247.964 117.224 247.953C117.224 247.943 117.224 247.943 117.224 247.938C117.224 247.927 117.224 247.927 117.224 247.917V247.833C117.552 240.807 118.536 233.391 119.771 226.234C120.385 222.656 121.057 219.135 121.755 215.76C121.755 215.75 121.766 215.734 121.766 215.724C121.766 215.719 121.766 215.719 121.766 215.708C122.594 211.651 123.422 207.792 124.208 204.25C125.438 198.641 126.516 193.745 126.964 190.516V190.505C126.99 190.318 127.026 190.135 127.042 189.953C128.49 178.323 128.87 166.818 121.88 161.396C115.828 156.708 110.016 148.609 107.281 141.156C107.036 140.526 106.828 139.906 106.651 139.286C106.651 139.286 106.625 139.208 105.417 135.245V135.234C104.656 132.688 103.396 128.536 101.349 121.786C98.2917 111.703 93.474 95.7969 85.875 70.7292C85.2136 68.526 84.5209 66.2396 83.8073 63.8802C78.7396 47.1563 72.5469 26.724 64.9844 1.74479L67.7448 0.90625L70.4948 0C70.4948 0 78.9271 27.8646 88.2084 58.5C93.2344 52.7865 98.8542 47.4531 105.042 42.5833C125.469 26.4635 150.948 15.7083 178.74 11.4688C206.036 7.30729 233.615 9.68229 258.474 18.349C299.719 32.7292 326.661 67.1198 323.255 100.661C325.151 102.198 327.104 104.51 329.036 107.469C341.297 67.0052 361.583 0 361.583 0L364.354 0.838542L367.12 1.67708C349 61.5 338.76 95.2969 332.974 114.396C332.031 117.521 331.198 120.24 330.479 122.625C325.448 139.214 325.448 139.224 325.448 139.224C323.047 147.13 316.786 156.224 310.224 161.307C303.698 166.37 303.583 176.719 304.786 187.526C304.87 188.307 304.969 189.083 305.063 189.87C305.458 193.089 306.589 198.224 307.885 204.172C309.318 210.75 311 218.417 312.359 226.38C312.729 228.536 313.073 230.714 313.385 232.896C315.458 247.365 316.026 262.042 311.906 272.224C309.87 277.245 308.109 281.302 306.479 284.661C301.729 294.453 298.115 298.432 292.313 303.672C292.578 303.589 292.844 303.516 293.104 303.469C295.047 303.052 296.375 303.589 297.161 304.115C298.146 304.771 298.88 305.531 299.417 306.271C299.484 306.359 299.536 306.438 299.599 306.516C300.177 306.193 300.786 305.823 301.521 305.359L302.609 304.656C304.042 303.75 305.677 302.734 307.318 301.49C310.266 299.271 313.297 296.406 315.49 292.339C315.99 291.422 316.474 290.557 316.948 289.776C318.943 286.458 320.854 284.109 322.823 282.615C324.453 281.38 326.13 280.724 327.896 280.604C328.13 280.589 328.354 280.578 328.589 280.578C329.979 280.578 331.188 281.276 331.828 282.453C332.031 282.849 332.359 283.453 332.281 284.635C332.172 286.495 331.073 289.781 327.042 295.964C326.229 297.891 321.464 308.724 313.568 316.156C311.875 317.771 310.042 319.214 308.068 320.385C306.365 321.396 304.63 322.401 302.896 323.401C300.917 324.542 298.932 325.682 296.99 326.844C295.385 327.786 293.828 328.755 292.339 329.74C290.427 330.974 288.641 332.234 287.042 333.51C284.333 335.677 282.182 337.906 281 340.193C280.484 341.193 279.807 342.688 279.359 344.344C280.078 343.646 280.828 343.005 281.599 342.438C284.24 340.417 286.943 339.089 288.469 338.328C289.401 337.87 290.359 337.646 291.328 337.688C292.01 337.698 292.672 337.844 293.339 338.115C295.047 338.802 296.349 340.219 297.276 341.599C302.349 338.12 308.385 334.786 314.75 332.62C324.969 329.115 327.734 326.563 335.771 313.057C337.151 310.729 338.578 308.25 340.036 305.661C340.943 304.052 341.859 302.406 342.807 300.719C348.609 290.37 355.12 278.755 362.49 268.839C362.5 268.813 362.516 268.776 362.542 268.76C362.604 268.682 362.656 268.604 362.714 268.526C362.734 268.5 362.75 268.469 362.786 268.448C363.51 267.458 364.26 266.479 365.021 265.531C365.193 265.318 365.188 265.271 365.375 265.151C365.833 264.583 368.948 260.016 367.057 245.12C364.833 227.604 361.776 206.911 361.505 205.13C361.031 203.052 356.422 181.734 364.859 158.453C373.109 135.719 421.448 24.0313 425.677 14.2708C425.781 14.0417 425.859 13.875 425.911 13.7552C426.542 12.2865 428.245 11.6146 429.703 12.2448C431.172 12.8854 431.844 14.5833 431.203 16.0417C430.688 17.276 378.672 137.333 370.297 160.438ZM358.891 284.542C354.948 290.885 351.286 297.443 347.859 303.563C347.073 304.969 346.302 306.349 345.536 307.703C346.719 314.891 349.302 320.109 351.208 321.458C351.469 321.641 351.646 321.708 351.719 321.693C353.219 321.396 353.333 320.016 353.271 319.229C353.26 319.099 353.255 318.911 353.26 318.781C353.781 310.375 356.578 295.661 358.891 284.542ZM297.542 360.792C299.651 356.432 303.359 349.984 308.594 341.573C304.823 343.526 301.219 345.823 298.078 348.146C298.042 348.177 298 348.214 297.964 348.229C297.464 348.604 296.979 348.974 296.505 349.359H296.5C294.667 356.63 294.953 361.802 295.703 363.089C296.75 362.984 297.396 361.172 297.406 361.146C297.432 361.026 297.484 360.896 297.542 360.792ZM288.052 348.974L290.901 347.901L293.547 346.917C293.547 346.911 293.536 346.911 293.536 346.901C293.286 346.245 292.958 345.589 292.615 345.047C292.51 344.87 292.406 344.708 292.292 344.568C291.844 343.948 291.411 343.526 291.146 343.474C291.146 343.474 291.109 343.484 291.026 343.536C289.859 344.094 287.854 345.089 285.87 346.484C283.953 347.833 282.063 349.552 280.984 351.625C280.839 351.906 280.708 352.203 280.589 352.505C280.76 352.703 280.943 352.891 281.141 353.073C281.406 353.323 281.693 353.547 282.021 353.771C282.745 353.495 284.37 352.651 286.969 350.042C287.302 349.688 287.672 349.333 288.052 348.974ZM294.26 309.182C293.448 309.594 292.526 310.078 291.432 310.693C290.068 311.74 288.38 313.307 286.594 315.5L295.49 311.641C295.375 311.391 295.307 311.115 295.271 310.828C295.245 310.729 295.083 309.87 294.26 309.182ZM303.885 310.708C303.328 312.167 302.776 313.578 302.24 314.932L302.125 315.219C301.766 316.125 301.427 316.969 301.099 317.781C302.453 316.984 303.813 316.203 305.13 315.422C306.505 314.615 307.823 313.609 309.057 312.49C316.922 305.427 321.766 293.656 321.818 293.51C321.896 293.339 321.984 293.167 322.089 293.01C322.927 291.734 323.734 290.38 324.438 289.125C323.245 290.557 321.948 292.552 320.583 295.083C318.438 299.073 315.646 302.104 312.865 304.458C310.313 306.625 307.755 308.24 305.708 309.536L304.656 310.219C304.391 310.406 304.13 310.552 303.885 310.708ZM90.2031 65.0729C98.2344 91.5677 106.484 118.807 110.182 130.969C130.156 114.198 152.802 104.865 172.089 99.6823C209.974 89.5052 242.438 92.6563 243.802 92.7917C245.391 92.9583 246.536 94.3802 246.38 95.9635C246.219 97.5521 244.807 98.6979 243.219 98.5417C242.891 98.5156 210.313 95.3646 173.422 105.313C148.885 111.917 128.354 122.448 111.943 136.792C112.089 137.271 112.177 137.531 112.177 137.542C114.229 144.318 119.797 152.401 125.411 156.75C132.875 162.526 133.984 172.875 133.63 181.38C138.896 175.13 145.083 169.604 152.156 164.917C157.948 161.078 164.495 157.536 171.599 154.396C183.865 148.974 198.083 144.563 216.344 140.5C225.125 138.552 233.865 136.885 242.307 135.271C246.156 134.547 249.844 133.839 253.458 133.12C254.635 132.88 255.802 132.656 256.964 132.411C279.281 127.891 296.161 123.047 306.057 114.109C307.24 113.042 309.068 113.135 310.13 114.307C311.198 115.49 311.115 117.328 309.932 118.391C299.875 127.474 283.979 132.552 263.266 137.005C267.99 139.745 271.484 142.714 271.714 142.911C282.729 152.365 291.542 163.589 298.542 175.589C298.943 168.552 300.891 161.255 306.719 156.75C312.339 152.401 317.906 144.318 319.964 137.542C319.979 137.464 322.734 128.396 326.807 114.932C323.813 109.396 320.984 105.823 318.771 104.542C317.76 103.958 317.203 102.818 317.349 101.661C320.938 74.7396 301.219 39.3594 256.604 23.8021C207.49 6.68229 148.021 16.0521 108.646 47.1146C101.714 52.5469 95.5573 58.5729 90.2031 65.0729ZM133.12 319.005C132.948 318.557 132.766 318.099 132.583 317.635C131.885 315.849 131.151 313.958 130.401 311.964C129.526 311.51 128.615 310.979 127.448 310.234L126.385 309.552C122.109 306.849 115.635 302.76 111.51 295.099C110.146 292.563 108.87 290.578 107.661 289.135C108.359 290.396 109.177 291.75 110.016 293.026C110.12 293.182 110.208 293.354 110.276 293.531C110.292 293.599 111.38 296.229 113.333 299.729C113.339 299.734 113.339 299.734 113.339 299.734C115.938 304.401 120.073 310.578 125.313 314.354C125.849 314.74 126.396 315.094 126.953 315.432C128.641 316.427 130.349 317.417 132.073 318.411C132.422 318.609 132.766 318.807 133.12 319.005ZM137.818 309.182C136.979 309.906 136.833 310.802 136.823 310.839C136.797 311.125 136.729 311.391 136.625 311.651L145.49 315.5C143.693 313.307 142.031 311.729 140.656 310.693C139.568 310.078 138.625 309.594 137.818 309.182ZM150.073 353.766C150.62 353.396 151.083 352.979 151.464 352.536C151.474 352.531 151.484 352.521 151.484 352.51C151.38 352.208 151.234 351.906 151.083 351.615C150.385 350.25 149.323 349.052 148.151 348.005C148.141 347.995 148.135 347.979 148.135 347.979C145.635 345.786 142.599 344.286 141.047 343.536C140.948 343.484 140.917 343.474 140.917 343.474C140.656 343.526 140.224 343.938 139.776 344.563C139.672 344.719 139.568 344.87 139.458 345.047C139.104 345.599 138.766 346.234 138.531 346.901C138.531 346.911 138.526 346.911 138.526 346.917L141.172 347.911L144.005 348.974C144.385 349.333 144.755 349.688 145.104 350.036C147.729 352.635 149.349 353.49 150.073 353.766ZM135.604 349.354L135.599 349.344C135.099 348.953 134.589 348.557 134.063 348.172C130.917 345.839 127.307 343.542 123.51 341.573C128.734 349.984 132.438 356.432 134.563 360.792C134.62 360.906 134.672 361.042 134.719 361.161C134.719 361.161 134.88 361.615 135.167 362.078C135.458 362.547 135.88 363.021 136.401 363.078C137.151 361.792 137.427 356.604 135.604 349.354ZM86.5417 307.703V307.698C85.7917 306.344 85.0156 304.969 84.2188 303.563C80.8021 297.443 77.125 290.911 73.2031 284.557C75.5156 295.677 78.3125 310.391 78.8229 318.771C78.8334 318.938 78.8229 319.099 78.8177 319.25C78.7448 320.01 78.875 321.391 80.3594 321.682C80.4375 321.698 80.6198 321.63 80.8802 321.448C82.7865 320.104 85.3698 314.88 86.5417 307.703ZM274.068 352.651C272.443 348.427 273 343.109 275.88 337.542C278.781 331.958 285.281 327.219 292.542 322.781C293.786 320.198 294.859 317.792 296.094 314.724C294.969 315.328 293.604 316.063 291.911 317.047C286.365 320.234 282.682 321.365 280.474 320.51C280.38 320.474 280.286 320.432 280.188 320.396C280.057 320.328 279.938 320.266 279.818 320.188C279.75 320.135 279.688 320.104 279.63 320.057C279.609 320.057 279.604 320.042 279.578 320.031C279.557 320.026 279.552 320.01 279.526 319.984C279.505 319.964 279.474 319.948 279.453 319.932C279.38 319.859 279.307 319.802 279.25 319.724C279.177 319.646 279.099 319.557 279.052 319.474C278.979 319.38 278.922 319.281 278.859 319.188C278.781 319.042 278.714 318.901 278.661 318.75C276.125 312.005 280.37 307.453 283.188 304.443C283.729 303.865 284.255 303.292 284.729 302.724C284.823 302.609 284.927 302.51 285.031 302.411L285.396 302.083C294.917 293.693 298.12 290.859 306.557 270.073C312.927 254.359 306.484 224.901 302.24 205.406C300.859 199.073 299.755 194.063 299.328 190.594C299.297 190.318 299.26 190.042 299.224 189.745C291.714 173.885 281.51 158.969 267.922 147.307C267.854 147.245 260.781 141.255 253.755 138.958C250.37 139.615 246.943 140.276 243.375 140.953C234.969 142.557 226.276 144.214 217.578 146.156C199.708 150.12 185.833 154.427 173.911 159.688C167.12 162.698 160.859 166.083 155.333 169.745C146.052 175.901 138.401 183.62 132.453 192.62V192.63C131.922 195.927 130.984 200.229 129.849 205.417C125.589 224.901 119.161 254.359 125.531 270.083C133.964 290.88 137.167 293.703 146.693 302.104L147.047 302.422C147.156 302.516 147.26 302.62 147.365 302.734C147.828 303.302 148.365 303.87 148.911 304.448C151.714 307.453 155.974 312.016 153.427 318.755C153.391 318.849 153.349 318.953 153.297 319.052C153.245 319.146 153.193 319.24 153.13 319.333C153.104 319.396 153.063 319.438 153.026 319.5C152.969 319.578 152.917 319.656 152.849 319.714C152.771 319.807 152.672 319.885 152.578 319.974C152.573 319.984 152.563 319.99 152.552 320L152.526 320.026C152.51 320.031 152.495 320.052 152.469 320.052C152.406 320.104 152.354 320.146 152.286 320.182C152.167 320.26 152.036 320.328 151.917 320.385C151.818 320.422 151.724 320.464 151.63 320.5C149.411 321.344 145.724 320.224 140.188 317.036C139.432 316.599 138.74 316.208 138.109 315.865C139.25 318.766 140.26 321.37 141.115 323.755C147.729 327.906 153.531 332.354 156.214 337.542C158.917 342.755 159.573 347.755 158.313 351.839C180.052 378.792 207.099 390.609 216.969 390.609C226.281 390.62 252.589 379.068 274.068 352.651Z" fill="#C5AA96"/>
</g>
</svg>
