<svg xmlns="http://www.w3.org/2000/svg" xmlns:xlink="http://www.w3.org/1999/xlink" width="1080" zoomAndPan="magnify" viewBox="0 0 810 809.999993" height="1080" preserveAspectRatio="xMidYMid meet" version="1.0"><rect x="-81" width="972" fill="#ffffff" y="-80.999999" height="971.999992" fill-opacity="1"/><rect x="-81" width="972" fill="#ffffff" y="-80.999999" height="971.999992" fill-opacity="1"/><path fill="#C5AA96" d="M 386.410156 428.78125 C 386.351562 413.671875 387.6875 389.746094 394.761719 363.992188 C 402.1875 336.847656 415.960938 307.703125 441.105469 284.675781 C 442.671875 283.222656 445.136719 283.339844 446.558594 284.90625 C 447.804688 286.269531 447.894531 288.328125 446.847656 289.777344 C 446.734375 289.953125 402.535156 349.925781 418.195312 425.648438 C 423.589844 428.054688 428.199219 431.914062 431.535156 436.699219 C 435.191406 441.949219 437.363281 448.328125 437.363281 455.171875 C 437.363281 464.105469 433.738281 472.195312 427.882812 478.023438 C 422.023438 483.882812 413.933594 487.507812 405.027344 487.507812 C 396.097656 487.507812 388.003906 483.882812 382.175781 478.023438 C 376.316406 472.167969 372.691406 464.074219 372.691406 455.171875 C 372.691406 449.429688 374.199219 444.007812 376.839844 439.335938 C 379.1875 435.132812 382.496094 431.535156 386.410156 428.75 Z M 402.214844 366.023438 C 395.050781 392.125 393.980469 416.367188 394.152344 430.8125 C 394.152344 432.144531 393.515625 433.421875 392.296875 434.175781 C 388.703125 436.351562 385.683594 439.453125 383.597656 443.164062 C 381.597656 446.734375 380.4375 450.851562 380.4375 455.230469 C 380.4375 462.015625 383.191406 468.164062 387.628906 472.601562 C 392.066406 477.039062 398.214844 479.792969 405 479.792969 C 411.785156 479.792969 417.933594 477.039062 422.371094 472.601562 C 426.808594 468.164062 429.5625 462.015625 429.5625 455.230469 C 429.5625 449.980469 427.941406 445.136719 425.15625 441.164062 C 422.3125 437.105469 418.28125 433.941406 413.554688 432.175781 C 412.308594 431.769531 411.292969 430.695312 410.972656 429.304688 C 401.230469 385.046875 411.265625 345.78125 422.167969 319.445312 C 412.714844 334.527344 406.390625 350.621094 402.15625 366.023438 Z M 402.214844 366.023438 " fill-opacity="1" fill-rule="nonzero"/><path fill="#C5AA96" d="M 439.917969 435.015625 C 438.84375 433.160156 439.480469 430.8125 441.339844 429.738281 C 443.195312 428.664062 445.542969 429.304688 446.617188 431.160156 C 448.734375 434.84375 450.359375 438.726562 451.429688 442.730469 C 452.503906 446.789062 453.082031 450.964844 453.082031 455.171875 C 453.082031 468.453125 447.71875 480.460938 439.019531 489.160156 C 430.316406 497.863281 418.3125 503.226562 405.027344 503.226562 C 391.746094 503.226562 379.738281 497.863281 371.039062 489.160156 C 362.339844 480.460938 356.972656 468.453125 356.972656 455.171875 C 356.972656 450.964844 357.523438 446.789062 358.628906 442.730469 C 359.699219 438.726562 361.324219 434.8125 363.441406 431.160156 C 364.515625 429.304688 366.863281 428.664062 368.71875 429.738281 C 370.574219 430.8125 371.214844 433.160156 370.140625 435.015625 C 368.371094 438.0625 367.039062 441.339844 366.109375 444.730469 C 365.210938 448.09375 364.746094 451.605469 364.746094 455.171875 C 364.746094 466.308594 369.269531 476.371094 376.550781 483.652344 C 383.828125 490.929688 393.921875 495.453125 405.027344 495.453125 C 416.164062 495.453125 426.230469 490.929688 433.507812 483.652344 C 440.789062 476.371094 445.3125 466.277344 445.3125 455.171875 C 445.3125 451.632812 444.847656 448.125 443.949219 444.730469 C 443.019531 441.308594 441.6875 438.03125 439.917969 435.015625 Z M 439.917969 435.015625 " fill-opacity="1" fill-rule="nonzero"/><path fill="#C5AA96" d="M 370.140625 434.988281 C 369.097656 436.84375 366.71875 437.511719 364.863281 436.464844 C 363.007812 435.421875 362.339844 433.042969 363.382812 431.1875 C 363.382812 431.160156 367.386719 424.140625 364.109375 423.675781 C 361.207031 423.269531 353.234375 425.589844 343.316406 428.492188 C 339.082031 429.738281 334.5 431.070312 330.785156 432.058594 C 305.640625 438.875 286.648438 438.699219 263.125 438.46875 C 259.558594 438.4375 255.875 438.410156 249.554688 438.410156 C 247.40625 438.410156 245.667969 436.667969 245.667969 434.523438 C 245.667969 432.378906 247.40625 430.636719 249.554688 430.636719 C 252.714844 430.636719 258.050781 430.695312 263.183594 430.722656 C 286.066406 430.957031 304.570312 431.128906 328.757812 424.546875 C 333.746094 423.183594 337.574219 422.082031 341.167969 421.039062 C 351.984375 417.875 360.6875 415.351562 365.179688 415.992188 C 379.796875 418.050781 370.199219 434.929688 370.167969 434.957031 Z M 370.140625 434.988281 " fill-opacity="1" fill-rule="nonzero"/><path fill="#C5AA96" d="M 446.644531 431.21875 C 447.691406 433.074219 447.023438 435.449219 445.167969 436.496094 C 443.308594 437.539062 440.933594 436.871094 439.886719 435.015625 C 439.859375 434.957031 430.230469 418.109375 444.875 416.050781 C 449.371094 415.410156 458.070312 417.933594 468.890625 421.09375 C 472.457031 422.140625 476.3125 423.242188 481.300781 424.605469 C 505.488281 431.1875 523.992188 431.015625 546.875 430.78125 C 552.007812 430.722656 557.34375 430.695312 560.503906 430.695312 C 562.648438 430.695312 564.390625 432.433594 564.390625 434.582031 C 564.390625 436.726562 562.648438 438.46875 560.503906 438.46875 C 554.210938 438.46875 550.5 438.496094 546.929688 438.523438 C 523.410156 438.757812 504.386719 438.929688 479.273438 432.117188 C 475.558594 431.101562 471.007812 429.765625 466.742188 428.550781 C 456.824219 425.648438 448.851562 423.328125 445.949219 423.734375 C 442.671875 424.199219 446.644531 431.246094 446.675781 431.246094 Z M 446.644531 431.21875 " fill-opacity="1" fill-rule="nonzero"/><path fill="#C5AA96" d="M 496.585938 379.21875 C 500.328125 379.21875 503.34375 382.261719 503.34375 385.976562 C 503.34375 389.714844 500.296875 392.734375 496.585938 392.734375 C 492.84375 392.734375 489.828125 389.6875 489.828125 385.976562 C 489.828125 382.234375 492.875 379.21875 496.585938 379.21875 Z M 496.585938 379.21875 " fill-opacity="1" fill-rule="evenodd"/><path fill="#C5AA96" d="M 523.410156 399.230469 C 527.414062 399.230469 530.660156 402.476562 530.660156 406.480469 C 530.660156 410.480469 527.414062 413.730469 523.410156 413.730469 C 519.410156 413.730469 516.160156 410.480469 516.160156 406.480469 C 516.160156 402.476562 519.410156 399.230469 523.410156 399.230469 Z M 523.410156 399.230469 " fill-opacity="1" fill-rule="evenodd"/><path fill="#C5AA96" d="M 468.6875 392.210938 C 472.746094 392.210938 476.050781 395.515625 476.050781 399.578125 C 476.050781 403.636719 472.746094 406.941406 468.6875 406.941406 C 464.625 406.941406 461.320312 403.636719 461.320312 399.578125 C 461.320312 395.515625 464.625 392.210938 468.6875 392.210938 Z M 468.6875 392.210938 " fill-opacity="1" fill-rule="evenodd"/><path fill="#C5AA96" d="M 494.496094 408.277344 C 497.746094 408.277344 500.382812 410.917969 500.382812 414.164062 C 500.382812 417.414062 497.746094 420.050781 494.496094 420.050781 C 491.25 420.050781 488.609375 417.414062 488.609375 414.164062 C 488.609375 410.917969 491.25 408.277344 494.496094 408.277344 Z M 494.496094 408.277344 " fill-opacity="1" fill-rule="evenodd"/><path fill="#C5AA96" d="M 313.414062 379.21875 C 309.671875 379.21875 306.65625 382.261719 306.65625 385.976562 C 306.65625 389.714844 309.703125 392.734375 313.414062 392.734375 C 317.15625 392.734375 320.171875 389.6875 320.171875 385.976562 C 320.171875 382.234375 317.125 379.21875 313.414062 379.21875 Z M 313.414062 379.21875 " fill-opacity="1" fill-rule="evenodd"/><path fill="#C5AA96" d="M 286.617188 399.230469 C 282.617188 399.230469 279.367188 402.476562 279.367188 406.480469 C 279.367188 410.480469 282.617188 413.730469 286.617188 413.730469 C 290.621094 413.730469 293.867188 410.480469 293.867188 406.480469 C 293.867188 402.476562 290.621094 399.230469 286.617188 399.230469 Z M 286.617188 399.230469 " fill-opacity="1" fill-rule="evenodd"/><path fill="#C5AA96" d="M 341.34375 392.210938 C 337.28125 392.210938 333.976562 395.515625 333.976562 399.578125 C 333.976562 403.636719 337.28125 406.941406 341.34375 406.941406 C 345.402344 406.941406 348.707031 403.636719 348.707031 399.578125 C 348.707031 395.515625 345.402344 392.210938 341.34375 392.210938 Z M 341.34375 392.210938 " fill-opacity="1" fill-rule="evenodd"/><path fill="#C5AA96" d="M 315.53125 408.277344 C 312.285156 408.277344 309.644531 410.917969 309.644531 414.164062 C 309.644531 417.414062 312.285156 420.050781 315.53125 420.050781 C 318.78125 420.050781 321.417969 417.414062 321.417969 414.164062 C 321.417969 410.917969 318.78125 408.277344 315.53125 408.277344 Z M 315.53125 408.277344 " fill-opacity="1" fill-rule="evenodd"/><path fill="#C5AA96" d="M 405 243 C 449.75 243 490.234375 261.125 519.554688 290.445312 C 548.875 319.765625 567 360.28125 567 405 C 567 449.75 548.875 490.234375 519.554688 519.554688 C 490.234375 548.875 449.71875 567 405 567 C 360.25 567 319.765625 548.875 290.445312 519.554688 C 261.125 490.234375 243 449.71875 243 405 C 243 360.25 261.125 319.765625 290.445312 290.445312 C 319.765625 261.125 360.28125 243 405 243 Z M 514.074219 295.925781 C 486.175781 268.027344 447.601562 250.742188 405 250.742188 C 362.398438 250.742188 323.855469 268 295.925781 295.925781 C 268.027344 323.824219 250.742188 362.398438 250.742188 405 C 250.742188 447.601562 268 486.144531 295.925781 514.074219 C 323.824219 541.972656 362.398438 559.257812 405 559.257812 C 447.601562 559.257812 486.144531 542 514.074219 514.074219 C 541.972656 486.175781 559.257812 447.601562 559.257812 405 C 559.257812 362.398438 542 323.855469 514.074219 295.925781 Z M 514.074219 295.925781 " fill-opacity="1" fill-rule="nonzero"/></svg>