<svg width="425" height="430" viewBox="0 0 425 430" fill="none" xmlns="http://www.w3.org/2000/svg">
<mask id="mask0_3_253" style="mask-type:luminance" maskUnits="userSpaceOnUse" x="0" y="0" width="425" height="430">
<path d="M0 0H424.557V429.333H0V0Z" fill="white"/>
</mask>
<g mask="url(#mask0_3_253)">
<path d="M213.729 118.953C197.063 110.307 181.911 100.839 171.182 88.6302C160.656 76.625 155.167 61.6718 155.823 41.4271C158.156 24.3437 166.349 12.9948 183.833 8.97914C198.167 5.82289 210.375 7.70831 220.078 13.8125C229.99 19.9166 236.911 30.4479 240.307 44.5833C241.167 47.7396 241.781 50.8958 242.396 54.2969C246.411 73.6771 250.63 94.776 271.885 101.089C273.974 101.703 276.51 102.359 279.052 102.974C295.677 107.604 310.214 113.297 319.063 136.281C335.281 178.24 346.87 239.333 386.677 261.87C349.615 227.531 344.125 173.161 328.115 131.859C317.995 105.719 299.24 101.292 280.932 96.25C278.599 95.6354 276.51 94.9791 273.974 94.1614C256.693 89.125 252.922 70.151 249.318 53.0677C248.703 49.5 248.047 46.3021 247.229 42.9427C243.422 27.1302 235.229 14.9166 223.844 7.74997C212.667 0.781223 198.375 -1.30732 182.359 2.25518C164.052 6.27081 149.068 22.0468 146.568 40.6093C145.094 59.5781 153.531 79.1666 165.938 93.3021C177.323 106.578 193.339 116.286 210.578 125.344H210.781C235.438 136.531 245.958 116.495 248.297 96.25C241.948 110.552 235.396 128.458 213.729 118.953ZM215.203 234.047C198.99 254.286 174.536 273.464 166.141 301.078C175.849 284.443 202.141 258.917 219.422 239.536C237.318 219.75 241.13 202.865 244.078 180.536C247.641 152.714 246.167 127.229 272.948 114.568C248.745 117.109 241.375 147.224 236.089 175.25C231.422 199.672 230.974 214.214 215.203 234.047ZM386.839 323.573C367.88 338.12 341.953 344.021 322.786 343.365C272.865 341.276 245.714 304.807 203.781 301.656C186.089 300.177 171.141 305.219 161.432 314.932C154.474 320.828 150.047 324.641 145.828 323.984C141.818 323.573 137.599 319.151 131.495 309.437C125.396 299.729 115.281 294.281 104.344 292.146C77.3958 287.312 52.7448 296.37 47.4636 325.667C43.8958 346.318 57.1667 362.953 72.3177 373.729C59.0521 358.568 51.8854 341.687 54.4219 326.729C58.4375 305.464 83.5 295.547 103.073 299.115C112.125 300.792 120.563 305.219 125.599 313.25C132.766 324.844 138.458 330.339 144.969 331.156C151.484 332.016 157.172 326.937 166.021 319.766C176.75 309.849 188.995 310.052 203.083 311.12C251.734 314.932 274.917 347.792 321.682 349.88C343.88 350.781 375.047 338.328 386.839 323.573ZM51.1042 358.156C24.3646 371.635 8.76043 396.099 3.52084 407.245C-3.4427 421.792 2.04689 430.641 24.7708 427.693C51.1042 424.536 74.9011 415.031 97.875 407.656C134.938 395.651 165.896 383.646 207.38 393.969C177.896 375.406 129.245 391.021 96.1563 401.755C73.6302 409.13 51.2708 414.823 25.5938 417.979C11.9115 419.661 7.48959 416.708 10.849 409.745C21.2083 385.776 33.0052 373.318 51.1042 358.156ZM145.911 392.083C156.641 392.495 161.063 398.599 167.823 402.615C178.552 408.922 191.411 413.146 220.896 413.802C251 414.208 283.474 412.323 315.255 411.464C351.25 410.401 396.995 410.193 424.557 399.87C395.073 405.156 347.484 404.906 315.047 405.771C283.229 406.63 250.589 405.359 220.49 404.703C192.682 404.089 180.885 401.958 170.568 396.469C159.385 390.812 155.167 388.927 145.911 392.083ZM288.266 159.026C284.047 213.599 254.969 254.083 219.38 290.51C264.063 256.786 294.615 228.354 288.266 159.026ZM277.328 316.448C291.458 296 292.276 267.359 274.177 250.271C286.38 268.589 280.073 302.312 277.328 316.448ZM187.604 243.719C216.229 214.422 212.052 163 234.578 136.245C206.563 153.943 205.906 211.062 187.604 243.719ZM168.438 341.729C144.234 344.677 114.708 360.042 96.4011 370.37C83.3386 377.745 71.1302 383.026 57.0052 388.479C32.8021 398.187 45.6198 376.88 54.9167 364.469C37.0208 376.266 20.8021 411.672 57.6563 397.125C72.4011 391.224 86.0781 382.578 99.1458 375.406C122.526 362.172 144.849 349.719 168.438 341.729Z" fill="#C5AA96"/>
</g>
</svg>
