<svg width="299" height="432" viewBox="0 0 299 432" fill="none" xmlns="http://www.w3.org/2000/svg">
<path d="M289.188 49.375C282.901 43.0833 274.542 39.6302 265.656 39.6302H220.661V33.5521C220.661 27.5313 215.776 22.6458 209.76 22.6458H181.417C176.63 22.6458 172.406 19.5885 170.802 15.0677C167.688 6.29167 159.318 0 149.469 0C139.62 0 131.245 6.29167 128.13 15.0677C126.526 19.5885 122.313 22.6458 117.516 22.6458H89.1719C83.1563 22.6458 78.2708 27.5313 78.2708 33.5521V39.6302H33.276C24.3802 39.6302 16.0312 43.099 9.74479 49.375C3.45833 55.6667 0 64.0313 0 72.9167V398.708C0 407.609 3.46875 415.964 9.74479 422.25C16.0312 428.542 24.3958 432 33.276 432H265.646C274.542 432 282.891 428.542 289.177 422.25C295.464 415.964 298.922 407.594 298.922 398.708V72.9167C298.932 64.0208 295.474 55.6667 289.188 49.375ZM149.469 11.5885C157.089 11.5885 163.266 17.7708 163.266 25.3958C163.266 33.0208 157.089 39.2031 149.469 39.2031C141.849 39.2031 135.667 33.0208 135.667 25.3958C135.667 17.7708 141.849 11.5885 149.469 11.5885ZM287.964 398.708C287.964 411.016 277.948 421.036 265.646 421.036H33.276C20.974 421.036 10.9583 411.016 10.9583 398.708V72.9167C10.9583 60.6094 20.974 50.5885 33.276 50.5885H78.2708V53.1042C78.2708 59.125 83.1563 64.0104 89.1719 64.0104H209.76C215.776 64.0104 220.661 59.125 220.661 53.1042V50.5885H265.656C277.958 50.5885 287.974 60.6094 287.974 72.9167V398.708H287.964Z" fill="#C5AA96"/>
<path d="M241.229 110.151H143.938C140.526 110.151 137.766 112.911 137.766 116.323C137.766 119.734 140.526 122.495 143.938 122.495H241.229C244.641 122.495 247.401 119.734 247.401 116.323C247.401 112.911 244.641 110.151 241.229 110.151Z" fill="#C5AA96"/>
<path d="M74.6875 138.495C74.6146 138.495 74.5469 138.495 74.474 138.495C72.5886 138.438 70.8282 137.505 69.7084 135.984L53.3855 113.776C51.3698 111.026 51.9584 107.167 54.7084 105.146C57.4532 103.13 61.3125 103.719 63.3282 106.469L75.0157 122.365L103.526 88.5677H47.3021V144.104H108.682V101.609L79.4063 136.323C78.224 137.708 76.4896 138.495 74.6875 138.495Z" fill="#C5AA96"/>
<path d="M241.229 191.151H143.938C140.526 191.151 137.766 193.917 137.766 197.323C137.766 200.734 140.526 203.495 143.938 203.495H241.229C244.641 203.495 247.401 200.734 247.401 197.323C247.401 193.917 244.641 191.151 241.229 191.151Z" fill="#C5AA96"/>
<path d="M74.6875 219.51C74.6146 219.51 74.5469 219.51 74.474 219.51C72.5886 219.453 70.8282 218.521 69.7084 216.995L53.3855 194.786C51.3698 192.036 51.9584 188.177 54.7084 186.161C57.4532 184.141 61.3125 184.734 63.3282 187.484L75.0157 203.38L103.526 169.578H47.3021V225.115H108.682V182.599L79.4063 217.318C78.224 218.708 76.4896 219.51 74.6875 219.51Z" fill="#C5AA96"/>
<path d="M241.229 272.167H143.938C140.526 272.167 137.766 274.927 137.766 278.339C137.766 281.75 140.526 284.51 143.938 284.51H241.229C244.641 284.51 247.401 281.75 247.401 278.339C247.401 274.927 244.641 272.167 241.229 272.167Z" fill="#C5AA96"/>
<path d="M74.6875 300.526C74.6146 300.526 74.5469 300.526 74.474 300.526C72.5886 300.464 70.8282 299.531 69.7084 298.01L53.3855 275.802C51.3698 273.052 51.9584 269.193 54.7084 267.177C57.4532 265.156 61.3125 265.745 63.3282 268.495L75.0157 284.391L103.526 250.594H47.3021V306.13H108.682V263.635L79.4063 298.354C78.224 299.724 76.4896 300.526 74.6875 300.526Z" fill="#C5AA96"/>
<path d="M241.229 353.182H143.938C140.526 353.182 137.766 355.943 137.766 359.354C137.766 362.766 140.526 365.526 143.938 365.526H241.229C244.641 365.526 247.401 362.766 247.401 359.354C247.401 355.943 244.641 353.182 241.229 353.182Z" fill="#C5AA96"/>
<path d="M74.6875 381.536C74.6146 381.536 74.5469 381.536 74.474 381.536C72.5886 381.479 70.8282 380.547 69.7084 379.026L53.3855 356.818C51.3698 354.068 51.9584 350.208 54.7084 348.188C57.4532 346.172 61.3125 346.76 63.3282 349.51L75.0157 365.406L103.526 331.609H47.3021V387.146H108.682V344.625L79.4063 379.344C78.224 380.734 76.4896 381.536 74.6875 381.536Z" fill="#C5AA96"/>
</svg>
