<svg width="432" height="363" viewBox="0 0 432 363" fill="none" xmlns="http://www.w3.org/2000/svg">
<mask id="mask0_3_280" style="mask-type:luminance" maskUnits="userSpaceOnUse" x="0" y="0" width="432" height="363">
<path d="M0 0H432V362.896H0V0Z" fill="white"/>
</mask>
<g mask="url(#mask0_3_280)">
<path d="M248.859 353.354V265.031H172.797V353.349C172.797 353.974 172.734 354.599 172.615 355.214C172.49 355.828 172.307 356.427 172.068 357.01C171.828 357.589 171.536 358.141 171.187 358.661C170.839 359.188 170.443 359.672 170 360.115C169.557 360.563 169.073 360.958 168.552 361.307C168.031 361.656 167.479 361.953 166.901 362.198C166.323 362.438 165.724 362.62 165.109 362.745C164.495 362.87 163.87 362.932 163.245 362.938H62.7552C62.125 362.938 61.5 362.875 60.8854 362.75C60.2708 362.63 59.6719 362.448 59.0885 362.203C58.5104 361.964 57.9583 361.667 57.4323 361.318C56.9114 360.969 56.4271 360.573 55.9844 360.13C55.5364 359.682 55.1406 359.198 54.7917 358.677C54.4427 358.151 54.1458 357.599 53.9062 357.021C53.6667 356.438 53.4844 355.839 53.3594 355.224C53.2396 354.609 53.1771 353.984 53.1771 353.354V179.516C53.1771 179.052 53.2187 178.589 53.3125 178.135C53.401 177.677 53.5364 177.234 53.7135 176.802C53.8906 176.375 54.1094 175.969 54.3698 175.578C54.625 175.193 54.9219 174.833 55.25 174.505C55.5781 174.177 55.9375 173.885 56.3229 173.625C56.7083 173.37 57.1146 173.151 57.5469 172.974C57.9739 172.792 58.4167 172.661 58.875 172.568C59.3281 172.479 59.7917 172.432 60.2552 172.432C60.7187 172.432 61.1823 172.479 61.6354 172.568C62.0937 172.661 62.5364 172.792 62.9635 172.974C63.3958 173.151 63.8021 173.37 64.1875 173.625C64.5781 173.885 64.9323 174.177 65.2604 174.505C65.5885 174.833 65.8854 175.193 66.1406 175.578C66.401 175.969 66.6198 176.375 66.7969 176.802C66.9739 177.234 67.1094 177.677 67.1979 178.135C67.2917 178.589 67.3333 179.052 67.3333 179.516V348.76H158.635V260.448C158.635 259.818 158.698 259.193 158.823 258.578C158.943 257.964 159.125 257.365 159.37 256.781C159.609 256.203 159.901 255.651 160.255 255.125C160.604 254.604 161 254.12 161.443 253.672C161.891 253.229 162.37 252.833 162.896 252.484C163.417 252.135 163.969 251.839 164.552 251.599C165.13 251.354 165.729 251.172 166.344 251.052C166.964 250.927 167.583 250.865 168.214 250.865H253.484C254.115 250.865 254.734 250.927 255.354 251.052C255.969 251.172 256.568 251.354 257.151 251.599C257.729 251.839 258.281 252.135 258.802 252.484C259.328 252.833 259.812 253.229 260.255 253.672C260.698 254.12 261.099 254.604 261.448 255.125C261.797 255.651 262.089 256.203 262.333 256.781C262.573 257.365 262.755 257.964 262.875 258.578C263 259.193 263.062 259.818 263.062 260.448V348.76H354.365V179.516C354.365 179.052 354.406 178.589 354.5 178.135C354.589 177.677 354.724 177.234 354.901 176.802C355.078 176.375 355.297 175.969 355.557 175.578C355.813 175.193 356.109 174.833 356.438 174.505C356.766 174.177 357.125 173.885 357.51 173.625C357.896 173.37 358.302 173.151 358.734 172.974C359.161 172.792 359.604 172.661 360.063 172.568C360.516 172.479 360.979 172.432 361.443 172.432C361.906 172.432 362.37 172.479 362.823 172.568C363.281 172.661 363.724 172.792 364.151 172.974C364.583 173.151 364.99 173.37 365.375 173.625C365.76 173.885 366.12 174.177 366.448 174.505C366.776 174.833 367.073 175.193 367.328 175.578C367.589 175.969 367.807 176.375 367.984 176.802C368.161 177.234 368.297 177.677 368.385 178.135C368.479 178.589 368.521 179.052 368.521 179.516V353.354C368.521 353.984 368.458 354.609 368.339 355.224C368.214 355.839 368.031 356.438 367.792 357.021C367.552 357.599 367.255 358.151 366.906 358.677C366.557 359.198 366.161 359.682 365.714 360.125C365.271 360.573 364.786 360.969 364.266 361.318C363.74 361.667 363.188 361.964 362.609 362.203C362.026 362.448 361.427 362.63 360.813 362.75C360.198 362.875 359.573 362.938 358.943 362.938H258.448C257.818 362.938 257.193 362.875 256.578 362.75C255.958 362.63 255.359 362.448 254.781 362.208C254.198 361.969 253.646 361.672 253.125 361.323C252.599 360.974 252.115 360.573 251.672 360.13C251.224 359.688 250.828 359.203 250.479 358.677C250.13 358.156 249.833 357.604 249.594 357.021C249.349 356.443 249.167 355.844 249.047 355.224C248.922 354.609 248.859 353.984 248.859 353.354ZM419.495 186.406C419.844 186.755 420.224 187.063 420.635 187.333C421.047 187.604 421.484 187.828 421.943 188.005C422.401 188.182 422.87 188.313 423.354 188.391C423.844 188.474 424.328 188.5 424.823 188.479C425.313 188.458 425.797 188.385 426.276 188.266C426.75 188.141 427.208 187.969 427.651 187.75C428.089 187.531 428.505 187.271 428.891 186.969C429.276 186.661 429.63 186.323 429.943 185.943C430.26 185.563 430.531 185.156 430.76 184.724C430.995 184.286 431.177 183.833 431.313 183.365C431.448 182.891 431.531 182.406 431.568 181.917C431.604 181.427 431.589 180.938 431.521 180.448C431.458 179.958 431.339 179.484 431.177 179.021C431.01 178.557 430.797 178.115 430.542 177.698C430.281 177.276 429.984 176.891 429.646 176.531C429.307 176.177 428.938 175.859 428.531 175.578L221.927 2.90104C221.5 2.54167 221.042 2.22396 220.562 1.94792C220.078 1.67187 219.573 1.4375 219.052 1.24479C218.526 1.05729 217.99 0.911459 217.443 0.817708C216.896 0.71875 216.344 0.671875 215.786 0.671875C215.229 0.671875 214.677 0.71875 214.125 0.817708C213.578 0.911459 213.042 1.05729 212.516 1.24479C211.995 1.4375 211.49 1.67187 211.01 1.94792C210.526 2.22396 210.073 2.54167 209.646 2.90104L3.03645 175.578C2.68228 175.875 2.35936 176.203 2.06249 176.568C1.77082 176.932 1.52082 177.318 1.30207 177.729C1.08853 178.141 0.916653 178.568 0.781237 179.016C0.651028 179.464 0.567695 179.917 0.526029 180.38C0.484362 180.844 0.484361 181.307 0.536445 181.771C0.588528 182.229 0.682279 182.682 0.817695 183.13C0.958321 183.573 1.14061 184 1.35936 184.406C1.58332 184.818 1.84374 185.198 2.14061 185.557C2.44269 185.911 2.77082 186.234 3.1302 186.526C3.49478 186.823 3.8802 187.073 4.29165 187.292C4.70311 187.505 5.1354 187.677 5.57811 187.813C6.02603 187.943 6.47915 188.026 6.9427 188.068C7.40624 188.109 7.86978 188.109 8.33332 188.057C8.79165 188.01 9.24478 187.911 9.6927 187.776C10.1354 187.635 10.5625 187.453 10.9687 187.234C11.375 187.01 11.7604 186.75 12.1146 186.453L215.786 16.2188L419.495 186.406ZM283.474 23.8125H337.109V77.4635C337.109 77.9323 337.156 78.3906 337.245 78.849C337.339 79.3021 337.474 79.7448 337.651 80.1771C337.828 80.6042 338.047 81.0156 338.302 81.401C338.562 81.7865 338.854 82.1458 339.182 82.474C339.51 82.8021 339.87 83.0938 340.255 83.3542C340.646 83.6146 341.052 83.8281 341.479 84.0104C341.911 84.1875 342.354 84.3229 342.807 84.4115C343.266 84.5 343.724 84.5469 344.193 84.5469C344.656 84.5469 345.115 84.5 345.573 84.4115C346.026 84.3229 346.469 84.1875 346.901 84.0104C347.328 83.8281 347.74 83.6146 348.125 83.3542C348.51 83.0938 348.87 82.8021 349.198 82.474C349.526 82.1458 349.818 81.7865 350.078 81.401C350.333 81.0156 350.552 80.6042 350.729 80.1771C350.911 79.7448 351.042 79.3021 351.135 78.849C351.224 78.3906 351.271 77.9323 351.271 77.4635V19.2292C351.271 18.599 351.208 17.974 351.083 17.3594C350.964 16.7448 350.781 16.1458 350.542 15.5625C350.297 14.9844 350.005 14.4323 349.656 13.9063C349.302 13.3854 348.906 12.901 348.464 12.4531C348.016 12.0104 347.536 11.6146 347.01 11.2656C346.49 10.9167 345.938 10.6198 345.354 10.3802C344.776 10.1354 344.177 9.95313 343.563 9.83333C342.943 9.70833 342.323 9.64583 341.693 9.64583H283.474C283.01 9.64583 282.552 9.69271 282.094 9.78125C281.641 9.875 281.198 10.0052 280.766 10.1875C280.339 10.3646 279.927 10.5833 279.542 10.8385C279.156 11.099 278.797 11.3906 278.469 11.7188C278.141 12.0469 277.844 12.4063 277.589 12.7917C277.328 13.1823 277.109 13.5885 276.932 14.0208C276.755 14.4479 276.62 14.8906 276.531 15.349C276.437 15.8021 276.396 16.2656 276.396 16.7292C276.396 17.1927 276.437 17.6563 276.531 18.1094C276.62 18.5677 276.755 19.0104 276.932 19.4427C277.109 19.8698 277.328 20.276 277.589 20.6667C277.844 21.0521 278.141 21.4115 278.469 21.7396C278.797 22.0677 279.156 22.3594 279.542 22.6198C279.927 22.875 280.339 23.0938 280.766 23.276C281.198 23.4531 281.641 23.5833 282.094 23.6771C282.552 23.7656 283.01 23.8125 283.474 23.8125Z" fill="#C5AA96"/>
</g>
</svg>
