<svg width="493" height="508" viewBox="0 0 493 508" fill="none" xmlns="http://www.w3.org/2000/svg">
<path d="M302.802 275.4C300.547 275.4 298.427 276.452 297.068 278.244C295.708 280.041 295.26 282.358 295.859 284.53L316.115 357.436C324.911 389.067 313.901 422.603 288.083 442.89C258.599 466.051 217.417 466.056 187.901 442.879L185.339 440.863C160.958 421.707 149.557 389.78 156.286 359.525L173.036 284.166C173.5 282.03 172.984 279.801 171.625 278.103C170.25 276.395 168.188 275.4 166 275.4H22V289.801H157.021L142.219 356.4C134.297 392.025 147.734 429.624 176.448 452.192L179.01 454.207C196.375 467.858 217.182 474.676 237.995 474.676C258.802 474.676 279.609 467.848 296.974 454.212C327.375 430.332 340.328 390.832 329.979 353.587L312.266 289.801H454V275.4H302.802Z" fill="#C5AA96"/>
<path d="M169.573 348.374C167.057 367.556 173.047 386.801 185.995 401.176L188.833 404.332C201.354 418.249 219.281 426.233 238 426.233C256.719 426.233 274.646 418.249 287.167 404.332C301.917 387.957 307.516 365.416 302.172 344.03C284.26 272.332 290.776 195.587 320.542 127.947L352.589 55.103C354 51.9051 352.906 48.1551 349.995 46.2124C347.099 44.2749 343.219 44.6916 340.797 47.2332L266.87 124.671C238.552 154.332 215.865 188.478 199.427 226.155C198.25 228.869 198.849 232.03 200.943 234.124L213.417 246.603H196.354C193.286 246.603 190.552 248.546 189.557 251.442C181.755 273.942 176.245 297.223 173.193 320.655L169.573 348.374ZM183.849 350.238L187.464 322.525C190.177 301.744 194.901 281.077 201.526 261.009H230.802C233.708 261.009 236.344 259.254 237.453 256.567C238.568 253.874 237.948 250.775 235.891 248.718L214.62 227.442C230.203 193.082 251.271 161.879 277.292 134.613L322.896 86.8322L307.365 122.15C276.318 192.702 269.516 272.744 288.214 347.53C292.391 364.254 288.005 381.889 276.469 394.707C266.677 405.593 252.646 411.832 238 411.832C223.354 411.832 209.328 405.593 199.531 394.707L196.693 391.551C186.573 380.296 181.891 365.244 183.849 350.238Z" fill="#C5AA96"/>
<path d="M86.8021 239.4H180.401C183.307 239.4 185.943 237.645 187.052 234.957C188.167 232.264 187.552 229.171 185.49 227.113L120.693 162.311C119.01 160.634 116.615 159.889 114.281 160.322C111.948 160.764 109.979 162.311 109.021 164.478L80.2187 229.28C79.224 231.509 79.4323 234.082 80.7604 236.124C82.0833 238.171 84.3594 239.4 86.8021 239.4ZM117.917 179.91L163.021 224.999H97.8802L117.917 179.91Z" fill="#C5AA96"/>
</svg>
