<svg width="366" height="433" viewBox="0 0 366 433" fill="none" xmlns="http://www.w3.org/2000/svg">
<path d="M19.8626 125.758C23.1751 129.004 23.2168 134.29 20.0293 137.635C15.3939 142.503 10.873 149.589 15.7064 155.746C15.7064 155.746 5.5397 161.288 9.80012 169.6C9.80012 169.6 -10.6791 195.899 7.57095 208.902C25.8157 221.905 53.0553 220.767 58.9303 220.903C58.9303 220.903 94.1282 249.289 90.0605 297.941C90.0605 297.941 110.477 273.036 116.342 241.801C118.977 227.801 118.686 212.518 112.316 197.641C110.347 193.055 107.811 188.505 104.597 184.043C99.4772 176.926 94.8053 169.532 90.6803 161.877C73.6387 130.288 65.8366 94.4037 73.498 56.375C77.1907 38.0078 84.498 19.1343 96.1178 0C96.1178 0 96.1074 0.00521865 96.0918 0.0156539C94.9876 0.688774 55.3105 25.0776 52.5084 47.0349C51.0189 58.7179 54.498 66.9675 57.1907 74.3614C59.3366 80.2577 57.0293 86.8846 51.6491 90.1093C51.6178 90.1301 51.5866 90.1458 51.5501 90.1667C36.8053 98.9798 14.7324 105.085 12.0084 109.755C9.45116 114.148 14.8782 120.895 19.8626 125.758Z" fill="#C5AA96"/>
<path d="M108.139 91.3042C108.139 91.3042 108.472 91.5234 109.118 91.946C109.759 92.3635 110.727 92.9688 111.956 93.8036C113.191 94.6385 114.712 95.6665 116.498 96.8718C117.389 97.4875 118.347 98.1346 119.368 98.8338C120.384 99.5486 121.456 100.305 122.592 101.104C127.128 104.313 132.566 108.31 138.686 113.079C141.753 115.458 144.951 118.072 148.321 120.859C151.68 123.64 155.139 126.666 158.722 129.876C162.295 133.095 165.93 136.56 169.634 140.228C173.331 143.901 177.029 147.851 180.748 152.015C188.134 160.38 195.456 169.777 201.956 180.391C202.363 181.059 202.769 181.721 203.18 182.384C203.576 183.062 203.972 183.741 204.368 184.414C205.175 185.76 205.91 187.169 206.68 188.557C207.045 189.261 207.415 189.966 207.785 190.681C208.154 191.385 208.519 192.1 208.868 192.82C209.227 193.54 209.581 194.26 209.936 194.985C210.279 195.716 210.618 196.452 210.962 197.182C211.311 197.913 211.644 198.654 211.967 199.405C212.29 200.151 212.618 200.903 212.946 201.649C213.566 203.162 214.212 204.67 214.785 206.22C215.967 209.304 217.009 212.46 217.972 215.67C218.941 218.873 219.753 222.14 220.509 225.443C221.222 228.751 221.811 232.106 222.248 235.493C222.665 238.884 223.014 242.286 223.16 245.709L223.227 246.998L223.264 248.282L223.321 250.854C223.305 252.566 223.347 254.283 223.259 255.994C223.149 259.422 222.847 262.835 222.477 266.227C222.253 267.917 222.066 269.613 221.779 271.293C221.644 272.133 221.524 272.973 221.378 273.808L220.91 276.313C220.769 277.148 220.592 277.977 220.41 278.802L219.873 281.275C219.488 282.83 219.097 284.385 218.706 285.94C218.279 287.532 217.847 289.123 217.42 290.714C216.977 292.254 216.54 293.793 216.097 295.332C215.196 298.385 214.285 301.406 213.326 304.375C212.363 307.344 211.389 310.277 210.42 313.167C208.509 318.892 206.613 324.548 204.753 330.105C202.92 335.61 201.295 341.016 199.779 346.286C199.415 347.606 199.061 348.916 198.706 350.22L198.67 350.346C198.696 350.22 198.66 350.382 198.654 350.393L198.592 350.643L198.467 351.154L198.243 352.078C198.107 352.621 197.977 353.242 197.847 353.847C197.602 355.068 197.373 356.289 197.186 357.52C196.993 358.746 196.811 359.978 196.67 361.209C196.071 366.13 195.962 371.004 196.144 375.694C196.337 380.385 196.941 384.889 197.857 389.094C199.696 397.516 203.071 404.706 207.514 409.904C209.712 412.528 212.201 414.6 214.706 416.29C217.232 417.944 219.805 419.165 222.248 420.047C222.857 420.261 223.451 420.486 224.045 420.658C224.639 420.84 225.217 421.018 225.79 421.154C226.357 421.3 226.904 421.461 227.446 421.571C227.988 421.686 228.509 421.827 229.024 421.91C229.535 422.009 230.029 422.093 230.503 422.181C230.977 422.249 231.436 422.317 231.873 422.38C232.759 422.515 233.566 422.568 234.29 422.651C235.738 422.755 236.863 422.855 237.623 422.87C238.384 422.907 238.774 422.922 238.774 422.922L238.899 424.086C238.899 424.086 238.503 424.123 237.732 424.196C236.972 424.279 235.831 424.352 234.337 424.415C231.373 424.493 226.936 424.498 221.467 423.22C218.743 422.578 215.785 421.55 212.764 420.016C209.759 418.456 206.696 416.363 203.884 413.634C201.061 410.916 198.477 407.597 196.29 403.804C194.092 400.015 192.316 395.742 190.93 391.161C188.196 381.982 187.035 371.557 187.675 360.635C187.837 357.912 188.134 355.146 188.566 352.365C188.785 350.982 189.045 349.578 189.342 348.196C189.649 346.818 189.962 345.43 190.274 344.037C191.576 338.48 193.107 332.855 194.764 327.173C198.066 315.808 201.894 304.208 205.196 292.29C205.597 290.798 205.998 289.3 206.399 287.803C206.785 286.305 207.165 284.803 207.54 283.295C207.894 281.781 208.248 280.263 208.607 278.744L209.081 276.459C209.248 275.702 209.404 274.941 209.535 274.173L209.946 271.878C210.076 271.111 210.175 270.333 210.3 269.566C210.55 268.027 210.712 266.477 210.904 264.927C211.222 261.833 211.482 258.718 211.561 255.597C211.634 254.043 211.618 252.477 211.644 250.922L211.602 248.579L211.576 247.41L211.519 246.247C211.41 243.132 211.107 240.027 210.748 236.938C210.368 233.854 209.852 230.796 209.253 227.76C208.613 224.728 207.915 221.722 207.066 218.769C203.717 206.929 198.738 195.773 192.904 185.593C187.076 175.387 180.456 166.104 173.706 157.687C166.956 149.271 160.081 141.71 153.524 134.937C150.243 131.545 147.035 128.368 143.962 125.362C140.889 122.356 137.936 119.544 135.139 116.919C129.535 111.686 124.561 107.219 120.436 103.566C116.316 99.9191 113.045 97.0805 110.811 95.1551C108.571 93.2244 107.378 92.1965 107.378 92.1965L108.139 91.3042Z" fill="#C5AA96"/>
<path d="M151.8 18.9622C151.8 18.9622 152.139 19.2022 152.795 19.6561C153.451 20.1258 154.436 20.7937 155.691 21.7068C156.951 22.6147 158.498 23.7314 160.316 25.062C161.222 25.7299 162.201 26.4447 163.243 27.2066C164.279 27.9788 165.363 28.8137 166.519 29.6955C167.67 30.5722 168.894 31.4905 170.154 32.4767C171.415 33.4681 172.732 34.5065 174.102 35.5866C174.79 36.1293 175.488 36.6824 176.206 37.246C176.91 37.8199 177.628 38.4096 178.357 39.0096C179.811 40.2098 181.337 41.4412 182.889 42.7405C184.441 44.0398 186.029 45.4017 187.665 46.8001C189.29 48.2141 190.946 49.6856 192.66 51.1884C193.087 51.5641 193.514 51.9398 193.951 52.3259C194.373 52.7173 194.8 53.1086 195.232 53.5052C196.092 54.2983 196.962 55.0967 197.837 55.9107C199.613 57.523 201.368 59.2345 203.18 60.9669C205.014 62.6784 206.795 64.5308 208.639 66.3831C210.493 68.2251 212.316 70.1818 214.191 72.1542C217.925 76.1042 221.607 80.3726 225.357 84.8235C232.758 93.8088 239.998 103.895 246.43 115.13C246.633 115.479 246.847 115.823 247.04 116.184L247.623 117.253C248.008 117.968 248.399 118.688 248.785 119.408C249.17 120.128 249.561 120.854 249.951 121.574L250.519 122.664L251.055 123.781C251.774 125.278 252.488 126.776 253.206 128.279C253.383 128.655 253.571 129.03 253.738 129.411L254.238 130.564C254.566 131.337 254.894 132.109 255.227 132.881C256.607 135.954 257.748 139.164 258.956 142.362C259.264 143.16 259.503 143.985 259.764 144.809C260.019 145.623 260.279 146.443 260.54 147.267C260.795 148.091 261.055 148.916 261.311 149.74C261.446 150.147 261.555 150.57 261.665 150.987L261.993 152.245C262.436 153.925 262.873 155.611 263.316 157.296C263.696 158.997 264.035 160.719 264.399 162.43L264.93 165.008L265.331 167.617C265.571 169.36 265.857 171.103 266.071 172.851C266.232 174.614 266.399 176.373 266.561 178.137L266.68 179.457L266.743 180.119L266.769 180.782L266.873 183.438L266.972 186.094C266.998 186.981 267.061 187.868 267.029 188.755L266.936 194.072C266.93 195.846 266.743 197.61 266.613 199.374L266.399 202.025C266.326 202.906 266.279 203.788 266.144 204.66C265.915 206.413 265.675 208.161 265.446 209.904L265.269 211.213L265.18 211.871L265.061 212.518L264.576 215.106L264.087 217.694L263.837 218.983L263.717 219.625L263.654 219.948L263.602 220.204L263.566 220.35C263.191 221.947 262.811 223.538 262.436 225.13C262.014 226.794 261.592 228.448 261.17 230.108C260.738 231.72 260.3 233.327 259.868 234.934C258.977 238.128 258.076 241.29 257.133 244.405C256.18 247.515 255.222 250.583 254.264 253.625C252.363 259.636 250.488 265.574 248.639 271.418C246.826 277.21 245.196 282.893 243.691 288.439C243.316 289.827 242.972 291.21 242.618 292.577L242.482 293.094L242.451 293.224C242.425 293.334 242.451 293.214 242.436 293.277L242.373 293.548L242.123 294.612C241.988 295.233 241.852 295.792 241.722 296.459C241.456 297.743 241.232 299.037 241.029 300.331C240.826 301.625 240.639 302.925 240.482 304.219C240.175 306.807 239.972 309.395 239.868 311.941C239.764 314.493 239.774 317.013 239.837 319.486C239.904 321.96 240.066 324.391 240.326 326.755C240.581 329.124 240.946 331.425 241.357 333.658C243.061 342.607 246.248 350.361 250.597 356.08C251.675 357.515 252.821 358.83 254.024 360.004C255.232 361.173 256.472 362.227 257.738 363.166C260.269 365.039 262.91 366.38 265.404 367.393C266.035 367.648 266.654 367.857 267.258 368.081C267.873 368.269 268.472 368.468 269.055 368.635C269.644 368.786 270.217 368.958 270.774 369.094C271.337 369.224 271.883 369.355 272.41 369.469C274.529 369.892 276.378 370.116 277.894 370.247C279.399 370.362 280.576 370.45 281.368 370.461C282.16 370.487 282.566 370.503 282.566 370.503L282.696 371.666C282.696 371.666 282.285 371.703 281.482 371.786C280.686 371.87 279.493 371.953 277.936 372.016C276.378 372.063 274.456 372.058 272.196 371.885C269.941 371.687 267.342 371.322 264.524 370.534C261.706 369.751 258.649 368.572 255.597 366.777C254.071 365.885 252.545 364.841 251.055 363.646C249.566 362.446 248.123 361.084 246.743 359.581C243.982 356.576 241.498 352.965 239.415 348.905C237.331 344.846 235.66 340.327 234.373 335.511C233.087 330.689 232.201 325.555 231.712 320.212C231.222 314.869 231.128 309.306 231.493 303.619C231.686 300.77 231.982 297.889 232.436 294.993C232.54 294.268 232.675 293.537 232.8 292.807L233.008 291.732L233.118 291.184L233.232 290.641C233.54 289.201 233.837 287.751 234.16 286.295C235.451 280.482 236.967 274.591 238.607 268.637C241.878 256.725 245.66 244.551 248.92 232.054C249.316 230.489 249.712 228.923 250.113 227.353C250.488 225.782 250.863 224.206 251.238 222.63C251.592 221.039 251.946 219.447 252.295 217.851C252.587 216.259 252.878 214.662 253.17 213.071L253.613 210.671L253.722 210.071L253.8 209.465L253.951 208.255C254.154 206.642 254.368 205.025 254.571 203.407C254.696 202.604 254.727 201.79 254.795 200.976L254.967 198.539C255.076 196.911 255.253 195.288 255.238 193.655L255.347 188.766C255.383 187.952 255.331 187.143 255.311 186.324L255.227 183.887L255.154 181.44L255.133 180.829L255.081 180.224L254.972 179.008C254.837 177.39 254.696 175.768 254.555 174.15C254.368 172.538 254.113 170.936 253.899 169.329L253.561 166.923L253.102 164.539C252.795 162.952 252.498 161.366 252.175 159.79C251.79 158.225 251.404 156.659 251.019 155.099L250.732 153.93C250.644 153.539 250.545 153.153 250.42 152.772C250.196 152 249.962 151.238 249.732 150.466C249.508 149.699 249.279 148.932 249.05 148.17C248.821 147.408 248.613 146.636 248.337 145.889C247.274 142.889 246.285 139.873 245.061 136.967C244.769 136.236 244.472 135.506 244.18 134.775L243.748 133.679C243.592 133.325 243.425 132.965 243.264 132.61C242.623 131.18 241.982 129.756 241.342 128.336L240.868 127.272L240.347 126.228C240.003 125.534 239.66 124.845 239.311 124.151C238.967 123.463 238.623 122.774 238.279 122.08L237.764 121.052C237.587 120.708 237.399 120.374 237.217 120.04C231.436 109.218 224.894 99.2773 218.139 90.2658C211.368 81.2648 204.441 73.1456 197.826 65.8614C194.524 62.214 191.269 58.8014 188.16 55.5611C186.597 53.9539 185.087 52.3729 183.597 50.8597C182.092 49.3517 180.639 47.8906 179.222 46.4766C177.811 45.0573 176.415 43.7162 175.081 42.4013C173.753 41.0916 172.451 39.8445 171.201 38.6444C169.946 37.4495 168.748 36.3015 167.602 35.2005C166.446 34.1152 165.342 33.0768 164.295 32.0906C162.206 30.113 160.316 28.3806 158.68 26.8622C157.045 25.3437 155.644 24.0601 154.503 23.0217C152.227 20.9398 151.014 19.8283 151.014 19.8283L151.8 18.9622Z" fill="#C5AA96"/>
<path d="M146.56 208.808C146.56 208.808 146.67 209.079 146.889 209.601C147.097 210.133 147.436 210.906 147.821 211.933C148.212 212.956 148.696 214.224 149.264 215.711C149.837 217.193 150.462 218.915 151.133 220.846C152.498 224.707 154.055 229.429 155.665 234.919C156.488 237.663 157.264 240.601 158.076 243.716C158.883 246.837 159.628 250.145 160.373 253.625C161.107 257.1 161.743 260.763 162.347 264.578C162.93 268.402 163.373 272.394 163.727 276.542C164.076 280.691 164.196 284.996 164.149 289.452C164.128 293.903 163.748 298.489 163.113 303.196C162.779 305.544 162.404 307.923 161.847 310.308C161.326 312.698 160.68 315.098 159.925 317.504C159.186 319.914 158.295 322.315 157.295 324.704C156.279 327.089 155.097 329.437 153.795 331.743C153.154 332.902 152.441 334.029 151.732 335.166C150.993 336.278 150.258 337.4 149.451 338.48C148.67 339.576 147.826 340.63 146.972 341.678C146.087 342.701 145.201 343.734 144.258 344.705C143.342 345.702 142.352 346.636 141.378 347.575C140.378 348.488 139.378 349.412 138.326 350.262C137.3 351.144 136.217 351.947 135.149 352.777C134.055 353.549 132.977 354.363 131.842 355.073C127.342 358 122.592 360.354 117.795 362.3L117.342 362.488L116.831 362.686L116.029 362.994L114.42 363.604C113.243 364.017 112.066 364.424 110.894 364.836C109.753 365.206 108.607 365.582 107.472 365.953C106.337 366.307 105.212 366.657 104.081 367.007C102.962 367.341 101.847 367.674 100.732 368.003C99.6178 368.321 98.5188 368.655 97.4095 368.958C95.222 369.542 93.0397 370.127 90.8782 370.706C86.649 371.844 82.4772 372.971 78.373 374.077C74.3417 375.188 70.4824 376.404 66.7845 377.636L66.0917 377.865L66.0032 377.896C66.3417 377.745 66.0449 377.876 66.097 377.85L65.9147 377.917L65.5501 378.058L64.8261 378.33L64.4615 378.465L64.2897 378.533L64.1595 378.585C63.8157 378.726 63.472 378.867 63.1334 379.008C62.9667 379.065 62.7688 379.164 62.5813 379.248L62.0084 379.519C61.2376 379.858 60.5084 380.281 59.7584 380.657C59.0345 381.085 58.2792 381.46 57.5865 381.92C56.149 382.77 54.8261 383.746 53.5449 384.727C53.2324 384.982 52.9251 385.243 52.6178 385.494L52.1595 385.88L51.7272 386.282C51.4355 386.548 51.149 386.809 50.8522 387.07C50.5761 387.341 50.3001 387.612 50.024 387.884C49.4563 388.416 48.9824 388.995 48.4667 389.548C48.2011 389.825 47.998 390.122 47.7584 390.409C47.5345 390.696 47.2897 390.978 47.0761 391.275C46.2376 392.449 45.4459 393.639 44.8209 394.855C44.6647 395.152 44.4928 395.455 44.3417 395.763C44.2115 396.071 44.0761 396.379 43.9459 396.681C43.6438 397.292 43.472 397.918 43.248 398.539C43.1959 398.69 43.1282 398.841 43.0917 398.998L42.9772 399.468C42.8938 399.781 42.8157 400.094 42.7324 400.402C42.5917 401.028 42.5136 401.654 42.3886 402.275C42.3053 402.901 42.274 403.522 42.2115 404.148C42.1907 404.769 42.2167 405.39 42.2063 406.006C42.2897 407.237 42.399 408.458 42.6438 409.643C42.6959 409.94 42.7376 410.243 42.8053 410.535C42.8834 410.827 42.9615 411.114 43.0397 411.401C43.1126 411.693 43.1907 411.986 43.2688 412.267L43.3782 412.695L43.5292 413.113C43.7272 413.666 43.9251 414.219 44.1126 414.751C44.2011 415.028 44.3105 415.289 44.4303 415.549C44.5449 415.81 44.6595 416.066 44.7688 416.322C45.0032 416.833 45.1959 417.355 45.4511 417.835C45.7063 418.32 45.9615 418.79 46.2063 419.254C46.6751 420.199 47.222 421.06 47.722 421.884C47.9772 422.296 48.2115 422.714 48.4667 423.095C48.7324 423.47 48.9928 423.841 49.2428 424.201C49.4876 424.566 49.7272 424.916 49.9563 425.255C50.1855 425.604 50.4147 425.933 50.6542 426.231C51.1282 426.846 51.5605 427.415 51.9615 427.937C52.1647 428.203 52.3574 428.448 52.5397 428.693C52.722 428.928 52.9147 429.137 53.0865 429.341C53.7949 430.155 54.3157 430.807 54.6751 431.24C55.0345 431.673 55.222 431.903 55.222 431.903L54.4876 432.81C54.4876 432.81 53.597 432.07 51.9251 430.666C51.7167 430.494 51.4876 430.316 51.2636 430.113C51.0397 429.899 50.8053 429.685 50.5605 429.455C50.0709 428.996 49.5345 428.495 48.9563 427.958C48.6595 427.692 48.373 427.399 48.0813 427.086C47.7897 426.784 47.4824 426.46 47.1699 426.131C46.8574 425.803 46.5292 425.464 46.1959 425.119C45.8678 424.764 45.5605 424.368 45.2272 423.982C44.5709 423.199 43.8522 422.395 43.2063 421.456C42.873 421.002 42.5292 420.533 42.1803 420.058C41.8313 419.572 41.5292 419.045 41.1959 418.524C39.847 416.447 38.6438 414.015 37.7011 411.292C36.7584 408.563 36.1386 405.494 36.1438 402.228C36.1386 398.961 36.8053 395.538 38.0917 392.215C38.7115 390.54 39.5605 388.927 40.472 387.32C40.7063 386.924 40.972 386.537 41.2167 386.146C41.4772 385.76 41.7063 385.348 41.998 384.977C42.5553 384.226 43.0917 383.443 43.7167 382.718C44.0188 382.347 44.3261 381.982 44.6334 381.612C44.9563 381.257 45.2845 380.897 45.6126 380.542L46.1022 380.005L46.623 379.488C46.972 379.149 47.3209 378.81 47.6699 378.46C49.1178 377.135 50.623 375.82 52.2688 374.64C53.0657 374.02 53.9303 373.482 54.774 372.898C55.649 372.365 56.5084 371.797 57.4251 371.306C57.8834 371.061 58.3261 370.79 58.8001 370.56C59.274 370.32 59.7428 370.085 60.222 369.85C60.6959 369.61 61.1647 369.422 61.6386 369.203L62.1699 368.969L62.2792 368.916L62.3678 368.885L63.097 368.588C66.9772 366.991 71.0084 365.546 75.1282 364.178C83.373 361.449 91.9876 359.039 100.597 356.231C101.665 355.871 102.743 355.511 103.821 355.157C104.889 354.776 105.962 354.4 107.034 354.024C108.097 353.633 109.159 353.236 110.227 352.84C111.279 352.422 112.383 352.01 113.409 351.577C117.592 349.839 121.659 347.773 125.441 345.268C126.399 344.663 127.31 343.99 128.243 343.348C129.139 342.659 130.06 341.997 130.92 341.266C131.805 340.562 132.639 339.8 133.482 339.043C134.3 338.266 135.128 337.499 135.894 336.674C136.691 335.881 137.425 335.02 138.175 334.185C138.889 333.314 139.618 332.458 140.279 331.556C140.977 330.674 141.602 329.74 142.243 328.827C142.852 327.887 143.467 326.948 144.024 325.983C148.587 318.292 151.305 309.755 152.837 301.344C153.238 299.235 153.524 297.127 153.795 295.04C154.029 292.948 154.243 290.871 154.373 288.805C154.659 284.683 154.743 280.628 154.685 276.683C154.576 268.794 153.962 261.332 153.17 254.476C152.774 251.047 152.321 247.771 151.878 244.65C151.441 241.535 150.972 238.582 150.514 235.816C149.597 230.275 148.696 225.453 147.93 221.493C147.159 217.532 146.529 214.422 146.092 212.304C145.649 210.185 145.415 209.058 145.415 209.058L146.56 208.808Z" fill="#C5AA96"/>
<path d="M217.503 1.03317C217.503 1.03317 217.857 1.30451 218.529 1.83152C219.201 2.36898 220.217 3.14124 221.508 4.19005C222.805 5.22843 224.394 6.51205 226.258 8.04092C227.196 8.80796 228.196 9.62718 229.269 10.5038C230.326 11.3961 231.446 12.3405 232.633 13.3424C233.811 14.3495 235.071 15.393 236.368 16.5254C237.654 17.6524 239.003 18.8421 240.415 20.0736C241.113 20.6945 241.837 21.3207 242.566 21.9729C243.285 22.6252 244.019 23.2931 244.769 23.9766C246.258 25.3437 247.826 26.7369 249.404 28.2241C250.993 29.7007 252.618 31.2348 254.285 32.8315C255.936 34.4387 257.633 36.098 259.383 37.799C261.118 39.5105 262.852 41.316 264.649 43.1423C266.441 44.9842 268.227 46.9044 270.081 48.8559C271.014 49.8213 271.915 50.8388 272.831 51.8563C273.743 52.879 274.67 53.9122 275.607 54.9558C277.462 57.0482 279.305 59.2293 281.212 61.4313C282.154 62.5427 283.081 63.6854 284.008 64.8334C284.941 65.9866 285.889 67.1397 286.826 68.3242C287.743 69.5191 288.675 70.7193 289.607 71.9351C290.54 73.1456 291.498 74.3614 292.404 75.6242C294.243 78.1445 296.123 80.6804 297.894 83.3572C298.79 84.6878 299.696 86.0236 300.602 87.3646C301.477 88.737 302.352 90.1197 303.238 91.5077C304.123 92.8957 305.024 94.2837 305.857 95.7343C306.691 97.1796 307.535 98.6302 308.383 100.091C308.592 100.457 308.811 100.811 309.014 101.182L309.613 102.304C310.019 103.055 310.42 103.806 310.821 104.558C311.227 105.309 311.633 106.061 312.035 106.817L312.649 107.955C312.847 108.336 313.029 108.727 313.217 109.113C314.732 112.218 316.342 115.312 317.691 118.568C318.04 119.377 318.394 120.186 318.748 120.994C319.097 121.803 319.462 122.612 319.774 123.442C320.42 125.101 321.066 126.766 321.717 128.43C322.394 130.089 322.93 131.811 323.529 133.512C323.826 134.368 324.113 135.224 324.41 136.08L324.847 137.363C324.998 137.796 325.107 138.235 325.243 138.668C325.748 140.421 326.248 142.174 326.753 143.933L327.128 145.253L327.451 146.589C327.665 147.481 327.878 148.373 328.092 149.271C328.305 150.168 328.519 151.06 328.732 151.963C328.837 152.412 328.951 152.855 329.045 153.309L329.305 154.671C329.654 156.492 329.998 158.313 330.347 160.135C330.535 161.048 330.654 161.971 330.785 162.89L331.17 165.66C331.41 167.508 331.696 169.355 331.821 171.223C331.977 173.086 332.133 174.954 332.29 176.822C332.389 177.756 332.389 178.69 332.43 179.629L332.529 182.436C332.592 184.315 332.691 186.188 332.623 188.066L332.535 193.697C332.529 194.636 332.436 195.575 332.378 196.509L332.175 199.311L331.967 202.113C331.93 202.583 331.91 203.052 331.852 203.517L331.68 204.91C331.456 206.762 331.227 208.62 331.003 210.467L330.826 211.866C330.769 212.325 330.675 212.779 330.602 213.243L329.654 218.743L329.415 220.11L329.295 220.799L329.248 221.054L329.212 221.216L329.144 221.534L328.592 224.102L328.316 225.38C328.222 225.808 328.128 226.236 328.024 226.69C327.613 228.459 327.206 230.254 326.79 232.002C326.363 233.729 325.93 235.456 325.508 237.178C324.628 240.611 323.748 244.008 322.821 247.363C321.878 250.708 320.93 254.022 319.988 257.304C318.107 263.805 316.253 270.229 314.425 276.542C312.623 282.809 311.008 288.966 309.493 294.972C309.097 296.475 308.769 297.967 308.41 299.455C308.243 300.18 308.076 300.905 307.91 301.625L307.66 302.768L307.456 303.765C307.191 305.127 306.941 306.556 306.727 307.955C306.508 309.364 306.311 310.772 306.139 312.176C305.8 314.988 305.561 317.785 305.425 320.551C305.29 323.322 305.264 326.051 305.279 328.738C305.305 331.43 305.42 334.071 305.633 336.648C305.847 339.231 306.16 341.746 306.519 344.199C308.003 353.988 310.904 362.644 315.061 369.25C317.123 372.569 319.54 375.308 322.055 377.547C324.592 379.775 327.29 381.408 329.889 382.629C330.545 382.911 331.18 383.214 331.826 383.443C332.149 383.568 332.462 383.683 332.779 383.808C333.092 383.913 333.404 384.007 333.717 384.111C334.024 384.205 334.326 384.32 334.628 384.403C334.93 384.492 335.232 384.581 335.529 384.664C336.118 384.842 336.701 384.962 337.258 385.092C337.54 385.155 337.816 385.228 338.087 385.28C338.363 385.332 338.628 385.379 338.894 385.426C339.42 385.52 339.925 385.619 340.42 385.671C340.904 385.739 341.373 385.802 341.821 385.859C342.269 385.901 342.696 385.943 343.097 385.974C343.904 386.057 344.623 386.068 345.243 386.115C345.863 386.156 346.394 386.162 346.816 386.167C347.665 386.183 348.102 386.188 348.102 386.188L348.243 387.351C348.243 387.351 347.8 387.398 346.946 387.492C346.514 387.539 345.982 387.597 345.347 387.633C344.712 387.664 343.977 387.738 343.139 387.743C342.722 387.748 342.279 387.758 341.811 387.769C341.347 387.758 340.852 387.748 340.342 387.738C339.826 387.738 339.29 387.696 338.727 387.654C338.451 387.633 338.165 387.618 337.868 387.597C337.581 387.576 337.279 387.534 336.982 387.498C334.566 387.237 331.8 386.715 328.821 385.708C325.852 384.69 322.68 383.161 319.597 380.949C316.519 378.737 313.529 375.867 310.899 372.381C308.258 368.895 305.951 364.836 304.04 360.348C302.113 355.866 300.607 350.946 299.456 345.738C298.311 340.525 297.535 335.02 297.144 329.291C296.748 323.562 296.722 317.613 297.149 311.524C297.368 308.476 297.701 305.398 298.18 302.298L298.363 301.124L298.561 299.971C298.701 299.183 298.857 298.427 299.003 297.649C299.305 296.099 299.587 294.539 299.93 292.979C301.217 286.733 302.717 280.393 304.337 273.975C307.571 261.144 311.285 248 314.498 234.538C314.889 232.847 315.285 231.162 315.675 229.466C316.055 227.775 316.415 226.079 316.785 224.384C317.149 222.677 317.477 220.955 317.826 219.239C318.149 217.543 318.41 215.81 318.706 214.094L319.133 211.516C319.206 211.083 319.29 210.655 319.342 210.222L319.493 208.923C319.696 207.185 319.899 205.453 320.102 203.715L320.253 202.411C320.305 201.978 320.316 201.539 320.352 201.101L320.529 198.487L320.706 195.867C320.758 194.996 320.842 194.124 320.837 193.248C320.878 189.752 321.066 186.251 320.883 182.76L320.805 180.14C320.774 179.264 320.779 178.392 320.691 177.521C320.555 175.783 320.42 174.046 320.285 172.308C320.186 170.565 319.915 168.843 319.706 167.116L319.378 164.528C319.269 163.672 319.17 162.806 319.003 161.956C318.701 160.249 318.399 158.538 318.102 156.837L317.878 155.558C317.795 155.136 317.691 154.713 317.597 154.296C317.41 153.45 317.222 152.615 317.035 151.775C316.842 150.93 316.654 150.09 316.467 149.255L316.186 147.992L315.847 146.756C315.399 145.096 314.946 143.447 314.498 141.799C314.383 141.381 314.285 140.969 314.154 140.562L313.769 139.341C313.508 138.532 313.248 137.718 312.988 136.909C312.462 135.297 311.998 133.664 311.389 132.083C310.811 130.496 310.227 128.915 309.654 127.334C309.378 126.541 309.05 125.774 308.732 124.997C308.41 124.224 308.097 123.447 307.779 122.675C306.561 119.565 305.133 116.575 303.779 113.58C303.607 113.204 303.446 112.828 303.269 112.458L302.722 111.357C302.352 110.626 301.988 109.896 301.628 109.171C301.264 108.435 300.904 107.71 300.54 106.984L299.993 105.899C299.811 105.534 299.613 105.184 299.42 104.829C297.868 101.991 296.404 99.1468 294.769 96.4335C293.972 95.0664 293.175 93.7045 292.389 92.353C291.561 91.0224 290.732 89.7023 289.915 88.3873C288.316 85.7418 286.571 83.2215 284.92 80.696C278.191 70.6723 271.191 61.6243 264.488 53.4791C262.795 51.4597 261.16 49.4664 259.514 47.5462C257.863 45.6365 256.253 43.7684 254.686 41.9526C253.087 40.1524 251.535 38.3939 250.024 36.6876C248.493 35.0022 247.008 33.3638 245.566 31.7775C239.758 25.469 234.607 20.0423 230.3 15.6331C228.16 13.4154 226.227 11.4639 224.545 9.76285C222.868 8.05657 221.43 6.61119 220.264 5.44758C217.93 3.10993 216.68 1.86283 216.68 1.86283L217.503 1.03317Z" fill="#C5AA96"/>
</svg>
