<svg width="314" height="432" viewBox="0 0 314 432" fill="none" xmlns="http://www.w3.org/2000/svg">
<mask id="mask0_1_12" style="mask-type:luminance" maskUnits="userSpaceOnUse" x="0" y="0" width="314" height="432">
<path d="M0 0H313.333V432H0V0Z" fill="white"/>
</mask>
<g mask="url(#mask0_1_12)">
<path d="M273.974 431.948C273.964 431.943 273.974 431.99 273.969 432.005C273.984 432.005 273.974 431.964 273.974 431.948ZM312.849 191.609C312.771 185.906 312.51 180.109 310.755 174.641C309.078 169.401 306.906 164.089 302.984 160.115C299.505 156.734 295.214 153.948 290.484 152.75C284.313 151.391 277.682 153.271 271.943 155.562C268.552 157.057 265.276 158.802 262.099 160.708C261.896 159.812 261.677 158.917 261.453 158.036C260.229 153.203 258.167 148.552 255.01 144.677C251.901 140.661 247.625 137.807 243.167 135.49C233.484 129.995 220.922 129.245 210.995 134.495C211.724 130.583 212.167 126.62 212.203 122.583C212.396 116.115 211.542 109.469 208.469 103.682C205.333 98.1771 199.208 94.3542 193.412 92.1198C189.417 90.724 185.193 90.1146 181.01 89.5365C172.359 88.1302 164.927 91.3281 158.828 96.6719C160.51 88.5677 161.078 80.2448 160.771 71.9583C160.599 67.3906 159.984 62.7917 158.406 58.4792C157.427 55.7708 156.005 53.151 153.854 51.1927C149.25 47.1562 143.141 45.4896 137.297 44.1614C134.458 43.5312 131.578 42.9739 128.667 43.0364C121.912 43.25 115.646 46.2552 110.109 49.9844C105.896 52.9531 102.604 57.0156 99.7813 61.2812C93.3021 70.8385 89.4948 81.9792 86.8907 93.2031C83.3646 108.708 81.1771 124.479 78.5365 140.156C77.5938 146.62 76.5001 153.083 75.1459 159.484C74.4167 148.604 72.7344 137.974 66.4532 128.755C66.349 128.615 66.2344 128.474 66.1303 128.328C69.6459 122.849 72.1251 115.349 72.5938 110.047C74.0313 93.7917 69.3126 73.5208 62.4063 58.8281C58.198 49.8906 52.6355 41.2344 44.2969 35.6667C38.4011 31.4844 29.6615 28.1771 23.1407 31.4375C23.0573 28.5469 22.9376 25.6615 22.8073 22.7812C22.3959 15.8073 21.6146 8.84374 20.9844 1.87499C20.6823 1.79687 20.3855 1.72395 20.0938 1.65624C15.349 0.499991 11.4376 0.0208253 7.04172 0.401033L6.86985 0.41145C6.79172 0.421866 6.70839 0.427074 6.63026 0.437492C6.48964 0.453117 6.34901 0.463533 6.19797 0.479158C6.09901 0.489576 5.99485 0.505199 5.89589 0.515617C5.75526 0.531242 5.61464 0.546867 5.47401 0.5677C5.43755 0.697909 5.39589 0.828117 5.35422 0.963533C5.31776 1.09374 5.2761 1.22395 5.23964 1.35937C4.68755 3.21874 4.20318 5.09374 3.7761 6.98437C1.42714 17 1.04693 27.3177 1.51047 37.5833C1.77089 45.1302 2.16672 52.6667 2.91151 60.1823C3.39068 65.1198 3.73443 70.0781 4.52089 74.9792C5.03131 77.7552 5.51047 81.3177 7.94276 82.9896C5.57818 93.2448 2.7136 103.401 1.07297 113.807C-1.57807 136.635 4.97401 159.141 7.47401 181.698C10.1771 205.443 11.2813 229.349 13.2188 253.156C14.3282 270.667 15.1615 288.448 19.1563 305.635C22.4948 320.87 28.7501 335.255 36.0209 348.995C43.7865 363.328 51.5417 377.714 60.3021 391.469C65.4428 399.604 71.5105 407.339 74.8073 416.458C72.2448 408.297 68.1198 400.677 64.0834 393.146C58.7657 383.339 53.7605 373.359 48.224 363.667C40.599 350.161 33.0001 336.521 27.7709 321.875C21.724 304.531 19.5886 286.151 18.5313 267.891C17.7136 251.906 16.4688 235.943 15.3386 219.974C14.4844 206.307 13.7292 192.521 12.0782 178.901C10.7813 167.563 8.87505 156.312 7.01047 145.062C5.33339 134.922 4.88026 124.526 6.13026 114.312C6.9011 108.833 8.44276 103.505 9.82297 98.1615C11.1355 93.1875 12.3855 88.2031 13.4167 83.1667C16.1198 81.6146 17.7292 77.7708 18.6198 74.8854C19.4167 72.5885 20.1615 70.2708 20.6511 67.8854C22.9063 57.474 23.3907 46.8281 23.2396 36.1823C25.1146 34.625 27.5053 34.1146 30.0053 34.3073C34.7396 34.6719 39.0573 36.9323 42.9323 39.5417C58.9428 50.2292 66.4949 74.1146 69.3386 92.3854C70.2449 99.0573 70.5001 105.865 69.7448 112.562C69.3126 115.776 68.4219 118.896 67.3803 121.953C66.7657 123.724 66.073 125.5 65.2501 127.193C65.2501 127.193 64.6511 128.474 64.0157 129.474C62.5834 131.854 60.7761 133.974 58.3803 135.562C58.0886 135.76 57.7449 135.974 57.4688 136.161C59.073 135.365 60.6094 134.417 61.9792 133.25C62.8594 132.51 63.7136 131.609 64.5209 130.583C69.7969 142.646 70.7292 159.818 72.0521 172.177C72.0678 172.292 72.0782 172.411 72.0886 172.531C72.1146 172.786 72.1459 173.052 72.1771 173.302C72.2032 173.578 72.2396 173.849 72.2657 174.115C72.2761 174.198 72.2865 174.281 72.2969 174.365C72.3178 174.563 72.3438 174.76 72.3698 174.958C72.3751 175.01 72.3803 175.057 72.3855 175.109C72.4271 175.401 72.4584 175.693 72.5001 175.979C72.5365 176.266 72.5782 176.547 72.6146 176.828C72.6355 176.969 72.6511 177.104 72.6719 177.245C72.6876 177.344 72.7032 177.443 72.7136 177.542C72.7657 177.854 72.8074 178.151 72.8542 178.453C76.4532 200.51 81.8021 222.286 85.3699 244.391C84.099 225.047 80.6511 205.953 77.2084 186.901C76.2969 181.51 75.9584 175.922 75.698 170.297C76.4688 168.187 77.1563 166.036 77.7605 163.865C79.573 157.781 80.3855 151.484 81.3594 145.24C83.8126 129.552 85.7396 113.776 88.7448 98.1823C91.4688 84.6562 95.8751 71.1458 104.24 60.0052C109.234 53.3125 117.51 47.4375 125.859 46.151C130.188 45.4948 134.542 46.5312 138.708 47.6562C142.073 48.6354 145.406 49.7656 148.578 51.2864C150.182 52.0937 151.724 53.0781 152.927 54.4271C155.318 57.2187 156.573 60.8125 157.391 64.3542C159.224 76.2031 157.344 88.2604 155.438 99.9948C154.682 100.823 153.953 101.682 153.25 102.557C146.641 111.036 142.693 121.203 139.641 131.427C138.156 136.417 136.646 141.396 135.198 146.396C135.109 145.578 134.99 144.76 134.839 143.953C134.448 141.771 133.865 139.589 132.745 137.661C130.464 133.865 126.708 131.099 122.74 129.24C119.667 128.057 116.224 127.792 113.01 128.521C109.76 129.318 106.641 130.839 104.078 132.995C101.354 135.38 99.1459 138.448 97.8646 141.854C96.4063 146.016 95.6094 150.391 94.7657 154.708C93.5678 161.036 92.7188 167.427 92.2448 173.844C91.7553 172.859 91.323 171.849 90.9584 170.823C88.3178 163.578 88.8751 155.719 89.3126 148.156C89.7292 141.839 90.2501 135.526 91.0261 129.234C90.2501 132.974 89.6407 136.802 88.8803 140.568C87.5573 146.943 86.4167 153.411 86.5157 159.943C86.4584 166.932 88.1876 173.484 91.9323 179.208C91.8282 181.854 91.7813 184.5 91.8073 187.146C91.8751 191.438 92.0521 195.771 92.2605 200.073C92.2761 200.276 92.2813 200.474 92.2969 200.677C92.4844 200.74 92.6823 200.807 92.8855 200.87C96.0001 201.911 99.0678 203.099 102.255 203.922C108.193 205.354 114.26 206.229 120.349 206.62C119.307 211.536 118.307 216.464 117.359 221.411C115.094 232.521 112.448 243.578 110.563 254.766C109.964 258.88 109.792 263.052 109.896 267.203C109.964 270.427 110.344 273.677 111.526 276.708C111.568 276.823 111.609 276.938 111.662 277.047C111.292 278.911 110.932 280.792 110.578 282.682C109.453 289.479 108.646 296.328 107.583 303.135C107.563 303.245 107.547 303.359 107.526 303.469C107.609 303.635 107.682 303.807 107.766 303.974C113.104 307.047 118.589 309.969 124.276 312.339C130.302 314.87 136.662 316.526 143.135 317.385C143.177 317.391 143.219 317.391 143.26 317.401C143.505 317.432 143.745 317.469 143.984 317.495C144.089 317.219 144.193 316.943 144.292 316.661C145.734 312.714 147.224 308.786 148.516 304.797C148.729 308.578 149.276 312.432 150.885 315.797C150.005 318.354 149.146 320.911 148.354 323.5C147.422 326.615 146.531 329.745 145.662 332.875L145.49 333.5C145.844 333.698 146.188 333.896 146.542 334.094C146.906 334.302 147.276 334.505 147.641 334.714C150.849 336.521 153.974 338.141 157.401 339.62C160.974 341.188 164.688 342.474 168.474 343.474C172.266 344.479 176.141 345.188 180.042 345.604C180.078 345.609 180.109 345.609 180.151 345.62C180.188 345.62 180.229 345.625 180.266 345.625C180.688 345.672 181.115 345.714 181.531 345.745C181.589 345.62 181.646 345.495 181.703 345.37C181.781 345.214 181.859 345.047 181.932 344.88C182.01 344.724 182.089 344.557 182.162 344.391C185.276 337.667 188.099 330.813 190.818 323.917C191.896 323.135 192.938 322.255 193.932 321.281C197.583 317.635 200.724 313.526 203.557 309.219C211.854 296.552 216 281.802 221.958 268C222.448 266.833 222.938 265.661 223.422 264.49C223.818 264.448 224.219 264.396 224.615 264.333C240.068 261.927 252.563 250.151 263.354 239.583C269.24 233.542 274.719 227.115 280.51 220.979C283.583 217.781 286.62 214.641 290.365 212.188C291.177 211.646 292 211.12 292.844 210.625C291.208 211.313 289.599 212.151 288.037 213.026C284.615 214.932 281.12 216.781 278.141 219.365C263.516 231.354 252.698 248.016 235.703 257C232.469 258.656 228.708 260.135 224.912 260.839C224.776 260.87 224.635 260.891 224.495 260.911C224.365 260.938 224.234 260.964 224.104 260.984C224.083 260.99 224.073 260.99 224.052 260.99C223.938 261.005 223.828 261.026 223.714 261.042C223.698 261.047 223.677 261.047 223.662 261.047C223.531 261.063 223.412 261.083 223.287 261.099C223.271 261.104 223.25 261.104 223.234 261.104C223.109 261.125 222.99 261.135 222.865 261.146C222.766 261.161 222.656 261.167 222.552 261.182L222.38 261.193C222.287 261.203 222.188 261.214 222.099 261.219C222.026 261.224 221.958 261.224 221.885 261.234H221.849C220.625 261.318 219.412 261.302 218.224 261.161C218.339 261.052 218.453 260.943 218.568 260.828C224.182 255.141 229.912 249.542 235.255 243.599C239.573 238.49 244.141 233.313 246.599 227.005C248.156 222.854 248.479 218.099 246.912 213.911C245.912 211.563 244.063 209.563 241.854 208.297C231.37 202.906 221.573 212.896 214.589 219.807C216.667 216.349 218.802 212.922 220.734 209.406C226.01 200.068 231.719 190.828 239.422 183.271C246.292 176.693 253.854 170.823 261.927 165.797C262.135 165.667 262.339 165.542 262.542 165.417C265.083 163.849 267.677 162.37 270.318 160.974C276.224 158.115 284.547 155.13 291.016 157.365C296.526 159.51 301.365 163.542 303.938 168.922C305.583 172.297 307.037 175.813 307.797 179.516C308.807 184.974 308.771 190.578 308.469 196.104C306.75 214.953 304.391 233.75 304.073 252.688C303.792 261.078 303.938 269.51 302.682 277.833C301.698 284.448 300.365 290.547 298.521 297.156C288.25 330.302 276.958 363.536 274.354 398.385C273.615 407.063 273.203 415.781 273.474 424.49C273.505 425.969 273.552 427.443 273.63 428.922C273.714 429.938 273.698 431.021 273.984 432C273.99 432 273.99 432 273.99 431.99C273.99 431.99 273.99 431.99 273.984 431.99C273.662 430.094 273.854 428.146 273.938 426.219C274.464 418.688 275.781 411.234 276.901 403.766C279.193 386.807 281.755 370.078 286.068 353.448C288.891 342.219 291.995 331.047 295.714 320.078C297.797 314.068 300.151 308.156 302.057 302.094C304.635 293.786 306.474 285.25 307.521 276.62C309.078 262.417 308.688 248.083 309.693 233.839C310.682 219.75 313.427 205.807 312.849 191.609ZM14.698 50.3229C14.5261 53.9062 14.1042 57.4844 13.3178 60.9792C13.2084 61.4687 13.0938 61.9531 12.974 62.4375C12.974 62.4375 12.974 62.4375 12.9688 62.4375H12.9636C12.9792 62.2344 12.9844 62.0417 13.0001 61.8437C13.1667 58.2344 13.224 54.6094 13.2501 51C13.2553 49.9531 13.2501 48.9167 13.2501 47.8698V47.7708C13.2396 45.901 13.2553 44.026 13.3126 42.1562C13.3646 40.3646 13.4323 38.5677 13.5053 36.7708C13.5886 34.8229 13.6771 32.875 13.7292 30.9219C13.7396 30.526 13.7553 30.1302 13.7553 29.7344C13.7605 29.3802 13.7761 29.0156 13.7553 28.6615H13.7448C13.7448 28.6042 13.7292 28.5365 13.7448 28.4844C13.7448 28.474 13.7657 28.474 13.7657 28.4844C13.849 28.901 13.8646 29.349 13.9063 29.776C13.9428 30.1875 13.9792 30.6146 14.0157 31.026C14.0834 31.9323 14.1615 32.8333 14.2344 33.7448C14.3646 35.5573 14.4844 37.3698 14.573 39.1875C14.6615 41.0156 14.7448 42.849 14.7865 44.6771C14.8178 46.5625 14.7865 48.4427 14.698 50.3229ZM221.938 246.068C224.797 242.391 227.813 238.823 230.875 235.307C232.469 233.484 234.042 231.651 235.526 229.745C235.781 229.391 236.037 229.036 236.287 228.677C236.516 228.344 236.724 227.995 236.932 227.646C237.266 227.042 237.563 226.432 237.833 225.807C238.109 225.089 238.349 224.375 238.552 223.635C238.682 223.068 238.792 222.5 238.875 221.922C238.922 221.542 238.948 221.161 238.958 220.776C238.953 220.443 238.943 220.115 238.912 219.781C238.87 219.469 238.813 219.161 238.755 218.859C238.755 218.844 238.75 218.828 238.745 218.813C238.667 218.521 238.583 218.24 238.469 217.958C238.391 217.786 238.313 217.62 238.219 217.453C238.141 217.313 237.995 217.099 237.896 216.974C237.781 216.844 237.667 216.719 237.542 216.594C237.438 216.5 237.333 216.417 237.224 216.328C237.219 216.328 237.219 216.328 237.219 216.328C237.12 216.255 237.021 216.193 236.917 216.13C236.865 216.104 236.818 216.078 236.771 216.057C236.729 216.042 236.688 216.031 236.641 216.01C236.604 216.005 236.573 215.995 236.537 215.984C236.505 215.984 236.484 215.979 236.453 215.979C236.438 215.979 236.417 215.979 236.401 215.984C236.391 215.984 236.38 215.99 236.37 215.995C236.37 215.995 236.37 215.995 236.365 215.995C236.359 216 236.359 216 236.349 216.005V216.01V216.016C236.359 216.016 236.359 216.021 236.359 216.021C236.365 216.021 236.365 216.031 236.365 216.031C236.37 216.031 236.37 216.031 236.375 216.036C236.385 216.036 236.385 216.042 236.375 216.042C236.339 216.031 236.333 216.01 236.365 215.984C236.453 215.901 236.698 215.984 236.792 216.005C237.083 216.073 237.359 216.245 237.62 216.401C238.469 216.938 239.073 217.797 239.469 218.703C239.693 219.229 239.901 219.781 240.016 220.333C240.13 220.88 240.208 221.417 240.26 221.974C240.365 223.141 240.245 224.323 240.073 225.479C239.724 227.849 238.615 230.078 237.208 231.995C235.771 233.943 234.12 235.714 232.359 237.375C230.714 238.932 228.974 240.406 227.214 241.844C225.474 243.271 223.703 244.682 221.938 246.073H221.932V246.068H221.938ZM119.578 140.844C119.266 140.714 118.958 140.599 118.635 140.505C118.385 140.437 118.13 140.385 117.88 140.354C117.662 140.328 117.453 140.323 117.24 140.318C117.234 140.318 117.234 140.307 117.24 140.307C117.641 140.286 118.031 140.25 118.427 140.292C118.964 140.344 119.479 140.448 119.995 140.599C121.083 140.927 122.109 141.453 123.068 142.052C123.995 142.635 124.828 143.375 125.583 144.161C126.391 144.995 127.047 145.984 127.516 147.042C128.047 148.234 128.349 149.516 128.589 150.797C128.839 152.083 128.974 153.391 129.063 154.687C129.063 154.698 129.063 154.698 129.057 154.698C128.604 153.479 128.135 152.271 127.662 151.068C127.193 149.896 126.734 148.714 126.167 147.583C125.901 147.104 125.625 146.641 125.323 146.182C124.714 145.328 124.063 144.51 123.359 143.724C122.901 143.25 122.432 142.792 121.927 142.37C121.5 142.026 121.068 141.714 120.615 141.417C120.609 141.417 120.609 141.411 120.604 141.411C120.604 141.411 120.604 141.411 120.599 141.411C120.271 141.203 119.932 141.016 119.578 140.844ZM149.662 242.505C149.448 242.271 149.229 242.047 149.005 241.828C148.703 241.547 148.385 241.286 148.063 241.026C147.854 240.875 147.656 240.724 147.438 240.589C147.182 240.427 146.922 240.276 146.662 240.13C146.365 239.99 146.063 239.854 145.75 239.729C145.448 239.62 145.141 239.516 144.823 239.443C144.25 239.307 143.672 239.24 143.083 239.177C142.938 239.167 142.797 239.151 142.656 239.125C142.62 239.12 142.573 239.115 142.547 239.083C142.537 239.073 142.547 239.063 142.552 239.068V239.063H142.557C142.557 239.068 142.552 239.068 142.552 239.068C142.552 239.068 142.552 239.068 142.552 239.073V239.083C142.557 239.083 142.557 239.089 142.557 239.089C142.568 239.094 142.573 239.094 142.589 239.099C142.609 239.099 142.635 239.109 142.656 239.109C142.948 239.13 143.245 239.13 143.547 239.12H144.021C144.438 239.12 145.12 239.177 145.531 239.255C145.745 239.302 145.958 239.344 146.167 239.396C146.875 239.578 147.573 239.823 148.229 240.156C150.031 241.057 151.568 242.401 152.771 244.016C153.078 244.427 153.365 244.849 153.641 245.281C153.922 245.729 154.172 246.188 154.412 246.651C154.906 247.62 155.234 248.667 155.49 249.724C155.984 251.802 155.807 253.974 155.531 256.068C155.427 256.891 155.271 257.693 155.115 258.505C155.115 258.51 155.109 258.526 155.109 258.526C155.109 258.536 155.099 258.547 155.099 258.557C154.698 260.542 154.151 262.5 153.557 264.438C152.984 266.344 152.344 268.234 151.656 270.099C151.359 270.891 151.052 271.677 150.734 272.458C150.734 272.464 150.734 272.464 150.724 272.464V272.458C151.537 268.411 152.177 264.323 152.755 260.24C152.964 258.823 153.13 257.406 153.266 255.979C153.313 255.344 153.359 254.708 153.385 254.068C153.406 253.422 153.412 252.781 153.412 252.135C153.401 251.833 153.391 251.526 153.359 251.224C153.339 250.896 153.297 250.573 153.255 250.25C153.156 249.667 153.037 249.104 152.891 248.531C152.787 248.177 152.672 247.828 152.552 247.469C152.427 247.099 152.276 246.75 152.12 246.391C151.854 245.818 151.563 245.266 151.26 244.708C151.109 244.464 150.964 244.219 150.797 243.979C150.615 243.703 150.417 243.432 150.219 243.167C150.037 242.938 149.854 242.719 149.662 242.505ZM161.547 285.307C159.266 290.875 157.307 296.568 155.547 302.313C154.406 305.833 153.162 309.313 151.927 312.807C151.026 309.474 150.662 306.01 150.417 302.573C150.328 301.401 150.281 300.229 150.276 299.057C151.068 296.333 151.807 293.594 152.557 290.854C152.557 290.849 152.557 290.849 152.563 290.844C156.505 288.063 160.047 284.495 163.135 280.552V280.547C163.156 280.521 163.182 280.49 163.203 280.458C163.287 280.354 163.37 280.25 163.453 280.141C163.635 279.906 163.818 279.667 163.995 279.432C163.135 281.37 162.354 283.354 161.547 285.307ZM169.844 260.281C169.625 260.589 169.453 260.927 169.38 261.297C169.307 261.688 169.135 262.021 168.969 262.391C168.833 262.682 168.698 262.974 168.557 263.271C168.49 263.411 168.422 263.563 168.349 263.703C168.276 263.854 168.208 264.005 168.135 264.151C168.052 264.323 167.969 264.5 167.88 264.672C167.792 264.849 167.708 265.031 167.615 265.203C167.474 265.49 167.339 265.766 167.188 266.047C167.109 266.193 167.042 266.339 166.964 266.49C166.766 266.865 166.568 267.24 166.365 267.615C166.302 267.724 166.245 267.833 166.182 267.953C166.026 268.245 165.859 268.542 165.693 268.839C163.526 272.708 161.052 276.411 158.198 279.859C157.047 281.234 155.823 282.599 154.516 283.901C156.521 277.01 159.229 270.292 160.422 263.188C161.13 258.391 161.474 253.484 160.901 248.656C160.526 245.594 159.922 242.615 158.677 239.766C157.672 237.552 156.63 235.307 155.01 233.479C153.391 231.672 151.365 230.182 149.146 229.203C146.833 228.292 144.323 227.958 141.844 227.958H141.787C134.276 227.964 128.094 233.276 124.083 239.219C120.307 244.859 118.151 251.708 116.151 258.188C114.922 262.432 113.875 266.651 112.938 270.911C112.448 267.604 112.505 264.245 112.615 260.776C113.172 253.479 115.031 246.411 116.432 239.24C118.734 228.37 120.745 217.625 123.047 206.76C123.156 206.25 123.266 205.734 123.375 205.224C123.615 204.125 123.854 203.026 124.094 201.927C124.99 198.036 125.885 194.146 126.797 190.26C126.854 190.031 126.906 189.802 126.958 189.573C126.99 189.458 127.01 189.344 127.042 189.229C127.068 189.115 127.094 188.995 127.12 188.885C128.031 185.047 128.948 181.219 129.891 177.396C130.208 176.12 130.521 174.844 130.849 173.573C130.953 173.146 131.063 172.724 131.167 172.297C131.276 171.875 131.385 171.448 131.495 171.026C131.703 170.198 131.917 169.375 132.13 168.547C132.245 168.099 132.365 167.651 132.479 167.203C132.594 166.776 132.703 166.354 132.813 165.927C132.912 165.557 133.01 165.182 133.104 164.812C133.141 164.693 133.177 164.562 133.208 164.443C133.297 164.089 133.391 163.74 133.484 163.391C133.87 161.932 134.271 160.479 134.667 159.026C134.807 158.526 134.943 158.026 135.078 157.531C135.083 157.505 135.089 157.49 135.094 157.464C135.677 155.37 136.266 153.286 136.88 151.198C140.859 138.656 143.875 125.687 149.729 113.839C151.099 111.167 152.672 108.458 154.474 105.906C154.594 105.734 154.719 105.568 154.839 105.396C154.969 105.219 155.094 105.047 155.219 104.88C155.344 104.714 155.469 104.542 155.599 104.375C155.62 104.349 155.635 104.323 155.662 104.292C155.766 104.161 155.865 104.031 155.969 103.901C156.151 103.661 156.344 103.427 156.537 103.193C156.62 103.089 156.708 102.979 156.792 102.88C156.854 102.807 156.912 102.734 156.979 102.661C157.026 102.604 157.073 102.547 157.125 102.49C157.198 102.406 157.271 102.318 157.344 102.24C157.458 102.104 157.583 101.969 157.703 101.839C161.599 97.4792 166.375 94.0833 172.26 92.9271C176.948 91.9531 181.734 93.0208 186.443 93.8333C192.667 95.1042 198.953 97.8281 203.266 102.62C204.807 104.401 205.839 106.526 206.62 108.734C209.255 116.307 208.297 124.521 206.839 132.24C206.38 134.365 205.854 136.474 205.276 138.562C205.203 138.797 205.146 139.026 205.078 139.26C205.005 139.495 204.948 139.724 204.875 139.958C204.792 140.224 204.719 140.49 204.635 140.766C204.594 140.922 204.542 141.083 204.495 141.245C204.412 141.505 204.339 141.771 204.255 142.031C204.182 142.266 204.109 142.49 204.037 142.724C203.932 143.047 203.828 143.37 203.729 143.687C203.677 143.859 203.625 144.026 203.568 144.198C203.281 145.078 202.984 145.958 202.688 146.839C202.557 147.224 202.422 147.615 202.287 148C202.214 148.208 202.141 148.417 202.068 148.63C202.068 148.63 202.057 148.651 202.042 148.708C201.453 150.609 190.287 186.776 184.974 210.036C184.969 210.047 184.969 210.052 184.969 210.057C184.026 215.641 183.229 218.51 183.156 218.771C183.151 218.776 183.151 218.786 183.151 218.792C181.974 223.099 180.693 227.385 179.412 231.667C178.589 234.411 177.776 237.156 176.974 239.917C175.547 244.922 173.979 249.927 172.13 254.823C172.083 254.938 172.037 255.057 171.995 255.177C171.958 255.281 171.912 255.396 171.875 255.5C171.854 255.536 171.839 255.583 171.823 255.63C171.75 255.813 171.682 255.995 171.604 256.177C171.573 256.271 171.531 256.37 171.495 256.458C171.417 256.661 171.339 256.859 171.255 257.057C171.255 257.063 171.25 257.063 171.25 257.078C171.167 257.281 171.083 257.49 170.995 257.698C170.766 258.266 170.531 258.828 170.292 259.385C170.167 259.688 170.063 259.984 169.844 260.281ZM191.266 301.167C190.271 303.417 189.198 305.63 188.146 307.854C187.609 308.969 187.078 310.078 186.537 311.198H186.531C186.531 311.198 186.526 311.198 186.526 311.193C187.094 308.813 187.708 306.448 188.328 304.083C188.964 301.677 189.651 299.281 190.281 296.875C190.49 296.099 190.672 295.313 190.854 294.526C191.359 292.172 191.813 289.802 192.13 287.406C192.214 286.484 192.271 285.568 192.281 284.635C192.276 284.172 192.255 283.714 192.229 283.255C192.208 282.781 192.146 282.307 192.089 281.833C192.037 281.521 191.995 281.214 191.927 280.906C191.859 280.552 191.776 280.214 191.682 279.865C191.557 279.464 191.427 279.078 191.287 278.693C191.13 278.349 190.974 278.021 190.802 277.688C190.625 277.385 190.438 277.104 190.24 276.813C190.052 276.578 189.859 276.359 189.656 276.141C189.474 275.974 189.287 275.813 189.094 275.656C188.787 275.438 188.474 275.224 188.135 275.031C187.938 274.927 187.74 274.823 187.531 274.724C187.443 274.677 187.344 274.635 187.25 274.589C187.229 274.578 187.229 274.578 187.214 274.563C187.219 274.557 187.219 274.557 187.224 274.557C187.224 274.557 187.229 274.557 187.229 274.563C187.229 274.563 187.224 274.563 187.224 274.568C187.224 274.568 187.229 274.568 187.229 274.573C187.24 274.578 187.25 274.583 187.25 274.583C187.964 274.833 188.677 275.068 189.354 275.427C189.583 275.547 189.797 275.698 190 275.849C190.406 276.161 190.792 276.49 191.135 276.88C191.51 277.302 191.844 277.75 192.167 278.214C192.479 278.661 192.729 279.172 192.958 279.667C193.208 280.198 193.417 280.745 193.609 281.307C193.776 281.813 193.917 282.328 194.047 282.839C194.156 283.276 194.313 283.995 194.37 284.438C194.375 284.479 194.385 284.51 194.391 284.542C194.391 284.552 194.391 284.563 194.396 284.573C194.484 285.286 194.563 286 194.609 286.719C194.662 287.547 194.609 288.375 194.557 289.208C194.474 290.484 194.313 291.755 194.057 293.005C193.724 294.609 193.292 296.177 192.708 297.698C192.271 298.87 191.776 300.021 191.266 301.167ZM251.37 167.937C245.141 172.807 239.016 177.896 233.787 183.854C226.609 191.854 221.349 201.25 216.094 210.563C212.37 217.135 208.063 223.432 205.156 230.432C204.438 231.328 203.729 232.24 203.021 233.156C199.365 237.906 195.813 242.729 192.688 247.849C191.214 250.167 189.885 252.573 188.625 255.016C188.49 255.276 188.365 255.536 188.229 255.802C190.964 258.271 193.75 260.703 196.849 262.714C200.094 264.719 203.62 266.359 207.333 267.286C208.276 267.505 209.214 267.714 210.162 267.896C210.453 267.953 210.755 268.01 211.057 268.068C212.552 266.703 214.016 265.307 215.453 263.891C216.912 264.281 218.417 264.516 219.932 264.594C218.557 267.401 217.266 270.26 216.037 273.193C213.188 280.063 210.969 287.188 207.969 294.01C204.401 302.552 199.662 310.734 193.302 317.5C193.938 315.854 194.563 314.214 195.198 312.568C197.667 306.005 200.078 299.38 201.521 292.5C202.302 288.823 202.781 285.052 202.547 281.292C202.068 272.234 195.458 265.005 186.688 263.104C185.714 262.901 184.729 262.797 183.734 262.797C180.99 262.797 178.24 263.557 175.818 264.844C173.719 265.964 171.912 267.536 170.318 269.302C170.583 268.786 170.844 268.276 171.094 267.766C177.62 254.427 180.802 239.813 184.797 225.604C187.359 216.068 190.021 206.75 191.901 197.083C192.589 193.547 193.474 190.057 194.51 186.609C197.229 177.615 199.875 168.594 203.115 159.766C205.63 153.307 208.052 146.74 209.76 140.01C216.162 135.474 224.604 134.318 232.214 135.865C235.318 136.526 238.297 137.677 241.13 139.099C246.151 141.552 250.344 144.708 253.729 149.193C256.62 152.984 258.62 157.349 260.365 161.776C257.287 163.703 254.287 165.781 251.37 167.937Z" fill="#C5AA96"/>
</g>
</svg>
