<svg width="389" height="432" viewBox="0 0 389 432" fill="none" xmlns="http://www.w3.org/2000/svg">
<path d="M388.688 390.567L386.25 225.764C386.005 207.483 339.979 197.244 301.5 192.124C299.552 191.879 297.604 193.343 297.359 195.29C297.115 197.244 298.578 199.192 300.526 199.436C362.385 207.968 378.943 220.16 378.943 226.009C378.943 226.983 378.703 227.957 377.969 228.936C373.589 235.275 358 241.613 335.109 246.733C320.25 250.145 301.984 252.827 281.286 255.02C263.75 256.728 245 258.192 225.516 258.676C205.302 259.41 184.844 259.41 165.849 258.921C144.661 258.431 124.203 256.973 105.208 255.02C84.0208 252.827 65.2656 249.9 49.6823 246.244C18.5052 238.931 7.30208 230.884 7.30208 225.764C7.30208 217.962 33.6042 206.02 91.0833 198.702C93.0313 198.462 94.4896 196.509 94.25 194.561C94.0052 192.608 92.0573 191.145 90.1094 191.389C59.1771 195.535 8.76563 204.556 0.973958 221.379C0.239584 222.108 0 222.837 0 223.817V390.567C0 397.639 6.08854 403.733 18.9948 409.343C18.9948 409.343 19.2396 409.343 19.2396 409.582C26.7865 412.754 36.5313 415.681 47.974 418.363C63.3177 421.775 81.099 424.702 101.552 426.895L103.016 427.139C103.5 427.139 104.234 427.379 104.719 427.379C123.958 429.332 144.661 430.796 166.333 431.28C175.344 431.525 184.844 431.77 194.344 431.77C205.057 431.77 216.26 431.525 226.974 431.28C246.703 430.551 265.698 429.332 283.479 427.624C284.693 427.624 285.667 427.379 286.646 427.379C306.615 425.186 324.146 422.504 338.516 419.093C349.474 416.655 358.974 413.973 366.281 411.046C376.51 407.145 382.839 402.759 386.005 398.124C387.953 395.447 388.688 393.009 388.688 390.567ZM363.844 403.733C357.755 406.171 350.448 408.363 341.682 410.561V284.52C341.682 282.567 339.979 280.863 338.031 280.863C336.083 280.863 334.375 282.567 334.375 284.52V412.264C320.74 415.192 304.422 417.629 286.156 419.822C285.182 420.067 284.208 420.067 282.99 420.067C266.427 421.775 248.896 422.994 230.63 423.723V423.483V294.514C230.63 292.567 228.927 290.858 226.974 290.858C225.026 290.858 223.323 292.567 223.323 294.514V423.483C223.323 423.723 223.323 423.723 223.323 423.968C204.083 424.457 184.844 424.702 166.578 423.968C146.365 423.483 127.125 422.259 108.859 420.311V284.52C108.859 282.567 107.156 280.863 105.208 280.863C103.26 280.863 101.552 282.567 101.552 284.52V419.582C81.8281 417.384 64.2917 414.702 49.6823 411.29C38.7188 408.853 29.4688 405.926 22.1615 403.004C22.1615 403.004 21.9167 403.004 21.9167 402.759C12.4167 398.613 7.0625 394.228 7.0625 390.811V237.957C14.3646 243.561 26.7865 248.436 45.0521 252.827V390.811C45.0521 392.764 46.7552 394.468 48.7083 394.468C50.6563 394.468 52.3594 392.764 52.3594 390.811V254.53C67.2135 257.702 84.5052 260.384 103.99 262.332C122.5 264.285 142.224 265.504 162.682 266.233V403.004C162.682 404.952 164.385 406.66 166.333 406.66C168.281 406.66 169.99 404.952 169.99 403.004V266.478C177.536 266.723 185.089 266.723 192.88 266.723C203.599 266.723 214.557 266.478 225.516 266.233C244.266 265.504 262.531 264.53 279.578 262.822V380.087C279.578 382.035 281.286 383.744 283.234 383.744C285.182 383.744 286.885 382.035 286.885 380.087V262.093C305.88 259.895 322.443 257.212 336.568 254.29C357.026 249.655 371.151 244.296 378.943 238.197L381.38 391.056C381.38 392.03 381.135 393.009 380.406 393.983C378.703 395.931 374.563 399.587 363.844 403.733ZM180.703 207.968C181.432 206.02 183.385 205.04 185.333 205.775C188.495 206.994 191.177 208.702 193.37 211.139C193.37 211.379 193.609 211.379 193.609 211.624C193.854 211.379 194.099 211.139 194.344 210.65C196.776 207.723 199.698 205.53 203.109 204.067C205.057 203.093 207.005 204.067 207.979 205.775C208.953 207.483 207.979 209.676 206.276 210.65C203.839 211.869 201.646 213.332 199.943 215.525C198.724 216.988 197.75 218.452 197.021 220.16C196.536 221.379 195.073 222.353 193.609 222.353C192.151 222.353 190.932 221.379 190.203 220.16C189.714 218.697 188.74 217.478 187.766 216.259C186.307 214.796 184.599 213.577 182.651 212.843C180.948 212.113 179.974 209.921 180.703 207.968ZM112.755 198.702L108.375 218.207C101.068 216.259 97.6563 214.796 96.1979 213.822C97.4115 213.087 99.849 212.113 104.234 211.139C106.182 210.65 107.401 208.702 106.911 206.749C106.427 204.801 104.474 203.582 102.526 204.067C92.2969 206.749 87.9167 209.676 87.9167 213.822C87.9167 217.478 90.5938 221.619 110.323 226.254C132.969 231.374 167.552 234.785 198.24 235.03C198.724 235.03 199.458 235.03 199.943 235.03C227.708 235.03 259.609 232.348 281.531 227.957C303.932 223.572 306.859 219.426 306.859 215.525C306.859 210.895 301.745 207.968 289.078 205.285C287.13 204.801 285.182 206.02 284.693 207.968C284.208 209.921 285.427 211.869 287.375 212.358C293.219 213.577 296.385 214.796 298.089 215.525C296.141 216.499 292 218.207 283.234 220.16L276.656 198.947C276.172 196.025 275.443 193.343 274.224 190.905C268.865 177.249 256.203 166.525 242.563 164.087C241.099 163.843 239.396 163.598 237.693 163.353C232.578 162.624 228.193 162.134 225.026 158.723C221.375 155.067 219.427 149.212 219.427 142.634C219.427 142.389 219.427 142.389 219.427 142.145C219.427 141.655 219.427 141.171 219.427 140.681C224.052 135.561 227.948 129.957 229.411 124.348C230.63 119.473 231.359 114.353 231.849 108.988C234.771 107.525 237.203 105.577 239.396 103.379C244.026 98.504 246.703 91.4363 247.188 81.9259C247.188 80.4624 247.432 78.2697 247.188 75.5874C247.432 75.3478 247.432 75.103 247.432 74.8582C247.677 73.6394 247.432 72.4207 246.948 71.6863C245.974 60.228 242.078 42.1915 228.193 24.879C221.859 17.0769 214.313 10.4988 205.786 4.88945C203.599 2.69674 199.698 0.259239 194.344 0.0144473C188.01 -0.230345 183.625 2.69674 181.677 4.16028C172.911 9.76445 165.12 16.8374 158.542 24.879C156.839 27.0769 145.146 42.4311 141.005 61.2072C141.005 61.4467 140.766 61.6915 140.766 62.1811C139.302 68.7644 139.057 75.5874 140.276 82.4155C141.005 85.8269 142.714 94.8478 149.776 102.65C149.776 102.65 152.698 105.822 155.62 107.77C155.865 113.379 156.594 118.738 158.057 123.619C159.76 129.957 164.385 136.296 169.99 141.9C171.208 146.046 170.719 149.702 168.771 153.358C166.094 157.988 160.734 161.405 154.646 162.869C152.698 163.353 150.995 163.598 149.042 163.843C145.146 164.327 141.25 165.061 137.354 166.525C127.37 170.181 119.089 178.957 114.948 191.145V191.389C113.729 193.343 113 196.025 112.755 198.702ZM239.641 80.7072C239.151 88.5092 237.203 93.8738 233.797 97.5301C232.578 98.7488 231.359 99.7228 229.901 100.702C229.411 99.4832 228.682 98.2592 228.193 97.0405C226.974 94.8478 224.786 91.1915 221.62 87.2905C219.911 85.3426 216.26 80.7072 210.417 76.8061C207.979 75.103 205.547 73.6394 202.865 72.6655C212.849 71.2019 225.271 71.6863 240.125 75.8322C239.885 77.7853 239.885 79.4884 239.641 80.7072ZM164.385 29.5144C170.229 21.9572 177.536 15.3738 185.818 10.0092L186.063 9.76445C187.281 9.03528 189.958 7.32695 193.609 7.32695C193.854 7.32695 193.854 7.32695 194.099 7.32695C197.51 7.57174 199.943 9.03528 201.161 10.0092L201.406 10.254C207.005 13.9103 212.12 18.0561 216.75 22.6863C186.547 22.6863 167.068 33.4155 155.375 43.4103C159.76 35.3634 163.901 29.9988 164.385 29.5144ZM147.583 80.9519C146.365 75.103 146.854 69.2488 148.068 63.6447C150.26 59.4988 170.229 27.3165 223.568 29.9988C234.036 43.6499 238.177 57.7905 239.396 67.7853C216.75 61.9363 198.969 64.3738 187.281 68.7644H187.036C181.922 70.7124 178.026 72.9051 175.589 75.103C164.385 84.1238 160.49 92.6551 157.813 99.7228C156.839 98.7488 155.865 98.0197 155.62 97.7749C149.531 91.4363 148.068 83.879 147.583 80.9519ZM162.927 106.306L163.167 105.332C165.849 97.7749 168.771 89.9728 179.974 80.7072C181.922 79.2436 184.844 77.5405 188.74 75.8322C195.073 76.8061 200.917 79.004 206.031 82.6603C211.146 86.0717 214.313 89.9728 215.776 91.9207C218.698 95.3374 220.401 98.504 221.62 100.457C222.594 102.405 223.568 104.358 224.297 106.306C224.052 111.671 223.323 116.79 222.104 121.665C219.427 131.905 206.276 142.634 198.484 147.994C195.318 150.192 191.661 150.192 188.495 147.994C180.948 142.634 167.552 131.905 164.875 121.665C163.901 117.035 163.167 111.915 162.927 106.306ZM139.547 172.863C142.714 171.645 146.365 171.155 150.016 170.665C151.969 170.426 153.917 170.181 156.104 169.692C164.146 167.988 171.448 163.108 175.104 156.77C176.563 154.093 177.536 151.41 178.026 148.728C180.458 150.676 182.651 152.384 184.844 153.848C187.521 155.796 190.688 156.77 194.099 156.77C197.266 156.77 200.432 155.796 203.354 153.848C206.276 151.65 209.443 149.212 212.609 146.53C213.339 153.113 216.016 158.968 220.156 163.108C225.271 168.228 231.604 169.207 237.203 169.936C238.667 170.181 240.125 170.426 241.589 170.665C252.792 172.863 263.505 181.884 267.891 193.098C268.865 195.29 269.354 197.483 269.839 199.921C269.839 200.165 269.839 200.165 269.839 200.41L276.417 221.134C268.62 222.598 259.854 223.817 250.354 224.79C250.354 224.546 250.354 224.546 250.115 224.301L245.974 214.061C245.484 212.598 243.781 211.624 242.318 211.869C240.615 211.869 239.396 213.087 239.151 214.551L236.719 224.79C236.719 225.28 236.719 225.52 236.719 226.009C224.052 226.983 210.901 227.473 198.484 227.473C183.141 227.473 166.333 226.499 150.995 224.79L148.557 214.551C148.068 213.087 146.854 211.869 145.391 211.869C143.688 211.869 142.224 212.598 141.74 214.061L138.083 223.082C130.047 222.108 122.5 220.889 115.922 219.426L120.552 199.681C121.036 197.244 121.526 194.801 122.255 192.853V192.608C125.177 182.858 131.51 175.785 139.547 172.863ZM294.438 136.535C296.87 133.124 299.063 130.197 299.063 124.103C299.063 118.009 297.115 115.327 294.438 111.671C291.755 107.77 288.594 103.379 288.594 95.0926C288.594 86.8061 291.755 82.1707 294.438 78.5144C296.87 75.103 299.063 72.1759 299.063 66.0822C299.063 64.129 300.771 62.4259 302.719 62.4259C304.667 62.4259 306.37 64.129 306.37 66.0822C306.37 74.6134 303.203 79.004 300.526 82.6603C298.089 86.0717 295.896 88.9988 295.896 95.0926C295.896 101.186 297.844 103.869 300.526 107.525C303.203 111.426 306.37 115.817 306.37 124.103C306.37 132.634 303.203 137.025 300.526 140.681C298.089 144.093 295.896 147.02 295.896 153.113C295.896 155.067 294.193 156.77 292.245 156.77C290.297 156.77 288.594 155.067 288.594 153.113C288.594 144.582 291.755 140.436 294.438 136.535ZM51.3854 158.968C53.8177 155.551 56.0104 152.629 56.0104 146.53C56.0104 140.436 54.0625 137.754 51.3854 134.098C48.7083 130.197 45.5417 125.811 45.5417 117.52C45.5417 108.988 48.7083 104.598 51.3854 100.942C53.8177 97.5301 56.0104 94.603 56.0104 88.5092C56.0104 86.5613 57.7188 84.853 59.6667 84.853C61.6146 84.853 63.3177 86.5613 63.3177 88.5092C63.3177 97.0405 60.151 101.431 57.474 105.087C55.0365 108.499 52.8438 111.426 52.8438 117.52C52.8438 123.619 54.7969 126.296 57.474 129.957C60.151 133.853 63.3177 138.244 63.3177 146.53C63.3177 155.067 60.151 159.452 57.474 163.108C55.0365 166.525 52.8438 169.447 52.8438 175.546C52.8438 177.494 51.1406 179.202 49.1927 179.202C47.2448 179.202 45.5417 177.494 45.5417 175.546C45.2969 167.254 48.4635 162.869 51.3854 158.968ZM340.224 175.056C341.927 172.619 343.146 170.91 343.146 167.009C343.146 163.108 341.927 161.405 340.224 158.968C338.271 156.285 335.839 152.874 335.839 146.53C335.839 140.192 338.271 136.78 340.224 134.098C341.927 131.66 343.146 129.957 343.146 126.056C343.146 124.103 344.849 122.395 346.797 122.395C348.745 122.395 350.448 124.103 350.448 126.056C350.448 132.395 348.016 135.806 346.068 138.488C344.359 140.926 343.146 142.634 343.146 146.53C343.146 150.431 344.359 152.139 346.068 154.577C348.016 157.259 350.448 160.671 350.448 167.009C350.448 173.348 348.016 176.764 346.068 179.447C344.359 181.884 343.146 183.587 343.146 187.488C343.146 189.442 341.438 191.145 339.49 191.145C337.542 191.145 335.839 189.442 335.839 187.488C335.839 181.15 338.271 177.738 340.224 175.056ZM104.234 80.7072C105.938 78.2697 107.156 76.5665 107.156 72.6655C107.156 68.7644 105.938 67.0561 104.234 64.6186C102.286 61.9363 99.849 58.5249 99.849 52.1863C99.849 45.8478 102.286 42.4311 104.234 39.754C105.938 37.3113 107.156 35.6082 107.156 31.7072C107.156 29.754 108.859 28.0509 110.807 28.0509C112.755 28.0509 114.464 29.5144 114.464 31.7072C114.464 38.0457 112.026 41.4572 110.078 44.1394C108.375 46.5769 107.156 48.2853 107.156 52.1863C107.156 56.0874 108.375 57.7905 110.078 60.228C112.026 62.9103 114.464 66.3269 114.464 72.6655C114.464 79.004 112.026 82.4155 110.078 85.0978C108.375 87.5353 107.156 89.2436 107.156 93.1447C107.156 95.0926 105.448 96.8009 103.5 96.8009C101.552 96.8009 99.849 95.0926 99.849 93.1447C99.849 86.8009 102.286 83.3894 104.234 80.7072Z" fill="#C5AA96"/>
</svg>
